<?xml version="1.0" encoding="UTF-8"?>
<svg width="360px" height="440px" viewBox="0 0 360 440" version="1.1" xmlns="http://www.w3.org/2000/svg" xmlns:xlink="http://www.w3.org/1999/xlink">
    <title>插图_404</title>
    <defs>
        <linearGradient x1="50%" y1="-27.4417034%" x2="50%" y2="107.005601%" id="linearGradient-1">
            <stop stop-color="#FB3A32" stop-opacity="0.18" offset="0%"></stop>
            <stop stop-color="#FB433B" stop-opacity="0.171987731" offset="16.6056279%"></stop>
            <stop stop-color="#FFFFFF" stop-opacity="0" offset="100%"></stop>
        </linearGradient>
        <linearGradient x1="50%" y1="0%" x2="50%" y2="89.5426008%" id="linearGradient-2">
            <stop stop-color="#FB3A32" stop-opacity="0.5" offset="0%"></stop>
            <stop stop-color="#FFFFFF" stop-opacity="0" offset="100%"></stop>
        </linearGradient>
    </defs>
    <g id="icon" stroke="none" stroke-width="1" fill="none" fill-rule="evenodd">
        <g id="404" transform="translate(5.000000, -1.000000)">
            <g id="飞碟" transform="translate(0.000000, 38.035336)">
                <path d="M269.533485,169.45569 L269.168178,169.455862 C241.251596,169.401575 206.122656,164.4396 168.912444,154.423528 C132.535173,144.63104 100.284816,131.654477 76.2451978,118.020616 C75.9683253,117.862886 75.6911321,117.70516 75.4151189,117.547396 C75.2606815,117.459332 75.1070699,117.371198 74.9538034,117.283038 C47.667782,101.607946 32.0469412,85.5799542 32.0904134,72.506296 C32.0922277,72.4893478 32.0923073,72.4723574 32.0924135,72.4553716 C32.0957291,71.6687387 32.1575926,70.8928241 32.2771254,70.1283551 C32.2807287,70.1153491 32.2827253,70.1026872 32.2847377,70.0900282 C32.3649555,69.5754392 32.4730021,69.0656847 32.6075162,68.5613552 C34.3496404,62.0297186 40.3675592,57.008282 49.735945,53.5234482 L49.8863116,53.469941 C57.484899,45.3719749 73.7112566,39.5318656 95.6893695,37.1390318 C111.355933,35.4333584 129.052825,35.5484389 147.72938,37.500158 C154.420535,15.70035 174.564243,0.5 197.672351,0.5 C226.533735,0.5 249.929576,24.0036508 249.929576,52.9957268 C249.929576,56.8643116 249.512919,60.6784248 248.694917,64.3908936 C266.941306,72.3768344 283.509224,81.5951181 297.261549,91.396229 C321.479177,108.655832 334.274103,125.892213 331.115208,137.735887 C330.817707,138.851273 330.384641,139.902981 329.818407,140.891463 C330.371312,143.537686 330.34155,146.091822 329.691509,148.528996 C329.678682,148.577088 329.665623,148.625099 329.652332,148.673027 L329.689961,148.528793 C329.633163,148.741743 329.571797,148.953161 329.505891,149.163042 C329.48599,149.231559 329.464248,149.299123 329.442036,149.36652 C329.376776,149.559623 329.309105,149.751834 329.237564,149.942722 C329.21266,150.013515 329.185945,150.083219 329.158716,150.152738 C329.083311,150.34111 329.005497,150.52873 328.923879,150.715035 L328.905204,150.76114 C328.887193,150.801886 328.869001,150.842565 328.850628,150.883179 C328.779535,151.036821 328.707257,151.189935 328.632374,151.342141 C328.602075,151.406861 328.56995,151.471025 328.537362,151.53502 C328.446899,151.709743 328.354307,151.883602 328.258255,152.056241 C328.219531,152.128344 328.178767,152.200277 328.137403,152.271987 C328.028884,152.457884 327.91779,152.642147 327.802679,152.824978 C327.775826,152.869397 327.747731,152.913529 327.719402,152.957574 C327.600367,153.141132 327.478064,153.323615 327.351691,153.504633 C327.340335,153.52197 327.328471,153.538883 327.316572,153.555782 C327.18525,153.741449 327.050076,153.925944 326.910618,154.108882 C326.871493,154.160531 326.832215,154.211432 326.792606,154.262207 C326.641421,154.456058 326.485079,154.648696 326.323891,154.839551 C326.314405,154.850236 326.305623,154.860598 326.296827,154.870954 C318.300693,164.298982 298.457466,169.369245 270.481649,169.454701 C270.441613,169.454921 270.402057,169.455054 270.362487,169.455177 L269.533485,169.45569 L269.533485,169.45569 Z M91.8657777,48.6395216 L90.9195681,48.6444562 C90.6478005,48.6463592 90.3767628,48.6487398 90.1064601,48.6515979 L90.9204651,48.6441965 C90.3448838,48.6482213 89.7725764,48.6543889 89.2035913,48.6626972 L90.1064601,48.6515979 C89.498482,48.6580266 88.8942224,48.666871 88.2937391,48.6781288 L89.2035913,48.6626972 C88.629927,48.6710738 88.0596398,48.6816265 87.4927791,48.6943533 L88.2937391,48.6781288 C87.648191,48.6902314 87.0070073,48.7051232 86.3702596,48.7228014 L87.4927791,48.6943533 C86.9418491,48.7067225 86.3941558,48.7211452 85.8497445,48.7376198 L86.3702596,48.7228014 C85.796125,48.7387412 85.2255969,48.7569462 84.658728,48.7774144 L85.8497445,48.7376198 C85.2752751,48.7550039 84.7044601,48.7746726 84.1373528,48.7966237 L84.658728,48.7774144 C84.1172428,48.7969661 83.5790964,48.8185827 83.0443348,48.8422624 L84.1373528,48.7966237 C83.5187007,48.8205699 82.9044609,48.8472324 82.2947028,48.8766082 L83.0443348,48.8422624 C82.4692589,48.8677273 81.8980974,48.8955781 81.330907,48.9258125 L82.2947028,48.8766082 C81.7799307,48.9014079 81.2683528,48.9281414 80.7600105,48.9568072 L81.330907,48.9258125 C80.7421122,48.9571986 80.1575969,48.9911533 79.5774249,49.027674 L80.7600105,48.9568072 C80.2222376,48.9871325 79.6880858,49.0196202 79.1576046,49.0542682 L79.5774249,49.027674 C79.0666253,49.0598278 78.5591924,49.0939708 78.0551699,49.130101 L79.1576046,49.0542682 C78.5284302,49.0953624 77.9044192,49.1394955 77.2856537,49.1866642 L78.0551699,49.130101 C77.5677285,49.1650427 77.0834768,49.201843 76.602454,49.2405005 L77.2856537,49.1866642 C76.7304663,49.2289863 76.1795019,49.2737523 75.63282,49.3209598 L76.602454,49.2405005 C76.0555128,49.2844554 75.5127463,49.3308114 74.9742123,49.3795659 L75.63282,49.3209598 C75.12438,49.3648649 74.6196443,49.4108818 74.1186606,49.4590087 L74.9742123,49.3795659 C74.424699,49.4293145 73.8795925,49.4815604 73.3389544,49.5363013 L74.1186606,49.4590087 C73.6131158,49.5075736 73.1113917,49.5582871 72.6135374,49.611147 L73.3389544,49.5363013 C72.816872,49.5891633 72.2989564,49.644352 71.7852631,49.7018649 L72.6135374,49.611147 C72.1275669,49.6627452 71.6452836,49.7163885 71.1667332,49.7720752 L71.7852631,49.7018649 C71.2410061,49.7627998 70.7014887,49.8263439 70.1667768,49.8924944 L71.1667332,49.7720752 C70.6804894,49.8286572 70.1980996,49.8873488 69.7196115,49.948148 L70.1667768,49.8924944 C69.6800092,49.9527136 69.197224,50.0150929 68.718471,50.0796301 L69.7196115,49.948148 C69.2218392,50.0113975 68.7282895,50.0769281 68.2390165,50.1447373 L68.718471,50.0796301 C68.2155038,50.1474315 67.7169869,50.2176146 67.2229779,50.2901773 L68.2390165,50.1447373 C67.7316861,50.2150492 67.2289538,50.2878112 66.7308797,50.3630207 L67.2229779,50.2901773 C66.7814632,50.3550293 66.3435494,50.4217819 65.9092774,50.4904335 L66.7308797,50.3630207 C66.2178907,50.4404825 65.7098432,50.5205406 65.2068027,50.6031925 L65.9092774,50.4904335 C65.4221522,50.5674404 64.9396094,50.6468366 64.461707,50.7286198 L65.2068027,50.6031925 C64.7386628,50.6801101 64.2748593,50.759274 63.8154452,50.840682 L64.461707,50.7286198 C64.0101823,50.805889 63.5627999,50.8852889 63.1196088,50.9668176 L63.8154452,50.840682 C63.3578255,50.9217721 62.904561,51.0050889 62.455704,51.0906302 L63.1196088,50.9668176 C62.6395288,51.0551322 62.1643668,51.1459448 61.694185,51.2392527 L62.455704,51.0906302 C62.0144947,51.174714 61.577544,51.2609472 61.1449017,51.3493278 L61.694185,51.2392527 C61.2405934,51.3292683 60.7916368,51.4216062 60.347371,51.5162642 L61.1449017,51.3493278 C60.7234053,51.4354315 60.3059981,51.5235733 59.8927262,51.6137514 L60.347371,51.5162642 C59.9004494,51.6114881 59.4582749,51.7090599 59.0209044,51.8089773 L59.8927262,51.6137514 C59.4570776,51.7088123 59.0260241,51.8061358 58.5996195,51.90572 L59.0209044,51.8089773 C58.6057862,51.9038112 58.1949955,52.000758 57.7885812,52.0998159 L58.5996195,51.90572 C58.1394309,52.0131941 57.6846572,52.1233013 57.2353659,52.2360387 L57.7885812,52.0998159 C57.372251,52.2012906 56.9605132,52.3049806 56.5534202,52.4108838 L57.2353659,52.2360387 C56.8274003,52.3384065 56.4239551,52.4429429 56.0250809,52.5496459 L56.5534202,52.4108838 C56.13765,52.5190442 55.7267247,52.6295132 55.3207,52.7422884 L56.0250809,52.5496459 C55.6275362,52.6559932 55.2345322,52.7644927 54.8461189,52.8751422 L55.3207,52.7422884 C54.9093519,52.8565422 54.5030337,52.973163 54.1018033,53.0921487 L54.8461189,52.8751422 C54.4594725,52.9852884 54.0773752,53.0975652 53.6998765,53.2119706 L54.1018033,53.0921487 C53.7172776,53.2061805 53.337425,53.3223842 52.9622962,53.4407578 L53.6998765,53.2119706 C53.297626,53.3338772 52.900597,53.4582007 52.5088492,53.5849386 L52.9622962,53.4407578 C52.5759385,53.5626748 52.1945916,53.6868936 51.8183115,53.8134118 L52.5088492,53.5849386 C52.1504825,53.7008771 51.7965353,53.8188361 51.4470536,53.9388137 L51.8183115,53.8134118 C51.4420764,53.9399148 51.0709067,54.0687168 50.7048582,54.1998155 L51.4470536,53.9388137 C51.1270644,54.0486665 50.8108187,54.1602115 50.4983518,54.2734474 C48.5225146,56.4167149 47.1815704,58.7111854 46.535962,61.1317282 C43.8111978,71.347577 53.8214605,82.8029398 75.1549798,94.7108946 L76.5320581,95.4715839 L77.9398106,96.233457 L79.3781558,96.9964685 C79.6226227,97.1248839 79.716701,97.4271648 79.5882856,97.6716318 C79.4598701,97.9160987 79.1575892,98.010177 78.9131223,97.8817616 C76.9440527,96.8474337 75.056998,95.8153787 73.2530091,94.785962 L71.9156087,94.0143999 C52.0887167,82.4485608 42.8080748,71.2282171 45.5696943,60.8740053 C46.116323,58.8245929 47.1232528,56.8688038 48.559532,55.0194386 L48.2427007,55.1484261 C48.0154535,55.2426006 47.7905242,55.3377867 47.5679292,55.4339839 L48.2420153,55.1478624 C47.9298717,55.2772124 47.6221012,55.408471 47.3187462,55.5416364 L47.5679292,55.4339839 C47.2427941,55.5744949 46.9226392,55.7171629 46.6075154,55.8619858 L47.3187462,55.5416364 C46.994744,55.6838655 46.6757788,55.8282697 46.361902,55.9748472 L46.6075154,55.8619858 C46.2753871,56.0146235 45.9488475,56.1696549 45.6279562,56.3270775 L46.361902,55.9748472 C46.0630857,56.1143916 45.7688813,56.2559055 45.4793333,56.3993873 L45.6279562,56.3270775 C45.3273019,56.4745724 45.031606,56.6241664 44.7409175,56.7758576 L45.4793333,56.3993873 C45.1580814,56.5585796 44.8425613,56.7201943 44.5328339,56.8842288 L44.7409175,56.7758576 C44.4362148,56.9348618 44.1370139,57.0961704 43.8433713,57.2597809 L44.5328339,56.8842288 C44.2431823,57.037631 43.9585967,57.1931495 43.6791269,57.3507824 L43.8433713,57.2597809 C43.5493044,57.4236278 43.2608119,57.5897834 42.9779504,57.7582453 L43.6791269,57.3507824 C43.4130813,57.5008435 43.1516719,57.6528206 42.8949414,57.8067121 L42.9779504,57.7582453 C42.7113086,57.9170474 42.4496706,58.0778989 42.1930839,58.2407978 L42.8949414,57.8067121 C42.5787939,57.9962198 42.2697418,58.1886305 41.9678653,58.3839409 L42.1930839,58.2407978 C41.6561721,58.5816666 41.1413781,58.9315004 40.649137,59.2902818 C40.5889398,59.3328222 40.5302529,59.3759609 40.4718908,59.4192281 L40.649137,59.2902818 C40.1623609,59.6450798 39.6976397,60.0086277 39.2553943,60.3809084 C39.1891247,60.4351778 39.1238249,60.4907522 39.059024,60.5465198 L39.2553943,60.3809084 C39.0301552,60.570514 38.8107462,60.7623847 38.5972228,60.9565185 L39.059024,60.5465198 C38.8451775,60.7305559 38.6367631,60.9166962 38.4338308,61.1049386 L38.5972228,60.9565185 C38.1733225,61.3419253 37.7726193,61.7362511 37.3955482,62.1394783 C37.3634591,62.1719301 37.3330666,62.204655 37.3028295,62.2374383 L37.3955482,62.1394783 C36.8326394,62.7414342 36.3223968,63.3632274 35.8662677,64.0047992 C35.8383025,64.0417436 35.8117298,64.0794468 35.7853436,64.117218 L35.8662677,64.0047992 C34.8017246,65.5021401 34.0319334,67.1072132 33.5752918,68.8192707 C33.4489511,69.2929546 33.3474432,69.7715859 33.2704384,70.2549552 C33.2627372,70.2998306 33.2558426,70.3448519 33.2491612,70.3899196 L33.2496025,70.3898516 C33.2120435,70.6402866 33.1815046,70.8920849 33.1575112,71.1452843 C33.1414703,71.3034944 33.1287182,71.4624728 33.118507,71.6219283 L33.1575112,71.1452843 C33.1257867,71.4800698 33.1055057,71.8173048 33.0965919,72.1569199 C33.0915553,72.2365251 33.0899158,72.3162325 33.0888967,72.3960544 L33.0965919,72.1569199 C32.8570939,81.2816924 40.8233918,92.1246118 55.5142344,103.338311 C55.5769175,103.388898 55.6429639,103.439159 55.7091404,103.489423 L55.5142344,103.338311 C56.2490359,103.899194 57.0006605,104.461004 57.7689231,105.023574 C57.9958847,105.190511 58.2258866,105.357759 58.4572937,105.52503 L57.7689231,105.023574 C58.1086676,105.272356 58.451666,105.521286 58.797902,105.770351 C83.1311788,123.258207 122.77917,140.969196 169.172376,153.457898 C213.15461,165.296833 254.222568,170.02582 283.743913,167.995702 C283.783215,167.993542 283.821253,167.990901 283.85927,167.988249 L283.743913,167.995702 C284.242282,167.96143 284.73736,167.925232 285.229106,167.887109 L283.85927,167.988249 C284.46098,167.946272 285.05755,167.901491 285.648929,167.853917 C286.024806,167.823934 286.398237,167.792746 286.769685,167.760429 L285.648929,167.853917 C286.186685,167.810657 286.72015,167.765089 287.249282,167.71722 L286.769685,167.760429 C287.301041,167.7142 287.828339,167.665659 288.351526,167.614811 L287.249282,167.71722 C308.935169,165.755363 323.344764,159.929744 327.767103,150.833289 C327.790121,150.796055 327.808934,150.75673 327.827564,150.71734 L327.767103,150.833289 C327.883874,150.593099 327.993681,150.350629 328.096476,150.105889 C328.128099,150.038405 328.156399,149.969251 328.18415,149.899905 L328.096476,150.105889 C328.168201,149.93512 328.236513,149.763246 328.301392,149.590271 L328.18415,149.899905 C328.286992,149.642925 328.382316,149.38332 328.470052,149.121095 L328.301392,149.590271 C328.395721,149.338782 328.482797,149.084965 328.562566,148.828831 L328.694607,148.378556 C328.704455,148.342775 328.714162,148.306949 328.72373,148.27108 C329.250218,146.297138 329.34547,144.237281 329.033331,142.106661 C322.572631,151.012286 304.139826,154.202241 275.797742,152.070463 C275.522377,152.049751 275.31594,151.809734 275.336652,151.534369 C275.357364,151.259005 275.597381,151.052568 275.872746,151.07328 L277.783494,151.209888 C280.626127,151.402371 283.362896,151.538907 285.991603,151.619406 L287.72804,151.664769 C309.680092,152.137643 323.777051,148.553932 328.666013,140.856666 L328.769434,140.694812 C326.918414,132.526413 319.321018,123.394397 307.265176,114.117197 C307.153897,114.030595 307.041739,113.944571 306.929198,113.858535 L307.265176,114.117197 C306.144804,113.255049 304.985926,112.391647 303.789578,111.527648 C303.625969,111.408598 303.46115,111.290066 303.295628,111.171525 C300.433503,109.122603 297.361671,107.070152 294.093636,105.023613 C293.877806,104.887725 293.66072,104.752346 293.442779,104.616995 C292.770041,104.199908 292.089321,103.782469 291.400576,103.365376 L291.292669,103.597843 C289.484914,107.44847 285.062573,110.041183 278.276884,111.431409 L277.462756,111.590336 C276.362579,111.794761 275.203796,111.969296 273.987395,112.114159 L273.064306,112.217245 C272.908663,112.2335 272.752123,112.249293 272.594688,112.264622 L271.639362,112.351057 L270.662661,112.426415 L269.664676,112.490718 C269.496577,112.500515 269.327595,112.509852 269.157732,112.518729 L268.127996,112.566487 L267.077209,112.60324 L266.005463,112.629008 L264.912851,112.643813 L263.799464,112.647675 C263.612173,112.647407 263.424021,112.646685 263.235009,112.645508 L262.090635,112.632993 L260.925719,112.609585 L259.740352,112.575306 L258.534628,112.530175 L257.308639,112.474213 C257.102624,112.463984 256.895768,112.453306 256.688074,112.442177 L255.431861,112.370006 C255.22082,112.357079 255.008945,112.343703 254.796236,112.329877 L253.510008,112.241545 C253.234585,112.221633 253.027452,111.982216 253.047364,111.706792 C253.067276,111.431369 253.306693,111.224236 253.582117,111.244148 L254.214935,111.288765 L255.465755,111.370128 L256.696744,111.440994 L257.907813,111.501362 C258.107993,111.510549 258.307338,111.519298 258.505848,111.52761 L259.686864,111.572231 L260.84773,111.606351 L261.988356,111.629971 L263.10865,111.643089 C263.293667,111.6444 263.477832,111.645273 263.661144,111.645709 L264.75077,111.643071 C265.29045,111.639127 265.82242,111.631243 266.346629,111.619419 L267.384684,111.590518 L268.40195,111.55111 C268.569757,111.543666 268.736695,111.535784 268.90276,111.527465 L269.888673,111.472294 L270.853571,111.406613 C271.012631,111.39479 271.170811,111.382529 271.32811,111.369831 L272.261313,111.288383 L273.173271,111.196423 C273.323489,111.18022 273.472818,111.163579 273.621255,111.1465 L274.501177,111.03877 C275.370377,110.925781 276.207369,110.797021 277.011743,110.652483 L277.805228,110.502686 C284.629316,109.150597 288.962739,106.59872 290.533294,102.843955 C289.827383,102.419131 289.111747,101.995565 288.387983,101.572467 C286.793636,100.641088 285.160362,99.7116101 283.488986,98.7852405 C281.949562,97.9314156 280.377306,97.0805612 278.77374,96.2330016 C274.746321,94.1048365 270.521352,91.9968788 266.115221,89.9200935 C265.52235,89.6402112 264.925716,89.361111 264.325836,89.0826015 C254.115087,84.3423655 242.964649,79.7730412 231.070952,75.4999632 C230.334324,75.2351276 229.595383,74.9718099 228.853642,74.7096566 C226.802527,73.9848961 224.730194,73.2689279 222.637439,72.5624889 C221.703221,72.2469992 220.76446,71.9333881 219.821714,71.6217338 C217.608844,70.8903067 215.374491,70.1696927 213.119324,69.4605768 C212.402882,69.2352279 211.684235,69.0110822 210.963523,68.7881204 C210.251272,68.5678323 209.536921,68.3486142 208.820587,68.130575 C207.77757,67.8130588 206.730412,67.4981074 205.679162,67.1857243 C203.665571,66.5873945 201.637444,65.9985962 199.595071,65.4197006 C198.558128,65.1258047 197.517032,64.8343161 196.47236,64.545446 C195.361223,64.2381572 194.24589,63.9338226 193.126631,63.6325276 L191.993323,63.33 L190.686429,62.9822267 C189.562818,62.6857536 188.441224,62.3939401 187.321792,62.1067803 C185.229953,61.570121 183.145566,61.0497426 181.069673,60.5455771 C180.498139,60.4068266 179.927215,60.2692408 179.356954,60.1328833 L181.069673,60.5455771 C180.259783,60.3488818 179.451186,60.1546543 178.643939,59.9628922 L179.356954,60.1328833 C178.92889,60.0305272 178.5012,59.9288631 178.073892,59.8278909 L178.643939,59.9628922 C175.483096,59.2120323 172.342939,58.4989728 169.226841,57.8235763 C167.984931,57.5544617 166.746814,57.2912621 165.512733,57.0340366 C164.336496,56.7888033 163.164186,56.5491137 161.995726,56.3148412 C161.805441,56.2767575 161.615501,56.2387983 161.425663,56.2009823 L161.995726,56.3148412 C161.283577,56.1720579 160.572859,56.0312868 159.863612,55.8925263 L161.425663,56.2009823 C160.435512,56.0037425 159.448151,55.8104003 158.463696,55.620951 L159.863612,55.8925263 C159.068767,55.7370188 158.27577,55.5840365 157.48468,55.433577 L158.463696,55.620951 C157.542544,55.4436839 156.623935,55.2698252 155.707962,55.0993711 L157.48468,55.433577 C156.758597,55.2954813 156.034121,55.1595108 155.311297,55.0256636 L155.707962,55.0993711 C155.106347,54.9874162 154.505869,54.8769301 153.906554,54.7679116 L155.311297,55.0256636 C154.4846,54.872582 153.660064,54.7222778 152.837757,54.5747483 L153.906554,54.7679116 C153.23973,54.6466128 152.574346,54.5271309 151.910437,54.4094645 L152.837757,54.5747483 C152.09714,54.4418746 151.358331,54.3112516 150.62138,54.1828774 L151.910437,54.4094645 C151.111638,54.2678909 150.314975,54.1289455 149.520511,53.9926256 L150.62138,54.1828774 C149.844223,54.0474994 149.069132,53.9146223 148.296166,53.7842435 L149.520511,53.9926256 C148.855898,53.8785864 148.192824,53.7663846 147.531325,53.6560187 L148.296166,53.7842435 C147.525375,53.6542317 146.756697,53.5267043 145.99019,53.401659 L147.531325,53.6560187 C146.801686,53.5342839 146.073963,53.4147829 145.348208,53.2975135 L145.99019,53.401659 C145.260647,53.2826438 144.53307,53.165877 143.80751,53.0513566 L145.348208,53.2975135 C144.419493,53.1474493 143.493998,53.0010396 142.571828,52.8582801 L143.80751,53.0513566 C143.100678,52.9397924 142.39576,52.83036 141.692801,52.7230577 L142.571828,52.8582801 C141.874712,52.7503608 141.179496,52.6445275 140.486224,52.5407783 L141.692801,52.7230577 C140.910962,52.6037147 140.131547,52.4870066 139.354619,52.3729309 L140.486224,52.5407783 C139.798217,52.437817 139.112126,52.3369084 138.427992,52.2380505 L139.354619,52.3729309 C138.63523,52.2673035 137.917974,52.163933 137.202902,52.0628174 L138.427992,52.2380505 C137.558621,52.1124256 136.692412,51.9901124 135.829456,51.8711073 L137.202902,52.0628174 C136.491694,51.9622483 135.782647,51.8639097 135.075808,51.7677996 L135.829456,51.8711073 C135.195864,51.7837324 134.564025,51.6981409 133.933975,51.6143312 L135.075808,51.7677996 C134.315438,51.6644108 133.557625,51.5636007 132.802429,51.4653669 L133.933975,51.6143312 C133.108306,51.5045 132.285708,51.3977289 131.466263,51.2940146 L132.802429,51.4653669 C132.135249,51.3785819 131.470112,51.2938077 130.807062,51.2110426 L131.466263,51.2940146 C130.793838,51.2089083 130.123536,51.1258603 129.4554,51.0448688 L130.807062,51.2110426 C130.044009,51.1157946 129.283718,51.0232075 128.526256,50.9332784 L129.4554,51.0448688 C128.75522,50.9599929 128.057418,50.8773755 127.362046,50.7970145 L128.526256,50.9332784 C127.830163,50.8506355 127.136458,50.7702374 126.445191,50.6920821 L127.362046,50.7970145 C126.673662,50.7174611 125.987659,50.6401191 125.304087,50.5649864 L126.445191,50.6920821 C125.71642,50.6096865 124.990359,50.5297837 124.267067,50.4523713 L125.304087,50.5649864 C124.623017,50.4901287 123.944359,50.4174642 123.268163,50.3469909 L124.267067,50.4523713 C123.575342,50.3783375 122.886151,50.3065814 122.199543,50.237101 L123.268163,50.3469909 C122.484897,50.2653587 121.704933,50.1866666 120.928347,50.1109116 L122.199543,50.237101 C121.525554,50.1688975 120.854055,50.1028868 120.185095,50.0390668 L120.928347,50.1109116 C120.291591,50.0487967 119.657106,49.9886565 119.024935,49.9304891 L120.185095,50.0390668 C119.449519,49.9688916 118.717012,49.9013652 117.987641,49.8364851 L119.024935,49.9304891 C118.390247,49.8720902 117.757891,49.8156799 117.127909,49.7612565 L117.987641,49.8364851 C117.286165,49.7740863 116.587588,49.7141353 115.891969,49.6566295 L117.127909,49.7612565 C116.451203,49.7027967 115.777235,49.6466295 115.106059,49.5927526 L115.891969,49.6566295 C115.222675,49.6013001 114.55612,49.5482344 113.892353,49.4974303 L115.106059,49.5927526 C114.383561,49.5347561 113.664297,49.4794136 112.948333,49.4267226 L113.892353,49.4974303 C113.246558,49.4480018 112.603403,49.4007141 111.962935,49.3555654 L112.948333,49.4267226 C112.254159,49.3756352 111.563086,49.3270402 110.875175,49.2809354 L111.962935,49.3555654 C111.275408,49.3070992 110.590978,49.2610979 109.909704,49.217559 L110.875175,49.2809354 C110.24043,49.2383939 109.608377,49.1979724 108.979063,49.1596692 L109.909704,49.217559 C109.241364,49.1748466 108.576061,49.1345041 107.91385,49.0965291 L108.979063,49.1596692 C108.309496,49.1189159 107.643029,49.0805604 106.979718,49.0446005 L107.91385,49.0965291 C107.258319,49.0589373 106.605819,49.0236654 105.956402,48.9907113 L106.979718,49.0446005 C106.325704,49.0091446 105.674758,48.9760175 105.026935,48.945217 L105.956402,48.9907113 C105.341238,48.9594954 104.728842,48.9303593 104.119258,48.9033011 L105.026935,48.945217 C104.293335,48.9103383 103.563738,48.8784432 102.838224,48.8495284 L104.119258,48.9033011 C103.482389,48.8750318 102.84859,48.8490306 102.217913,48.8252954 L102.838224,48.8495284 C102.250761,48.8261156 101.665975,48.8046569 101.083907,48.7851505 L102.217913,48.8252954 C101.5632,48.8006555 100.911852,48.7784577 100.263926,48.7586995 L101.083907,48.7851505 C100.42507,48.7630714 99.769716,48.7434937 99.1179047,48.7264149 L100.263926,48.7586995 C99.644717,48.739817 99.0286337,48.7231627 98.415727,48.7087345 L99.1179047,48.7264149 C98.5191946,48.7107275 97.9234737,48.6971484 97.3307888,48.6856757 L98.415727,48.7087345 C97.7782976,48.693729 97.1443042,48.6811313 96.5138038,48.670939 L97.3307888,48.6856757 C96.7931866,48.6752692 96.2580823,48.6665959 95.7255109,48.6596542 L95.7349996,48.6338312 C94.6421813,52.7122845 96.4955716,57.085687 101.113364,61.6422296 L101.647933,62.1588409 C102.376411,62.8486832 103.167716,63.542602 104.021224,64.2402129 L104.673009,64.7641072 L105.34806,65.28935 C105.462504,65.3770008 105.577916,65.4647064 105.694293,65.5524658 L106.404135,66.0796637 L107.137098,66.6081199 C107.261182,66.6962988 107.386227,66.7845286 107.512232,66.8728086 L108.279766,67.4030847 C108.539443,67.5800401 108.802949,67.7571902 109.070275,67.934529 L109.883699,68.4671055 L110.71998,69.0007781 C111.002543,69.1788476 111.288906,69.3570938 111.579059,69.5355107 L112.460878,70.0712673 L113.365378,70.6080119 L114.292501,71.1457085 C114.448903,71.2354019 114.606245,71.3251334 114.764527,71.4149024 L115.725473,71.9539592 L116.708896,72.4938778 L117.714735,73.0346221 C117.88424,73.124813 118.054676,73.2150368 118.226043,73.3052927 C118.47037,73.4339752 118.564118,73.7363587 118.435435,73.9806852 C118.306753,74.2250117 118.004369,74.3187596 117.760043,74.1900771 L117.247374,73.9186968 L116.238334,73.3763132 C116.071975,73.2859587 115.906523,73.195626 115.741981,73.1053156 L114.765654,72.5637231 L113.811226,72.0226865 L112.878769,71.4822286 C112.725195,71.3922017 112.572539,71.3022 112.420803,71.2122237 L111.521441,70.6726765 L110.644233,70.1337648 L109.78925,69.5955115 C109.648609,69.5058588 109.508898,69.4162344 109.370117,69.3266389 L108.54861,68.7894158 C108.413558,68.6999376 108.279439,68.6104892 108.146255,68.5210711 L107.358388,67.9849295 L106.593038,67.4495374 L105.850278,66.9149175 C105.728371,66.8258798 105.607409,66.7368752 105.487392,66.6479042 L104.778653,66.1144853 C104.546197,65.936816 104.317538,65.7592848 104.092685,65.5818956 L103.429562,65.0501578 C103.103723,64.7845057 102.786479,64.5191816 102.477869,64.2541983 L101.872175,63.72469 C96.0412304,58.532731 93.5472777,53.4753614 94.69955,48.6494401 C94.3624805,48.6453964 94.0275107,48.6431045 93.6935796,48.6415096 L94.6475097,48.6477036 C93.7122141,48.6395714 92.7849058,48.6368467 91.8657777,48.6395216 Z M246.098044,80.1244861 L246.775016,80.3962223 C247.179728,80.5591669 247.583365,80.7224296 247.985916,80.8860048 C248.327015,81.0247568 248.667565,81.1636828 249.007329,81.30283 C249.314348,81.4284086 249.620888,81.5543898 249.926782,81.6805491 C250.377953,81.8667946 250.827005,82.0529671 251.274643,82.239518 C251.504998,82.3353375 251.735638,82.4317103 251.965898,82.5281828 C252.345822,82.6875487 252.724144,82.8467602 253.10143,83.0062371 C253.411767,83.1372162 253.721644,83.2686728 254.030814,83.4003065 C254.399621,83.5575407 254.766969,83.714627 255.133306,83.8719599 C255.435323,84.0014495 255.73693,84.1314426 256.037845,84.2616009 C256.403481,84.419983 256.767888,84.5782938 257.131267,84.7368435 C257.430989,84.8673794 257.730283,84.9984334 258.028872,85.1296475 C258.392627,85.2897487 258.754969,85.4496795 259.116257,85.6098426 C259.401715,85.7361299 259.687001,85.8630348 259.971624,85.990083 C260.304226,86.1388171 260.635566,86.2873215 260.965996,86.4360171 C261.28918,86.5811728 261.611513,86.7267961 261.932969,86.8725989 C262.191719,86.9902481 262.449601,87.1075915 262.706913,87.225049 C263.126751,87.416399 263.544538,87.6080993 263.960798,87.8000948 C264.14289,87.8843901 264.325384,87.9687577 264.507584,88.0531816 C264.945894,88.2559614 265.381268,88.4588044 265.814929,88.6619616 C266.077881,88.7854748 266.341148,88.9092233 266.603777,89.033086 C266.949876,89.1959785 267.293804,89.3588986 267.636623,89.522011 C267.876612,89.6365445 268.116744,89.7511557 268.356327,89.86586 C268.754022,90.055908 269.148963,90.2459658 269.542388,90.4362713 C269.818623,90.5702595 270.094321,90.7041057 270.369265,90.8380715 C270.692178,90.9950317 271.013951,91.1524816 271.334678,91.3100923 C271.615545,91.4485034 271.895735,91.5867136 272.175119,91.7250443 C272.501893,91.886442 272.826967,92.048101 273.150934,92.2099197 C273.421419,92.3454327 273.691974,92.4810746 273.961749,92.616826 C274.263633,92.7683175 274.563571,92.9198695 274.862531,93.071554 C275.162772,93.2243165 275.46194,93.376743 275.760118,93.5292992 C276.076582,93.6907736 276.391363,93.8525365 276.705025,94.0144405 C276.998082,94.1661582 277.29065,94.3178069 277.582232,94.4695755 C277.856617,94.6119339 278.129725,94.7546437 278.401958,94.8974564 C278.672756,95.0399848 278.943221,95.182431 279.212811,95.3249766 C279.592423,95.5252181 279.969308,95.725601 280.344454,95.9261715 C280.454492,95.9854928 280.565913,96.0451625 280.677179,96.1048486 C281.134471,96.3496567 281.587645,96.5944115 282.03821,96.8394262 C282.132719,96.8913302 282.228694,96.9435976 282.32455,96.9958766 C282.767724,97.2370665 283.206264,97.477863 283.642263,97.7188928 C283.810025,97.812167 283.978524,97.9055637 284.14664,97.9989946 C284.525231,98.2088573 284.90104,98.4189565 285.274902,98.6292188 C285.42869,98.7162635 285.582362,98.8029045 285.735702,98.8895726 C286.138639,99.1167525 286.538611,99.3442879 286.936283,99.5719977 C287.0691,99.6486238 287.202795,99.7253481 287.336227,99.8020918 C287.770465,100.051262 288.200463,100.300359 288.627686,100.549644 C288.689133,100.586095 288.752448,100.62308 288.815703,100.660068 C289.237313,100.906011 289.654157,101.151518 290.068286,101.397191 C290.240987,101.50026 290.414088,101.603262 290.58671,101.706291 C290.925385,101.907802 291.261383,102.109541 291.595536,102.311379 C291.764281,102.413947 291.93363,102.516553 292.1025,102.619184 C292.416899,102.809612 292.728449,103.00004 293.038342,103.190546 C293.251905,103.322496 293.465252,103.454176 293.677804,103.585891 C293.9634,103.762198 294.246728,103.938715 294.52862,104.11529 C294.723073,104.237779 294.917305,104.359903 295.110847,104.482053 C295.423143,104.678457 295.732475,104.874872 296.040015,105.071347 C296.22656,105.191232 296.413535,105.311132 296.599839,105.431052 C296.884127,105.613322 297.165726,105.795622 297.445768,105.977963 C297.633958,106.10123 297.822193,106.224275 298.009716,106.347337 C298.33119,106.55756 298.649647,106.767958 298.966011,106.978396 C299.102991,107.070271 299.240638,107.162105 299.377885,107.253945 C299.694201,107.464844 300.00727,107.675783 300.318216,107.88675 C300.452132,107.97839 300.58724,108.070336 300.721945,108.162286 C301.079276,108.405414 301.431699,108.647932 301.781286,108.890468 C301.865899,108.949982 301.952543,109.010215 302.039011,109.070449 C302.396796,109.318868 302.749513,109.566652 303.099241,109.814436 C303.186644,109.877199 303.275567,109.940338 303.364295,110.003477 C303.696392,110.238954 304.024177,110.474121 304.349244,110.709272 C304.459442,110.789854 304.570573,110.870475 304.681385,110.951094 C304.952353,111.147361 305.219682,111.343213 305.48511,111.539044 C305.657214,111.666915 305.829168,111.794369 306.000314,111.921813 C306.268843,112.12087 306.533962,112.31973 306.797098,112.518556 C306.941354,112.628479 307.085812,112.738079 307.229666,112.847666 C307.513963,113.063307 307.794905,113.279066 308.073487,113.494769 C308.187105,113.583697 308.301585,113.67264 308.415663,113.761573 C308.691153,113.975375 308.962954,114.189017 309.232415,114.402592 C309.347794,114.495028 309.463779,114.587292 309.579327,114.679544 C309.887325,114.924446 310.190836,115.169129 310.491242,115.413704 C310.54801,115.460945 310.606378,115.508557 310.664628,115.556164 C310.980893,115.813622 311.29147,116.070137 311.598596,116.326513 C311.681573,116.396837 311.7661,116.467605 311.850363,116.538362 C312.114809,116.759357 312.375072,116.979953 312.632753,117.200431 C312.736615,117.290391 312.841613,117.380581 312.946177,117.470751 C313.229235,117.713736 313.507451,117.956211 313.782506,118.198524 C313.841383,118.251527 313.902151,118.30519 313.962764,118.358844 C314.236528,118.600041 314.505112,118.840395 314.770552,119.080573 C314.841007,119.145498 314.912556,119.210433 314.983874,119.275355 C315.254794,119.520796 315.520339,119.76532 315.782589,120.009643 C315.857254,120.080424 315.93291,120.151149 316.008289,120.221857 C316.258572,120.455401 316.504487,120.688721 316.747363,120.921841 C316.82412,120.99678 316.901727,121.071551 316.97902,121.1463 C317.216008,121.374209 317.448773,121.601934 317.678603,121.829451 C317.761981,121.913304 317.846291,121.997132 317.930201,122.080931 C318.146105,122.295222 318.358033,122.509289 318.567334,122.723159 C318.656501,122.815638 318.74668,122.908253 318.836365,123.00083 C319.022135,123.191209 319.20425,123.38119 319.384268,123.571004 C319.487185,123.680938 319.591067,123.791163 319.694239,123.90133 C319.905046,124.124992 320.111194,124.347995 320.314408,124.57075 C320.387469,124.652319 320.461869,124.734274 320.53587,124.816195 C320.736622,125.036933 320.932758,125.257003 321.125994,125.476815 C321.195424,125.557342 321.266234,125.638303 321.33665,125.719229 C321.544143,125.956124 321.746472,126.192218 321.945412,126.427995 C321.993558,126.48668 322.043392,126.545975 322.093012,126.605249 C322.304296,126.856011 322.509825,127.105744 322.711502,127.355099 C322.748257,127.402247 322.78692,127.450212 322.82544,127.498162 C323.019771,127.738353 323.208491,127.977354 323.393629,128.215989 C323.443048,128.281476 323.49373,128.347126 323.544142,128.412747 C323.724641,128.645898 323.900294,128.87866 324.072496,129.111054 C324.115464,129.170925 324.159662,129.230858 324.203629,129.290765 C324.385037,129.536038 324.56105,129.780698 324.733185,130.024927 C324.771113,130.080731 324.810575,130.136989 324.849831,130.193224 C325.019859,130.434784 325.184363,130.67545 325.345052,130.915678 C325.38075,130.971158 325.417551,131.026456 325.45415,131.08173 C326.006487,131.913758 326.511641,132.740727 326.969809,133.561733 C326.998689,133.616057 327.028784,133.67033 327.058675,133.724577 C327.158552,133.903227 327.254855,134.081773 327.34891,134.260026 C327.406341,134.371609 327.464213,134.482839 327.521204,134.593954 C327.641425,134.825522 327.756327,135.056479 327.867387,135.286918 C327.893064,135.343211 327.919949,135.399439 327.946604,135.455635 C328.053765,135.678489 328.155919,135.900975 328.254443,136.122961 C328.282467,136.189392 328.311696,136.25594 328.340598,136.322441 C328.794773,137.364132 329.167084,138.394359 329.456881,139.412042 C329.73851,138.791136 329.970689,138.146481 330.148943,137.478164 C332.889117,127.204557 322.720094,112.248753 302.856226,96.8035313 L301.532506,95.7845004 C299.971855,94.5949073 298.354256,93.4029636 296.681173,92.2105775 C285.917491,84.5394349 273.417012,77.2243489 259.730555,70.5805575 L257.55976,69.5371623 C254.580614,68.1193467 251.547624,66.7335442 248.466319,65.3829195 L248.460775,65.4054383 L247.488671,65.1708866 L247.534778,64.9763104 C232.460997,58.4243784 216.251422,52.7166326 199.547418,48.2201323 C162.432362,38.229469 125.445994,34.9052337 95.7976034,38.1331573 L94.9654634,38.2257298 L93.3183137,38.4208189 C91.6826552,38.6225039 90.0816129,38.8439103 88.5164659,39.0844384 L86.9633313,39.331318 C85.6791024,39.5423257 84.4200969,39.7664734 83.1870551,40.0034141 L81.719915,40.2938614 C81.4774845,40.3432853 81.2361044,40.3932154 80.9957806,40.4436489 L79.5665612,40.7522683 C67.1928677,43.5006612 57.7536863,47.616746 52.1018129,52.7007263 C62.2657964,49.3827771 75.8775449,47.6851029 91.9364936,47.6351352 C93.7854946,47.629633 95.6652849,47.6456933 97.5759405,47.6836027 C98.7858561,47.7073914 100.008738,47.7401816 101.243623,47.7817526 C101.331115,47.7849013 101.419081,47.7879045 101.507108,47.7909522 C102.69227,47.8317896 103.888028,47.880877 105.094439,47.9380351 C107.876594,48.0700233 110.71583,48.2447788 113.607561,48.4625894 C115.445677,48.6008888 117.304739,48.756718 119.183934,48.9299687 C119.421703,48.9520303 119.660044,48.9742528 119.898707,48.996755 C121.086631,49.1086222 122.282269,49.2275303 123.485584,49.3533692 C123.663668,49.3721224 123.841335,49.3908354 124.019168,49.4096993 C125.262368,49.5414462 126.514164,49.6807483 127.773793,49.8274357 C128.768789,49.9434242 129.768217,50.0638447 130.772382,50.1888734 C131.824944,50.3198187 132.882293,50.455884 133.944676,50.597013 C138.715671,51.2308924 143.588647,51.9668657 148.548074,52.8054136 C150.383794,53.1157198 152.231729,53.4402282 154.090746,53.7788176 C156.130572,54.1504079 158.184193,54.538966 160.25015,54.944514 C162.041057,55.2960027 163.841538,55.6603893 165.650632,56.0375659 C170.339917,57.0152909 175.086993,58.0788703 179.880431,59.2287101 C180.85274,59.4618923 181.826465,59.6985574 182.802001,59.9387707 C184.291266,60.3055371 185.784568,60.6804734 187.281746,61.063687 C187.978833,61.2420597 188.676255,61.4221476 189.37448,61.6040282 C190.709162,61.9517497 192.047295,62.306107 193.38813,62.6670268 L191.963233,62.2856238 C192.437359,62.4117851 192.911834,62.538769 193.386649,62.6665758 L195.032323,63.114 L195.843153,63.3347785 C196.996971,63.6515268 198.1465,63.9714539 199.291607,64.294478 C201.169152,64.8237946 203.034797,65.3617728 204.887972,65.9077152 C204.987164,65.9372189 205.085991,65.9663656 205.184784,65.9955349 L204.887972,65.9077152 C206.443376,66.3659348 207.989996,66.8297648 209.527487,67.2989918 C209.761446,67.3706266 209.995705,67.4423078 210.229751,67.5141138 C210.396701,67.5651082 210.563017,67.6162327 210.729225,67.6674199 C211.351565,67.8592998 211.972667,68.0519249 212.592225,68.2454172 C212.827264,68.3186193 213.061963,68.3921138 213.296439,68.4657322 C213.82685,68.6324582 214.35602,68.7995892 214.884032,68.9673449 C215.270224,69.0898643 215.656075,69.2129884 216.041299,69.3364437 C216.406674,69.4537046 216.771088,69.5709642 217.134935,69.6885181 C217.591826,69.8359787 218.047736,69.9840335 218.502744,70.1325461 C218.822927,70.2371952 219.142711,70.3419407 219.462044,70.4469108 C219.833372,70.5688408 220.203509,70.6910175 220.573034,70.8134938 C221.007986,70.9577762 221.44249,71.102482 221.876135,71.2475984 C221.975547,71.2807547 222.074729,71.313983 222.173866,71.3472328 C223.574061,71.8169399 224.965274,72.2908146 226.347213,72.7687856 C226.635584,72.8684593 226.923389,72.968323 227.210788,73.0683633 C227.679332,73.231513 228.146889,73.3951048 228.613355,73.5591589 C228.78927,73.6209833 228.964851,73.6828563 229.140277,73.7447945 C229.693892,73.9402974 230.245599,74.1362804 230.795739,74.3329006 C231.978772,74.7557018 233.155113,75.181674 234.324019,75.6104772 C234.613756,75.7167513 234.903335,75.8233203 235.192453,75.9300617 C235.548382,76.0614915 235.903573,76.1931491 236.25806,76.3250647 C236.632971,76.4645473 237.007466,76.604487 237.381166,76.7447119 C237.562761,76.8128949 237.743597,76.8808897 237.924246,76.9489511 C238.486927,77.160896 239.047636,77.3734719 239.606506,77.5866785 C239.849758,77.6795421 240.09323,77.7726812 240.33635,77.8659392 C240.77548,78.0343109 241.213053,78.2029811 241.649469,78.3720319 C241.954437,78.4902495 242.258915,78.6086002 242.562825,78.7271345 C242.998818,78.89709 243.433476,79.0674497 243.866954,79.2381805 C244.0653,79.3164073 244.263673,79.3947165 244.461799,79.473103 C244.854832,79.6284897 245.246706,79.7842185 245.637595,79.9402459 L246.098044,80.1244861 L246.098044,80.1244861 Z M197.672351,1.5 C175.073424,1.5 155.363648,16.3233625 148.74266,37.6072817 C165.257183,39.3889131 182.519285,42.6007619 199.807409,47.254284 C216.493872,51.7461686 232.689227,57.4434456 247.759362,63.9836036 C248.535018,60.4024856 248.929576,56.7252215 248.929576,52.9957268 C248.929576,24.5549089 225.980419,1.5 197.672351,1.5 Z" fill="#999999" fill-rule="nonzero"></path>
                <path d="M78.8474609,40.4017927 C107.524129,33.87679 151.779611,34.8441474 199.67743,47.7373242 C271.62595,67.1049287 326.848185,106.667055 330.856904,131.223169 C318.738543,105.367664 266.589019,74.0229917 199.733828,54.7617737 C153.351089,41.3995075 109.901712,36.7376008 79.6541889,40.3026592 Z" id="形状结合" fill="#1A1A1A"></path>
                <ellipse id="椭圆形" fill="#FB3A32" transform="translate(204.688838, 111.992876) rotate(15.000000) translate(-204.688838, -111.992876) " cx="204.688838" cy="111.992876" rx="48.7421325" ry="18.4549771"></ellipse>
                <path d="M177.893792,90.7361251 C140.516023,90.693332 110.247484,99.9583302 110.261028,111.785607 C110.274588,123.610984 140.56314,132.945397 177.93991,132.988786 C215.317683,133.031579 245.586222,123.76658 245.572678,111.939304 C245.559254,100.23218 215.87331,90.9664509 179.012949,90.7403515 L177.893792,90.7361251 Z M177.892639,91.7362731 C214.694284,91.7788476 244.560114,100.982985 244.572678,111.94045 C244.585224,122.896015 214.741708,132.030916 177.941063,131.988784 C141.139422,131.946063 111.273592,122.741926 111.261028,111.784461 C111.248607,100.938452 140.498113,91.8768745 176.790734,91.7377506 L177.892639,91.7362731 Z" id="椭圆形" fill="#000000" fill-rule="nonzero" transform="translate(177.916853, 111.862455) rotate(15.000000) translate(-177.916853, -111.862455) "></path>
                <path d="M210.808036,106.983784 C210.79347,94.2861809 178.561995,86.9812625 142.820058,86.939925 C107.07812,86.8989371 76.4818373,94.1313384 76.4964026,106.828941 L35.8632059,391.094626 L255.656356,342.035544 L210.808036,106.983784 Z" id="路径" fill="url(#linearGradient-1)" transform="translate(145.759781, 239.017276) rotate(15.000000) translate(-145.759781, -239.017276) "></path>
                <path d="M198.036653,115.023164 C198.024992,104.857162 174.921265,96.5893922 146.433035,96.5564854 C117.944805,96.5237744 94.8599844,104.73835 94.8716457,114.904352 L60.8263979,356.832189 L236.013486,317.553305 L198.036653,115.023164 Z" id="路径" fill="url(#linearGradient-2)" opacity="0.428543551" transform="translate(148.419942, 226.694337) rotate(15.000000) translate(-148.419942, -226.694337) "></path>
            </g>
            <path d="M323.375152,6.37297989 C323.468566,6.11311747 323.754953,5.97818417 324.014816,6.07159794 C333.241116,9.38821228 339.08201,14.4726377 341.4909,21.3256437 C344.075859,28.6795472 342.02924,37.6259706 337.192701,43.5269504 L336.874,43.905 L337.010389,43.9762541 C337.562863,44.2720672 338.099951,44.5965501 338.615637,44.9490245 L338.922432,45.1638626 C344.661532,49.2811425 346.643775,55.9655638 343.346435,64.1883358 C337.503114,78.7601734 316.460394,85.1535603 283.967813,85.9550715 L281.855669,85.9990492 C280.082372,86.0292748 278.276213,86.0434979 276.437774,86.0422115 C276.161631,86.0422115 275.938148,85.8178881 275.938148,85.5417458 C275.938148,85.2656035 276.162381,85.0419137 276.438523,85.0421206 C312.789769,85.0693588 336.356758,78.9321197 342.418279,63.8161443 C345.543541,56.0224926 343.706124,49.8264461 338.339515,45.9763942 C337.743049,45.5484842 337.113097,45.1616359 336.461146,44.8169286 L336.18,44.672 L336.034056,44.8261984 C334.329871,46.580631 332.346863,47.9771462 330.14792,48.8573612 L329.846732,48.9741754 C325.354965,50.6606844 322.238769,50.3351527 321.164706,48.3572582 C320.205595,46.5910486 321.331704,44.1206529 323.632344,42.8565229 C326.59496,41.2286582 331.415997,41.475341 335.65799,43.3216958 L335.946,43.45 L335.960044,43.4341202 C340.82882,37.904526 343.030817,29.1688351 340.656847,21.9781828 L340.547486,21.6572616 C338.248416,15.1166784 332.640298,10.2348823 323.676534,7.01264302 C323.416672,6.91922925 323.281739,6.63284232 323.375152,6.37297989 Z M335.223,44.224 L335.131312,44.1840219 C331.186929,42.5037914 326.754498,42.2820123 324.113906,43.7329353 C322.249816,44.7571944 321.381767,46.6614714 322.043494,47.8800465 C322.814267,49.2994295 325.412635,49.5708666 329.495225,48.03799 C331.561718,47.2620909 333.43621,45.9970631 335.059915,44.389202 L335.223,44.224 Z" id="路径-2备份" fill="#979797" fill-rule="nonzero" transform="translate(310.439452, 46.042098) rotate(-10.000000) translate(-310.439452, -46.042098) "></path>
        </g>
    </g>
</svg>