<?xml version="1.0" encoding="UTF-8"?>
<svg width="130px" height="130px" viewBox="0 0 130 130" version="1.1" xmlns="http://www.w3.org/2000/svg" xmlns:xlink="http://www.w3.org/1999/xlink">
    <title>插图_无创建</title>
    <g id="icon" stroke="none" stroke-width="1" fill="none" fill-rule="evenodd">
        <g id="无创建" transform="translate(2.000000, 0.000000)">
            <path d="M94,26.4550954 C96.4142733,26.4550954 98.3844891,28.3563319 98.495102,30.7432597 L98.5,30.9550954 L98.5,52.6875173 L97.5,52.6875173 L97.5,30.9550954 C97.5,29.086532 96.0357224,27.559969 94.1920352,27.4602743 L94,27.4550954 L26,27.4550954 C24.1314366,27.4550954 22.6048736,28.919373 22.5051789,30.7630602 L22.5,30.9550954 L22.5,112.955095 C22.5,114.823659 23.9642776,116.350222 25.8079648,116.449917 L26,116.455095 L53.560746,116.455095 L54.026367,116.373661 C54.1606139,116.349989 54.291786,116.382254 54.3959727,116.453712 L94,116.455095 C95.8685634,116.455095 97.3951264,114.990818 97.4948211,113.147131 L97.5,112.955095 L97.5,105.779314 L98.5,105.779314 L98.5,112.955095 C98.5,115.369369 96.5987635,117.339585 94.2118357,117.450197 L94,117.455095 L53.649746,117.455095 L18.4175285,123.667886 C16.0399334,124.08712 13.7695034,122.556892 13.2460853,120.225435 L13.2044768,120.017668 L0.180863468,46.1570867 C-0.238370697,43.7794916 1.29185739,41.5090616 3.62331464,40.9856434 L3.83108156,40.944035 L14.5561728,39.052912 C14.82812,39.0049604 15.0874491,39.1865447 15.1354008,39.4584918 C15.1780244,39.7002226 15.0392864,39.9319837 14.8169323,40.0141797 L14.729821,40.0377198 L4.00472974,41.9288427 C2.16455401,42.2533154 0.915452022,43.9604322 1.13742484,45.7934214 L1.16567122,45.9834385 L14.1892845,119.84402 C14.5137572,121.684196 16.220874,122.933298 18.0538632,122.711325 L18.2438803,122.683078 L47.888746,117.455095 L26,117.455095 C23.5857267,117.455095 21.6155109,115.553859 21.504898,113.166931 L21.5,112.955095 L21.5,30.9550954 C21.5,28.5408221 23.4012365,26.5706063 25.7881643,26.4599934 L26,26.4550954 L94,26.4550954 Z M51,89.9550954 C51.2761424,89.9550954 51.5,90.1789531 51.5,90.4550954 C51.5,90.7005553 51.3231248,90.9047038 51.0898756,90.9470398 L51,90.9550954 L35,90.9550954 C34.7238576,90.9550954 34.5,90.7312378 34.5,90.4550954 C34.5,90.2096355 34.6768752,90.0054871 34.9101244,89.9631511 L35,89.9550954 L51,89.9550954 Z M63,81.9550954 C63.2761424,81.9550954 63.5,82.1789531 63.5,82.4550954 C63.5,82.7005553 63.3231248,82.9047038 63.0898756,82.9470398 L63,82.9550954 L35,82.9550954 C34.7238576,82.9550954 34.5,82.7312378 34.5,82.4550954 C34.5,82.2096355 34.6768752,82.0054871 34.9101244,81.9631511 L35,81.9550954 L63,81.9550954 Z M62.5,73.9550954 C62.7761424,73.9550954 63,74.1789531 63,74.4550954 C63,74.7005553 62.8231248,74.9047038 62.5898756,74.9470398 L62.5,74.9550954 L34.5,74.9550954 C34.2238576,74.9550954 34,74.7312378 34,74.4550954 C34,74.2096355 34.1768752,74.0054871 34.4101244,73.9631511 L34.5,73.9550954 L62.5,73.9550954 Z" id="word" fill="#999999" fill-rule="nonzero"></path>
            <rect id="矩形" fill="#1A1A1A" x="34" y="52.9550954" width="24" height="8" rx="2"></rect>
            <g id="pen" transform="translate(85.257359, 85.040882) rotate(45.000000) translate(-85.257359, -85.040882) translate(71.757359, 56.540882)">
                <path d="M2.92893219,16.9705627 L15.4194982,16.9705627 C16.5240677,16.9705627 17.4194982,17.8659932 17.4194982,18.9705627 L17.4194982,48.803874 C17.4194982,49.3782798 17.1725282,49.9249574 16.7415036,50.3046411 L10.4962206,55.8060262 C9.74056822,56.4716701 8.60786219,56.4716701 7.85220985,55.8060262 L1.60692683,50.3046411 C1.17590218,49.9249574 0.928932188,49.3782798 0.928932188,48.803874 L0.928932188,18.9705627 C0.928932188,17.8659932 1.82436269,16.9705627 2.92893219,16.9705627 Z" id="矩形" fill="#FB3A32"></path>
                <path d="M25,-0.5 L10,-0.5 C8.61928813,-0.5 7.5,0.619288125 7.5,2 L7.5,43.7280481 C7.5,44.4460554 7.80871249,45.1294023 8.34749331,45.604007 L15.8474933,52.2106552 C16.7920587,53.0427101 18.2079413,53.0427101 19.1525067,52.2106552 L26.6525067,45.604007 C27.1912875,45.1294023 27.5,44.4460554 27.5,43.7280481 L27.5,2 C27.5,0.619288125 26.3807119,-0.5 25,-0.5 Z M10,0.5 L25,0.5 C25.8284271,0.5 26.5,1.17157288 26.5,2 L26.5,43.7280481 C26.5,44.1588525 26.3147725,44.5688606 25.991504,44.8536235 L18.491504,51.4602717 C17.9247648,51.9595046 17.0752352,51.9595046 16.508496,51.4602717 L9.00849598,44.8536235 C8.68522749,44.5688606 8.5,44.1588525 8.5,43.7280481 L8.5,2 C8.5,1.17157288 9.17157288,0.5 10,0.5 Z" id="矩形" fill="#1A1A1A" fill-rule="nonzero"></path>
                <path d="M22.2071068,7.29289322 C23.0355339,7.29289322 23.7071068,7.96446609 23.7071068,8.79289322 C23.7071068,9.57258934 23.1122187,10.2133419 22.3515668,10.2860266 L22.2071068,10.2928932 L9.20710678,10.2928932 C8.37867966,10.2928932 7.70710678,9.62132034 7.70710678,8.79289322 C7.70710678,8.0131971 8.30199486,7.37244454 9.06264677,7.2997598 L9.20710678,7.29289322 L22.2071068,7.29289322 Z" id="直线-2" fill="#1A1A1A" fill-rule="nonzero"></path>
            </g>
            <path d="M110.439184,5.83182145 C110.532066,5.57176864 110.818177,5.43625029 111.078229,5.52913274 C116.174477,7.34934745 119.41492,10.1565382 120.752709,13.9519494 C122.173329,17.98236 121.074757,22.8692949 118.440822,26.140034 L118.362,26.234 L118.454833,26.285683 C118.639123,26.3911149 118.819878,26.5023933 118.996354,26.61943 L119.257768,26.799293 C122.475326,29.0958026 123.588398,32.8405847 121.744824,37.4097427 C119.454922,43.0850901 113.024034,46.5012877 103.167853,48.1783759 L102.248344,48.3282597 L101.309503,48.4683554 L100.351454,48.598754 C100.190186,48.619684 100.028123,48.6402138 99.8652666,48.6603452 L98.8786421,48.7763684 L97.8731232,48.8829217 L96.848835,48.9800959 C96.6765632,48.9955151 96.5035145,49.0105473 96.3296916,49.0251943 L95.277484,49.1084704 L94.2068199,49.1825947 C94.0268448,49.1941911 93.8461059,49.20541 93.6646057,49.2162533 L92.5664913,49.2768203 L91.4502331,49.3284627 L90.3159562,49.3712715 L89.1637856,49.4053375 C88.970273,49.4102916 88.77602,49.4148853 88.5810293,49.4191203 L87.4022528,49.4402425 L86.2058954,49.4528492 L84.9920821,49.4570312 C84.7159397,49.4570312 84.4920821,49.2331736 84.4920821,48.9570312 C84.4920821,48.6808889 84.7159397,48.4570312 84.9920821,48.4570312 L86.1928105,48.4528602 L87.3760436,48.4402981 L88.5416494,48.4192719 L89.6894954,48.3897082 L90.8194496,48.3515338 C91.0062769,48.3444498 91.1923533,48.3370039 91.3776759,48.3291947 L92.4805444,48.277967 C92.6628409,48.2686983 92.8443782,48.2590631 93.0251534,48.2490601 L94.1006387,48.1846142 C94.2783549,48.1731333 94.4553035,48.1612814 94.6314818,48.149057 L95.6792864,48.0712283 L96.708472,47.9843861 L97.7189062,47.8884572 C97.885742,47.8717077 98.0517909,47.8545766 98.2170503,47.8370623 L99.1991098,47.727366 C99.3611999,47.7083129 99.5224949,47.6888735 99.6829921,47.6690463 L100.636379,47.5454178 C100.793674,47.5240335 100.950166,47.5022583 101.105851,47.4800908 L102.030269,47.3423654 L102.935207,47.1951505 L103.820536,47.0383728 C103.966449,47.0114422 104.111539,46.9841101 104.255805,46.956375 L105.111469,46.7851159 L105.947192,46.604111 L106.762842,46.413287 C114.147225,44.6188392 118.984857,41.5775487 120.817465,37.0355698 C122.487332,32.8969333 121.520022,29.642549 118.676822,27.6132354 C118.431091,27.4378466 118.174613,27.2755335 117.910281,27.1265414 L117.676,26.999 L117.484854,27.1888192 C116.607302,28.0372143 115.605482,28.7199975 114.504769,29.1733943 L114.249014,29.2739234 C111.703124,30.2270639 109.885049,30.0393602 109.230108,28.8376663 C108.638488,27.7521554 109.313776,26.2794661 110.669945,25.5370095 C112.325631,24.6305776 114.966948,24.7436328 117.312586,25.7239546 L117.439,25.779 L117.503747,25.7051807 C119.975272,22.7757068 121.089557,18.2791386 119.898583,14.5494494 L119.809581,14.2843788 C118.582162,10.8020975 115.575209,8.19717891 110.741872,6.47086726 C110.48182,6.37798481 110.346301,6.09187425 110.439184,5.83182145 Z M116.536552,26.4937259 C114.559179,25.7663775 112.433088,25.7118007 111.150157,26.4141623 C110.23134,26.917183 109.815982,27.8230099 110.108165,28.3591117 C110.459168,29.0031348 111.76115,29.1375555 113.898397,28.3374047 C114.87409,27.9721208 115.770312,27.4017921 116.564953,26.6808554 L116.698,26.556 L116.536552,26.4937259 Z" id="路径-2备份" fill="#979797" fill-rule="nonzero" transform="translate(103.563398, 27.478448) rotate(20.000000) translate(-103.563398, -27.478448) "></path>
        </g>
    </g>
</svg>