<?xml version="1.0" encoding="UTF-8"?>
<svg width="248px" height="200px" viewBox="0 0 248 200" version="1.1" xmlns="http://www.w3.org/2000/svg" xmlns:xlink="http://www.w3.org/1999/xlink">
    <title>插图_无网络</title>
    <defs>
        <linearGradient x1="50%" y1="0%" x2="50%" y2="50%" id="linearGradient-1">
            <stop stop-color="#F7F7F7" offset="0%"></stop>
            <stop stop-color="#FFFFFF" stop-opacity="0" offset="100%"></stop>
        </linearGradient>
    </defs>
    <g id="icon" stroke="none" stroke-width="1" fill="none" fill-rule="evenodd">
        <g id="网络错误备份" transform="translate(1.000000, -2.000000)">
            <ellipse id="椭圆形" fill="url(#linearGradient-1)" cx="122.79978" cy="172" rx="122.5" ry="45"></ellipse>
            <path d="M93.0743047,39.751873 C93.2113415,39.9916135 93.1280837,40.2970519 92.8883431,40.4340887 C76.2634172,49.9369713 65.7997804,67.5168682 65.7997804,86.9076043 C65.7997804,103.076968 73.015153,117.574256 84.4250371,127.400593 C90.5074476,125.132188 97.0730159,122.332936 103.951217,119.040109 L105.83839,118.128062 C106.785739,117.665924 107.738633,117.194637 108.696636,116.714298 C108.943487,116.590527 109.243936,116.690304 109.367706,116.937155 C109.491476,117.184006 109.3917,117.484454 109.144848,117.608225 C106.545032,118.911764 103.983133,120.149576 101.46723,121.31952 L99.5890533,122.184218 L97.728882,123.023265 C93.4230424,124.945173 89.2695138,126.657219 85.3111967,128.148034 C86.9748864,129.519322 88.7225542,130.79372 90.5456832,131.962095 C106.960118,126.302603 124.369031,118.451604 142.513816,107.990504 C154.23241,101.234271 164.856725,94.1392735 173.797952,87.2872379 C173.799336,87.1613843 173.79978,87.0345459 173.79978,86.9076043 C173.79978,73.113259 168.52752,60.1399987 159.215402,50.275135 C159.025847,50.0743282 159.034968,49.7578771 159.235775,49.5683218 C159.436582,49.3787665 159.753033,49.3878877 159.942588,49.5886946 C169.340006,59.5439215 174.699695,72.6100682 174.798393,86.5164765 C194.313754,71.3869346 205.469359,57.5561174 201.874197,51.3378777 C200.568374,49.0793095 197.319334,47.9799926 192.479435,48.0207127 L191.824719,48.0328961 C191.603358,48.039208 191.378886,48.0477702 191.151334,48.0585809 L190.459465,48.0977571 C190.342624,48.1054102 190.22502,48.113625 190.106657,48.1224012 L189.387412,48.1817954 L188.650146,48.2546555 L187.895047,48.3409715 C187.767722,48.3564783 187.639661,48.3725453 187.510868,48.3891724 L186.729366,48.4956532 L185.930495,48.6155647 C185.795912,48.6366686 185.660614,48.6583316 185.524603,48.6805537 L184.700025,48.820592 C184.561182,48.8450491 184.421633,48.8700648 184.281385,48.8956388 L183.431518,49.0557813 C183.288482,49.0835878 183.144754,49.1119523 183.000337,49.1408744 L182.125598,49.3210982 C181.978441,49.3522504 181.830602,49.3839598 181.682087,49.4162263 L180.782894,49.6165087 C180.631684,49.6510027 180.479805,49.6860533 180.32726,49.7216604 L179.404031,49.9419786 L178.46501,50.1756413 L177.510382,50.4226385 L176.540334,50.6829599 L175.55505,50.9565956 L175.056753,51.0984031 L175.056753,51.0984031 L174.048964,51.391991 L173.026404,51.6988678 L171.989258,52.0190234 L170.937712,52.3524477 L169.871951,52.6991304 C169.609667,52.785509 169.327019,52.6429089 169.24064,52.380624 C169.154262,52.1183392 169.296862,51.8356916 169.559147,51.7493129 L170.63169,51.4003523 L171.69032,51.0644831 L172.734866,50.7417394 L173.765161,50.4321551 L174.781035,50.1357643 L175.782319,49.8526012 L176.768845,49.5826996 L177.740445,49.3260937 L178.696948,49.0828175 C178.855098,49.0433841 179.012612,49.0045076 179.169486,48.9661886 L180.10303,48.7429708 L181.021056,48.5331677 L181.923395,48.3368135 L182.809879,48.1539422 L183.680339,47.9845878 C183.824071,47.9574904 183.967128,47.9309576 184.109508,47.9049901 L184.955615,47.7559749 L185.785277,47.6205617 L186.598324,47.4987847 L187.394587,47.3906777 L188.173898,47.2962748 C188.302361,47.2816849 188.430111,47.2676675 188.557144,47.2542231 L189.31071,47.1804404 C189.434862,47.1692914 189.558289,47.158717 189.680989,47.1487178 L190.40843,47.0956317 C190.528206,47.0879364 190.647248,47.0808178 190.765551,47.0742766 L191.466489,47.0419638 L192.149545,47.0235423 C192.261889,47.0216315 192.37348,47.020301 192.484316,47.0195514 L193.140235,47.0220309 C197.991207,47.0929957 201.297905,48.3432266 202.739917,50.8373494 C206.710056,57.7041532 195.119933,72.1601775 174.793661,87.8021338 L174.79978,86.9076043 C174.79978,117.058996 150.174605,141.5 119.79978,141.5 C108.994296,141.5 98.916428,138.407 90.4159243,133.064224 C87.4217868,134.089712 84.4596454,135.043429 81.532038,135.926996 C81.2676733,136.006782 80.9886835,135.857152 80.9088969,135.592787 C80.8291102,135.328423 80.9787403,135.049433 81.243105,134.969646 C83.9146449,134.163362 86.6151798,133.298387 89.3435139,132.372785 C87.5645283,131.196308 85.8581517,129.919444 84.2329502,128.550521 C63.7842191,136.111791 48.7473824,137.631962 45.2018218,131.499521 C43.2337598,128.095527 44.9879827,122.874382 49.9883504,116.375387 L50.5466994,115.661362 C50.8322896,115.301841 51.1274863,114.938577 51.4322122,114.571657 L52.0543466,113.832967 C52.3717436,113.461211 52.6986184,113.085857 53.0348935,112.706993 L53.7199546,111.944611 C53.8362128,111.816776 53.9535098,111.688558 54.0718427,111.559959 C54.2588254,111.356754 54.5751347,111.343604 54.7783392,111.530587 C54.9815437,111.717569 54.994694,112.033878 54.8077113,112.237083 L54.1146632,112.999278 C54.0013026,113.125478 53.8890169,113.251259 53.7778082,113.376616 L53.1234943,114.123649 L52.4951196,114.860326 C52.3925573,114.982231 52.2910797,115.103697 52.1906886,115.224719 L51.6013975,115.945491 C46.223339,122.622371 44.2651071,127.88147 46.0675448,130.998991 C49.2529534,136.508514 63.6686645,135.000968 83.3541415,127.795814 C71.9741407,117.793048 64.7997804,103.182165 64.7997804,86.9076043 C64.7997804,67.1537308 75.4592661,49.2447893 92.392089,39.5659113 C92.6318296,39.4288746 92.9372679,39.5121324 93.0743047,39.751873 Z M173.773901,88.5827743 L173.162728,89.045568 C164.449141,95.627929 154.231697,102.388978 143.013287,108.856834 C125.093856,119.188009 107.885915,126.983203 91.6365469,132.641972 C99.8357503,137.626857 109.479596,140.5 119.79978,140.5 C122.361134,140.5 124.880826,140.323021 127.347122,139.980714 L127.381945,140.123887 C126.99659,138.617116 126.79978,137.060379 126.79978,135.478618 C126.79978,124.995123 135.438541,116.5 146.09084,116.5 C151.502673,116.5 156.552499,118.705607 160.167922,122.501819 C168.301009,113.425695 173.37157,101.587222 173.773901,88.5827743 Z M146.09084,117.5 C135.987108,117.5 127.79978,125.551196 127.79978,135.478618 C127.79978,136.789368 127.942406,138.081363 128.22238,139.339184 L128.340358,139.833489 C140.581904,137.903092 151.452834,131.890032 159.492251,123.244573 C156.060265,119.611273 151.250476,117.5 146.09084,117.5 Z M145.79978,74.5 C149.113489,74.5 151.79978,77.1862915 151.79978,80.5 C151.79978,83.8137085 149.113489,86.5 145.79978,86.5 C142.486072,86.5 139.79978,83.8137085 139.79978,80.5 C139.79978,77.1862915 142.486072,74.5 145.79978,74.5 Z M145.79978,75.5 C143.038357,75.5 140.79978,77.7385763 140.79978,80.5 C140.79978,83.2614237 143.038357,85.5 145.79978,85.5 C148.561204,85.5 150.79978,83.2614237 150.79978,80.5 C150.79978,77.7385763 148.561204,75.5 145.79978,75.5 Z M183.29978,68.5 C185.232777,68.5 186.79978,70.0670034 186.79978,72 C186.79978,73.9329966 185.232777,75.5 183.29978,75.5 C181.366784,75.5 179.79978,73.9329966 179.79978,72 C179.79978,70.0670034 181.366784,68.5 183.29978,68.5 Z M183.29978,69.5 C181.919069,69.5 180.79978,70.6192881 180.79978,72 C180.79978,73.3807119 181.919069,74.5 183.29978,74.5 C184.680492,74.5 185.79978,73.3807119 185.79978,72 C185.79978,70.6192881 184.680492,69.5 183.29978,69.5 Z" id="形状结合" fill="#999999" fill-rule="nonzero"></path>
            <circle id="椭圆形备份" fill="#FB3A32" cx="85.2997804" cy="94" r="15"></circle>
            <path d="M73.2997804,73.5 C62.5302278,73.5 53.7997804,82.2304474 53.7997804,93 C53.7997804,103.769553 62.5302278,112.5 73.2997804,112.5 C84.069333,112.5 92.7997804,103.769553 92.7997804,93 C92.7997804,82.2304474 84.069333,73.5 73.2997804,73.5 Z M73.2997804,74.5 C83.5170483,74.5 91.7997804,82.7827321 91.7997804,93 C91.7997804,103.217268 83.5170483,111.5 73.2997804,111.5 C63.0825125,111.5 54.7997804,103.217268 54.7997804,93 C54.7997804,82.7827321 63.0825125,74.5 73.2997804,74.5 Z" id="椭圆形备份" fill="#1A1A1A" fill-rule="nonzero"></path>
            <g id="编组-2" transform="translate(122.642666, 33.699324) rotate(30.000000) translate(-122.642666, -33.699324) translate(90.642666, 13.699324)">
                <path d="M46.515466,22.387931 C47.7968084,22.387931 48.8355417,23.4252024 48.8355417,24.7047414 C48.8355417,25.9842804 47.7968084,27.0215517 46.515466,27.0215517 C45.2341235,27.0215517 44.1953902,25.9842804 44.1953902,24.7047414 C44.1953902,23.4252024 45.2341235,22.387931 46.515466,22.387931 Z M46.4579477,15.3275862 C49.4461365,15.3275862 52.2696071,16.3977052 54.4598814,18.3020201 C55.0850555,18.8455722 55.1512231,19.793012 54.607671,20.418186 C54.0641188,21.0433601 53.1166791,21.1095277 52.491505,20.5659756 C50.8436228,19.1332387 48.7179375,18.3275862 46.4579477,18.3275862 C44.2437287,18.3275862 42.1579815,19.1007339 40.5230477,20.4814369 C39.8901222,21.0159431 38.9437319,20.9361584 38.4092257,20.3032329 C37.8747196,19.6703074 37.9545042,18.7239171 38.5874297,18.189411 C40.7602398,16.3544709 43.5305021,15.3275862 46.4579477,15.3275862 Z M46.4685737,7.9137931 C50.8703399,7.9137931 55.0272166,9.48073466 58.2522435,12.2694904 C58.8788792,12.8113569 58.9475982,13.758615 58.4057318,14.3852507 C57.8638654,15.0118863 56.9166072,15.0806054 56.2899716,14.5387389 C53.6068595,12.2185896 50.1454171,10.9137931 46.4685737,10.9137931 C42.8662452,10.9137931 39.4698537,12.1659403 36.8078505,14.4018052 C36.1734943,14.9346125 35.2273212,14.8522909 34.6945139,14.2179346 C34.1617066,13.5835784 34.2440282,12.6374054 34.8783844,12.104598 C38.0777055,9.41743004 42.1562514,7.9137931 46.4685737,7.9137931 Z M46.6857736,0.5 C52.9368475,0.5 58.837037,2.74460833 63.412894,6.73796899 C64.0370591,7.28267933 64.10147,8.23024014 63.5567596,8.8544053 C63.0120493,9.47857046 62.0644885,9.54298132 61.4403233,8.99827098 C57.4071778,5.47853578 52.206388,3.5 46.6857736,3.5 C41.2771138,3.5 36.1741563,5.39866585 32.1728888,8.79041347 C31.5409511,9.32608706 30.5944151,9.24804955 30.0587415,8.61611181 C29.5230679,7.98417408 29.6011054,7.03763808 30.2330431,6.50196448 C34.7725625,2.65395782 40.5616565,0.5 46.6857736,0.5 Z" id="Wi-Fi" fill="#FB3A32" fill-rule="nonzero"></path>
                <g id="问好" transform="translate(16.474154, 22.775884) rotate(-45.000000) translate(-16.474154, -22.775884) translate(7.974154, 8.275884)">
                    <ellipse id="椭圆形" fill="#000000" cx="9.64628448" cy="26.5810702" rx="2.32007576" ry="2.31681034"></ellipse>
                    <path d="M8.71825418,20.5573633 C8.71825418,14.0332254 16.6065118,17.2952944 16.6065118,7.50908746 C16.6065118,-2.27711943 0.8299966,-2.27711943 0.8299966,7.50908746" id="primary-path" stroke="#000000" stroke-width="3" stroke-linecap="round" stroke-linejoin="round"></path>
                </g>
            </g>
        </g>
    </g>
</svg>