<?xml version="1.0" encoding="UTF-8"?>
<svg width="420px" height="440px" viewBox="0 0 420 440" version="1.1" xmlns="http://www.w3.org/2000/svg" xmlns:xlink="http://www.w3.org/1999/xlink">
    <title>插图_系统维护中</title>
    <defs>
        <path d="M24.0374696,2.25179035 L6.93724501,46.7827225 L43.9383008,46.7827225 L26.8380762,2.25179035 C26.6857265,1.85505438 26.3722363,1.54156413 25.9755003,1.38921443 C25.2021341,1.09223581 24.3344483,1.4784242 24.0374696,2.25179035 Z" id="path-1"></path>
    </defs>
    <g id="icon" stroke="none" stroke-width="1" fill="none" fill-rule="evenodd">
        <g id="编组" transform="translate(5.000000, 49.000000)">
            <path d="M108.470524,149.248691 L107.470524,149.248691 L107.470269,54.903 L48.6852689,54.9031414 C47.9055728,54.9031414 47.2648202,54.3082533 47.1921354,53.5476014 L47.1852689,53.4031414 C47.1852689,52.9961527 47.3506467,52.6066344 47.6434554,52.3239635 L47.6434554,52.3239635 L71.3869941,29.4024976 C71.6666284,29.132545 72.0401306,28.9816754 72.4288075,28.9816754 L72.4288075,28.9816754 L273.202269,28.981 L273.203057,24.1048035 C273.203057,11.1985962 283.560979,0.711611444 296.417512,0.503162369 L296.80786,0.5 C309.844433,0.5 320.412664,11.0682305 320.412664,24.1048035 L320.412664,24.1048035 L320.412269,28.981 L374.515446,28.9812054 C374.763911,20.1971153 381.87953,13.1317269 390.683553,12.9637903 L391.004367,12.960733 C399.955732,12.960733 407.241812,20.0906637 407.493288,28.9812054 L407.5,28.9816754 L407.5,54.9031414 L320.412269,54.903 L320.412269,304.007 L340.349345,304.007853 C344.958412,304.007853 348.710666,307.676306 348.845588,312.252693 L348.849345,312.507853 L348.849345,341.5 L244.766376,341.5 L244.766376,312.507853 C244.766376,307.813433 248.571955,304.007853 253.266376,304.007853 L253.266376,304.007853 L273.202269,304.007 L273.202269,54.903 L108.470269,54.903 L108.470524,149.248691 Z M273.259269,305.007 L253.266376,305.007853 C249.12424,305.007853 245.766,308.365718 245.766,312.507853 L245.766,312.507853 L245.766,340.5 L347.849345,340.5 L347.849345,312.507853 C347.849345,308.446936 344.621871,305.139836 340.592076,305.011707 L340.592076,305.011707 L340.349345,305.007853 L319.516269,305.007 L319.284456,305.239979 L319.052269,305.007 L273.724269,305.007 L273.492903,305.239979 L273.259269,305.007 Z M296.328269,282.366 L274.723269,304.006 L318.053269,304.006 L296.698269,282.616 L296.638482,282.676959 L296.328269,282.366 Z M319.411269,259.866 L297.403269,281.909 L319.411269,303.952 L319.411269,259.866 Z M274.202269,260.205 L274.202269,303.113 L295.623269,281.659 L274.202269,260.205 Z M296.638539,237.519011 L274.801668,259.389824 L296.490795,281.110808 C296.555071,281.12414 296.617229,281.150224 296.673231,281.189069 L296.692269,281.206 L318.475411,259.389824 L296.638539,237.519011 Z M319.411269,214.473 L297.227269,236.694 L319.411269,258.914 L319.411269,214.473 Z M274.202269,214.812 L274.202269,258.575 L296.049269,236.694 L274.202269,214.812 Z M296.638773,192.126108 L274.801901,213.996921 L296.638773,235.867733 L318.475644,213.996921 L296.638773,192.126108 Z M319.412269,169.081 L297.227269,191.301 L319.412269,213.521 L319.412269,169.081 Z M274.202269,169.42 L274.202269,213.182 L296.049269,191.301 L274.202269,169.42 Z M296.638299,146.733912 L274.801427,168.604724 L296.638299,190.475537 L318.47517,168.604724 L296.638299,146.733912 Z M319.412269,123.688 L297.227269,145.908 L319.412269,168.129 L319.412269,123.688 Z M274.202269,124.027 L274.202269,167.79 L296.049269,145.908 L274.202269,124.027 Z M296.638532,101.341008 L274.80166,123.211821 L296.638532,145.082634 L318.475404,123.211821 L296.638532,101.341008 Z M319.412269,78.295 L297.227269,100.516 L319.412269,122.736 L319.412269,78.295 Z M274.202269,78.634 L274.202269,122.397 L296.049269,100.516 L274.202269,78.634 Z M296.638765,55.9481049 L274.801894,77.8189176 L296.638765,99.6897304 L318.475637,77.8189176 L296.638765,55.9481049 Z M319.412269,54.903 L297.007269,54.903 L319.412269,77.343 L319.412269,54.903 Z M296.269269,54.903 L274.202269,54.903 L274.202269,77.004 L296.269269,54.903 Z M273.202269,47.339 L54.2422689,47.342 L48.3379977,53.0434154 C48.2599154,53.1187943 48.2090183,53.2169673 48.1917828,53.3226808 L48.1852689,53.4031414 C48.1852689,53.6792837 48.4091265,53.9031414 48.6852689,53.9031414 L48.6852689,53.9031414 L273.202269,53.903 L273.202269,47.339 Z M319.412269,47.338 L274.202269,47.339 L274.202269,53.903 L319.412269,53.903 L319.412269,47.338 Z M374.508269,47.337 L320.412269,47.338 L320.412269,53.903 L374.508269,53.903 L374.508269,47.337 Z M406.5,29.981 L375.508269,29.981 L375.508,53.903 L406.5,53.903 L406.5,29.981 Z M273.202269,29.981 L72.4288075,29.9816754 C72.3316383,29.9816754 72.2373143,30.0099635 72.1569018,30.0620696 L72.1569018,30.0620696 L72.0815364,30.1219495 L55.2782689,46.342 L273.202269,46.339 L273.202269,29.981 Z M319.412269,29.981 L274.202269,29.981 L274.202269,46.339 L319.412269,46.338 L319.412269,29.981 Z M374.508269,29.981 L320.412269,29.981 L320.412269,46.338 L374.508269,46.337 L374.508269,29.981 Z M391.004367,13.960733 C382.60535,13.960733 375.767058,20.6429935 375.515882,28.981124 L406.492852,28.9811428 C406.244846,20.747892 399.574391,14.1291124 391.320579,13.9638952 L391.320579,13.9638952 Z M296.80786,1.5 C284.323572,1.5 274.203,11.6205153 274.203,24.1048035 L274.203,24.1048035 L274.202269,28.981 L319.412269,28.981 L319.412664,24.1048035 C319.412664,11.8689526 309.690937,1.90373258 297.550303,1.51196235 L297.181672,1.5030284 Z" id="支撑" fill="#999999" fill-rule="nonzero"></path>
            <rect id="矩形备份" fill="#1A1A1A" x="245.266376" y="333.879581" width="103.082969" height="7.12041885"></rect>
            <rect id="矩形备份-2" fill="#FB3A32" x="262.150655" y="140.497382" width="69.3144105" height="37.382199" rx="4"></rect>
            <g id="页面" transform="translate(0.000000, 147.638743)">
                <rect id="矩形" fill="#F2F2F2" x="0" y="16.2408377" width="187.504367" height="135.287958" rx="4"></rect>
                <path d="M197.722707,0.5 L18.2183406,0.5 C15.1807745,0.5 12.7183406,2.96243388 12.7183406,6 L12.7183406,133.287958 C12.7183406,136.325524 15.1807745,138.787958 18.2183406,138.787958 L197.722707,138.787958 C200.760274,138.787958 203.222707,136.325524 203.222707,133.287958 L203.222707,6 C203.222707,2.96243388 200.760274,0.5 197.722707,0.5 Z" id="路径" fill="#1A1A1A" fill-rule="nonzero"></path>
                <path d="M18.2183406,3.5 L197.722707,3.5 C199.103419,3.5 200.222707,4.61928813 200.222707,6 L200.222707,133.287958 C200.222707,134.66867 199.103419,135.787958 197.722707,135.787958 L18.2183406,135.787958 C16.8376287,135.787958 15.7183406,134.66867 15.7183406,133.287958 L15.7183406,6 C15.7183406,4.61928813 16.8376287,3.5 18.2183406,3.5 Z" id="路径" fill="#FFFFFF" fill-rule="nonzero"></path>
                <rect id="矩形" fill="#1A1A1A" x="34.6572052" y="49.1727749" width="46.209607" height="8.90052356" rx="2"></rect>
                <path d="M178.617904,87.3900524 C178.894046,87.3900524 179.117904,87.61391 179.117904,87.8900524 C179.117904,88.1355122 178.941029,88.3396607 178.70778,88.3819967 L178.617904,88.3900524 L37.3231441,88.3900524 C37.0470017,88.3900524 36.8231441,88.1661947 36.8231441,87.8900524 C36.8231441,87.6445925 37.0000193,87.440444 37.2332685,87.398108 L37.3231441,87.3900524 L178.617904,87.3900524 Z" id="直线-3" fill="#999999" fill-rule="nonzero"></path>
                <path d="M55.0960699,101.63089 C55.3722122,101.63089 55.5960699,101.854748 55.5960699,102.13089 C55.5960699,102.37635 55.4191947,102.580498 55.1859455,102.622834 L55.0960699,102.63089 L36.4344978,102.63089 C36.1583554,102.63089 35.9344978,102.407032 35.9344978,102.13089 C35.9344978,101.88543 36.111373,101.681282 36.3446222,101.638946 L36.4344978,101.63089 L55.0960699,101.63089 Z" id="直线-3备份" fill="#999999" fill-rule="nonzero"></path>
                <path d="M178.617904,73.1492147 C178.894046,73.1492147 179.117904,73.3730723 179.117904,73.6492147 C179.117904,73.8946745 178.941029,74.098823 178.70778,74.141159 L178.617904,74.1492147 L37.3231441,74.1492147 C37.0470017,74.1492147 36.8231441,73.925357 36.8231441,73.6492147 C36.8231441,73.4037548 37.0000193,73.1996063 37.2332685,73.1572703 L37.3231441,73.1492147 L178.617904,73.1492147 Z" id="直线-3备份-2" fill="#999999" fill-rule="nonzero"></path>
                <ellipse id="椭圆形" fill="#1A1A1A" cx="32.8799127" cy="19.8010471" rx="4.44323144" ry="4.45026178"></ellipse>
                <path d="M47.9868996,14.8507853 C45.2566511,14.8507853 43.0436681,17.0672698 43.0436681,19.8010471 C43.0436681,22.5348244 45.2566511,24.7513089 47.9868996,24.7513089 C50.717148,24.7513089 52.930131,22.5348244 52.930131,19.8010471 C52.930131,17.0672698 50.717148,14.8507853 47.9868996,14.8507853 Z M47.9868996,15.8507853 C50.164509,15.8507853 51.930131,17.619201 51.930131,19.8010471 C51.930131,21.9828933 50.164509,23.7513089 47.9868996,23.7513089 C45.8092901,23.7513089 44.0436681,21.9828933 44.0436681,19.8010471 C44.0436681,17.619201 45.8092901,15.8507853 47.9868996,15.8507853 Z" id="椭圆形" fill="#999999" fill-rule="nonzero"></path>
                <path d="M64.871179,14.8507853 C62.1409306,14.8507853 59.9279476,17.0672698 59.9279476,19.8010471 C59.9279476,22.5348244 62.1409306,24.7513089 64.871179,24.7513089 C67.6014275,24.7513089 69.8144105,22.5348244 69.8144105,19.8010471 C69.8144105,17.0672698 67.6014275,14.8507853 64.871179,14.8507853 Z M64.871179,15.8507853 C67.0487885,15.8507853 68.8144105,17.619201 68.8144105,19.8010471 C68.8144105,21.9828933 67.0487885,23.7513089 64.871179,23.7513089 C62.6935696,23.7513089 60.9279476,21.9828933 60.9279476,19.8010471 C60.9279476,17.619201 62.6935696,15.8507853 64.871179,15.8507853 Z" id="椭圆形" fill="#999999" fill-rule="nonzero"></path>
            </g>
            <g id="锥筒" transform="translate(138.517467, 263.565445)">
                <g id="编组-4" transform="translate(0.444323, 0.000000)">
                    <mask id="mask-2" fill="white">
                        <use xlink:href="#path-1"></use>
                    </mask>
                    <use id="路径" fill="#1A1A1A" fill-rule="nonzero" xlink:href="#path-1"></use>
                    <g id="编组-2" mask="url(#mask-2)">
                        <rect id="矩形备份-3" fill="#FFFFFF" x="1" y="39.670905" width="48.8755459" height="6.6118175" rx="3.30590875"></rect>
                        <rect id="矩形备份-5" fill="#FFFFFF" x="1" y="22.0393917" width="48.8755459" height="6.6118175" rx="3.30590875"></rect>
                        <rect id="矩形备份-7" fill="#FFFFFF" x="1" y="0" width="48.8755459" height="11.0196958" rx="4"></rect>
                        <path d="M45.8755459,28.1512092 L5,28.1512092 C2.51471863,28.1512092 0.5,30.1659278 0.5,32.6512092 L0.5,35.670905 C0.5,38.1561864 2.51471863,40.170905 5,40.170905 L45.8755459,40.170905 C48.3608272,40.170905 50.3755459,38.1561864 50.3755459,35.670905 L50.3755459,32.6512092 C50.3755459,30.1659278 48.3608272,28.1512092 45.8755459,28.1512092 Z" id="路径" fill="#1A1A1A" fill-rule="nonzero"></path>
                        <path d="M5,29.1512092 L45.8755459,29.1512092 C47.8085425,29.1512092 49.3755459,30.7182126 49.3755459,32.6512092 L49.3755459,35.670905 C49.3755459,37.6039016 47.8085425,39.170905 45.8755459,39.170905 L5,39.170905 C3.06700338,39.170905 1.5,37.6039016 1.5,35.670905 L1.5,32.6512092 C1.5,30.7182126 3.06700338,29.1512092 5,29.1512092 Z" id="路径" fill="#FB3A32" fill-rule="nonzero"></path>
                        <path d="M45.8755459,10.5196958 L5,10.5196958 C2.51471863,10.5196958 0.5,12.5344145 0.5,15.0196958 L0.5,18.0393917 C0.5,20.524673 2.51471863,22.5393917 5,22.5393917 L45.8755459,22.5393917 C48.3608272,22.5393917 50.3755459,20.524673 50.3755459,18.0393917 L50.3755459,15.0196958 C50.3755459,12.5344145 48.3608272,10.5196958 45.8755459,10.5196958 Z" id="路径" fill="#1A1A1A" fill-rule="nonzero"></path>
                        <path d="M5,11.5196958 L45.8755459,11.5196958 C47.8085425,11.5196958 49.3755459,13.0866992 49.3755459,15.0196958 L49.3755459,18.0393917 C49.3755459,19.9723883 47.8085425,21.5393917 45.8755459,21.5393917 L5,21.5393917 C3.06700338,21.5393917 1.5,19.9723883 1.5,18.0393917 L1.5,15.0196958 C1.5,13.0866992 3.06700338,11.5196958 5,11.5196958 Z" id="路径" fill="#FB3A32" fill-rule="nonzero"></path>
                    </g>
                </g>
                <path d="M24.4817928,2.25179035 L7.38156815,46.7827225 L44.382624,46.7827225 L27.2823994,2.25179035 C27.1300497,1.85505438 26.8165594,1.54156413 26.4198234,1.38921443 C25.6464573,1.09223581 24.7787714,1.4784242 24.4817928,2.25179035 Z" id="路径" stroke="#1A1A1A" fill-rule="nonzero"></path>
                <path d="M47.8755459,45.7827225 L3,45.7827225 C1.61928813,45.7827225 0.5,46.9020106 0.5,48.2827225 L0.5,53.1832461 C0.5,54.5639579 1.61928813,55.6832461 3,55.6832461 L47.8755459,55.6832461 C49.2562577,55.6832461 50.3755459,54.5639579 50.3755459,53.1832461 L50.3755459,48.2827225 C50.3755459,46.9020106 49.2562577,45.7827225 47.8755459,45.7827225 Z" id="路径" fill="#1A1A1A" fill-rule="nonzero"></path>
                <path d="M3,46.7827225 L47.8755459,46.7827225 C48.703973,46.7827225 49.3755459,47.4542954 49.3755459,48.2827225 L49.3755459,53.1832461 C49.3755459,54.0116732 48.703973,54.6832461 47.8755459,54.6832461 L3,54.6832461 C2.17157288,54.6832461 1.5,54.0116732 1.5,53.1832461 L1.5,48.2827225 C1.5,47.4542954 2.17157288,46.7827225 3,46.7827225 Z" id="路径" fill="#FB3A32" fill-rule="nonzero"></path>
            </g>
        </g>
    </g>
</svg>