<?xml version="1.0" encoding="UTF-8"?>
<svg width="130px" height="130px" viewBox="0 0 130 130" version="1.1" xmlns="http://www.w3.org/2000/svg" xmlns:xlink="http://www.w3.org/1999/xlink">
    <title>插图_搜索无内容</title>
    <g id="icon" stroke="none" stroke-width="1" fill="none" fill-rule="evenodd">
        <g id="搜索无内容" transform="translate(0.000000, -3.000000)">
            <path d="M97,26.5 C99.4142733,26.5 101.384489,28.4012365 101.495102,30.7881643 L101.5,31 L101.5,56.2695312 C101.5,56.5456736 101.276142,56.7695312 101,56.7695312 C100.75454,56.7695312 100.550392,56.5926561 100.508056,56.3594069 L100.5,56.2695312 L100.5,31 C100.5,29.1314366 99.0357224,27.6048736 97.1920352,27.5051789 L97,27.5 L29,27.5 C27.1314366,27.5 25.6048736,28.9642776 25.5051789,30.8079648 L25.5,31 L25.5,113 C25.5,114.868563 26.9642776,116.395126 28.8079648,116.494821 L29,116.5 L56.560746,116.5 L57.026367,116.418565 C57.1606139,116.394894 57.291786,116.427158 57.3959727,116.498616 L97,116.5 C98.8685634,116.5 100.395126,115.035722 100.494821,113.192035 L100.5,113 L100.5,106.1875 C100.5,105.911358 100.723858,105.6875 101,105.6875 C101.24546,105.6875 101.449608,105.864375 101.491944,106.097624 L101.5,106.1875 L101.5,113 C101.5,115.414273 99.5987635,117.384489 97.2118357,117.495102 L97,117.5 L56.649746,117.5 L21.4175285,123.712791 C19.0399334,124.132025 16.7695034,122.601797 16.2460853,120.27034 L16.2044768,120.062573 L3.18086347,46.2019912 C2.7616293,43.8243961 4.29185739,41.5539661 6.62331464,41.030548 L6.83108156,40.9889395 L17.5561728,39.0978166 C17.82812,39.049865 18.0874491,39.2314492 18.1354008,39.5033964 C18.1780244,39.7451272 18.0392864,39.9768882 17.8169323,40.0590843 L17.729821,40.0826243 L7.00472974,41.9737473 C5.16455401,42.2982199 3.91545202,44.0053368 4.13742484,45.838326 L4.16567122,46.0283431 L17.1892845,119.888925 C17.5137572,121.7291 19.220874,122.978202 21.0538632,122.756229 L21.2438803,122.727983 L50.888746,117.5 L29,117.5 C26.5857267,117.5 24.6155109,115.598763 24.504898,113.211836 L24.5,113 L24.5,31 C24.5,28.5857267 26.4012365,26.6155109 28.7881643,26.504898 L29,26.5 L97,26.5 Z M53.5,90 C53.7761424,90 54,90.2238576 54,90.5 C54,90.7454599 53.8231248,90.9496084 53.5898756,90.9919443 L53.5,91 L37.5,91 C37.2238576,91 37,90.7761424 37,90.5 C37,90.2545401 37.1768752,90.0503916 37.4101244,90.0080557 L37.5,90 L53.5,90 Z M65.5,82 C65.7761424,82 66,82.2238576 66,82.5 C66,82.7454599 65.8231248,82.9496084 65.5898756,82.9919443 L65.5,83 L37.5,83 C37.2238576,83 37,82.7761424 37,82.5 C37,82.2545401 37.1768752,82.0503916 37.4101244,82.0080557 L37.5,82 L65.5,82 Z M65.5,74 C65.7761424,74 66,74.2238576 66,74.5 C66,74.7454599 65.8231248,74.9496084 65.5898756,74.9919443 L65.5,75 L37.5,75 C37.2238576,75 37,74.7761424 37,74.5 C37,74.2545401 37.1768752,74.0503916 37.4101244,74.0080557 L37.5,74 L65.5,74 Z" id="word" fill="#999999" fill-rule="nonzero"></path>
            <path d="M112.439184,5.87672602 C112.532066,5.61667321 112.818177,5.48115487 113.078229,5.57403732 C118.174477,7.39425203 121.41492,10.2014428 122.752709,13.9968539 C124.173329,18.0272646 123.074757,22.9141995 120.440822,26.1849385 L120.362,26.279 L120.454833,26.3305876 C120.639123,26.4360195 120.819878,26.5472978 120.996354,26.6643346 L121.257768,26.8441976 C124.475326,29.1407071 125.588398,32.8854892 123.744824,37.4546473 C121.701527,42.5188034 116.361123,45.7841951 108.232088,47.6202938 L107.381227,47.8051516 C106.663921,47.9549763 105.926021,48.0942737 105.167853,48.2232804 L104.248344,48.3731642 L103.309503,48.51326 L102.351454,48.6436585 C102.190186,48.6645886 102.028123,48.6851184 101.865267,48.7052498 L100.878642,48.821273 L99.8731232,48.9278263 L98.848835,49.0250005 C98.6765632,49.0404197 98.5035145,49.0554518 98.3296916,49.0700989 L97.277484,49.153375 L96.2068199,49.2274993 C96.0268448,49.2390957 95.8461059,49.2503146 95.6646057,49.2611579 L94.5664913,49.3217249 L93.4502331,49.3733673 L92.3159562,49.4161761 L91.1637856,49.450242 C90.970273,49.4551962 90.77602,49.4597898 90.5810293,49.4640249 L89.4022528,49.4851471 L88.2058954,49.4977538 L86.9920821,49.5019358 C86.7159397,49.5019358 86.4920821,49.2780782 86.4920821,49.0019358 C86.4920821,48.7257934 86.7159397,48.5019358 86.9920821,48.5019358 L88.1928105,48.4977647 L89.3760436,48.4852027 L90.5416494,48.4641764 L91.6894954,48.4346127 L92.8194496,48.3964384 C93.0062769,48.3893544 93.1923533,48.3819085 93.3776759,48.3740993 L94.4805444,48.3228716 L95.5651904,48.2628501 C95.7444389,48.2521096 95.9229226,48.2409997 96.1006387,48.2295188 L97.1577032,48.1561694 C97.3323383,48.1431984 97.5062002,48.1298534 97.6792864,48.1161329 L98.708472,48.0292907 L99.7189062,47.9333618 L100.710457,47.8282729 C100.874135,47.8099907 101.03702,47.7913238 101.19911,47.7722706 L102.162087,47.6533045 C102.320986,47.6327003 102.479084,47.6117067 102.636379,47.5903224 L103.570486,47.4573143 C103.724557,47.4343605 103.877818,47.4110129 104.030269,47.3872699 L104.935207,47.240055 L105.820536,47.0832774 C105.966449,47.0563468 106.111539,47.0290147 106.255805,47.0012796 L107.111469,46.8300205 L107.947192,46.6490156 L108.762842,46.4581916 C109.568411,46.2624336 110.343672,46.0518372 111.088029,45.8260728 L111.822063,45.5952402 C117.490959,43.7472546 121.251418,40.9618018 122.817465,37.0804744 C124.487332,32.9418379 123.520022,29.6874536 120.676822,27.65814 C120.431091,27.4827512 120.174613,27.3204381 119.910281,27.171446 L119.676,27.044 L119.484854,27.2337238 C118.607302,28.0821189 117.605482,28.7649021 116.504769,29.2182989 L116.249014,29.318828 C113.703124,30.2719685 111.885049,30.0842648 111.230108,28.8825708 C110.638488,27.79706 111.313776,26.3243707 112.669945,25.5819141 C114.325631,24.6754822 116.966948,24.7885373 119.312586,25.7688592 L119.439,25.823 L119.503747,25.7500853 C121.975272,22.8206114 123.089557,18.3240431 121.898583,14.594354 L121.809581,14.3292833 C120.582162,10.8470021 117.575209,8.24208348 112.741872,6.51577183 C112.48182,6.42288938 112.346301,6.13677883 112.439184,5.87672602 Z M118.536552,26.5386305 C116.559179,25.8112821 114.433088,25.7567053 113.150157,26.4590669 C112.23134,26.9620876 111.815982,27.8679144 112.108165,28.4040162 C112.459168,29.0480393 113.76115,29.1824601 115.898397,28.3823093 C116.87409,28.0170253 117.770312,27.4466967 118.564953,26.72576 L118.698,26.601 L118.536552,26.5386305 Z" id="路径-2备份" fill="#979797" fill-rule="nonzero" transform="translate(105.563398, 27.523352) rotate(20.000000) translate(-105.563398, -27.523352) "></path>
            <rect id="矩形" fill="#1A1A1A" x="37" y="53" width="24" height="8" rx="2"></rect>
            <g id="search" transform="translate(72.000000, 62.000000)">
                <path d="M53.1626734,34.2136938 C53.9911005,34.2136938 54.6626734,34.8852667 54.6626734,35.7136938 C54.6626734,36.4933899 54.0677853,37.1341425 53.3071334,37.2068272 L53.1626734,37.2136938 L35.1626734,37.2136938 C34.3342463,37.2136938 33.6626734,36.5421209 33.6626734,35.7136938 C33.6626734,34.9339977 34.2575615,34.2932451 35.0182134,34.2205604 L35.1626734,34.2136938 L53.1626734,34.2136938 Z" id="直线" fill="#1A1A1A" fill-rule="nonzero" transform="translate(44.162673, 35.713694) rotate(45.000000) translate(-44.162673, -35.713694) "></path>
                <circle id="椭圆形" fill="#FB3A32" cx="13" cy="21" r="13"></circle>
                <path d="M22,-0.5 C12.8873016,-0.5 5.5,6.88730163 5.5,16 C5.5,25.1126984 12.8873016,32.5 22,32.5 C31.1126984,32.5 38.5,25.1126984 38.5,16 C38.5,6.88730163 31.1126984,-0.5 22,-0.5 Z M22,0.5 C30.5604136,0.5 37.5,7.43958638 37.5,16 C37.5,24.5604136 30.5604136,31.5 22,31.5 C13.4395864,31.5 6.5,24.5604136 6.5,16 C6.5,7.43958638 13.4395864,0.5 22,0.5 Z" id="椭圆形" fill="#1A1A1A" fill-rule="nonzero"></path>
            </g>
        </g>
    </g>
</svg>