<?xml version="1.0" standalone="no"?>
<!DOCTYPE svg PUBLIC "-//W3C//DTD SVG 1.1//EN" "http://www.w3.org/Graphics/SVG/1.1/DTD/svg11.dtd" >
<!--
2013-9-30: Created.
-->
<svg>
<metadata>
Created by iconfont
</metadata>
<defs>

<font id="iconfont" horiz-adv-x="1024" >
  <font-face
    font-family="iconfont"
    font-weight="500"
    font-stretch="normal"
    units-per-em="1024"
    ascent="896"
    descent="-128"
  />
    <missing-glyph />
    
    <glyph glyph-name="fangda" unicode="&#59118;" d="M776.817778 158.435556l199.566222-199.566223a27.761778 27.761778 0 0 0-39.253333-39.253333l-199.566223 199.566222a443.904 443.904 0 1 0 39.253334 39.253334z m-360.675556 321.422222V646.257778a27.761778 27.761778 0 1 0 55.523556 0v-166.456889h166.456889a27.761778 27.761778 0 0 0 0-55.523556H471.608889v-166.456889a27.761778 27.761778 0 0 0-55.523556 0V424.391111H249.742222a27.761778 27.761778 0 1 0 0 55.523556h166.456889z m27.761778-414.776889A387.015111 387.015111 0 1 1 443.904 839.111111a387.015111 387.015111 0 0 1 0-774.030222z"  horiz-adv-x="1024" />

    
    <glyph glyph-name="chexiao" unicode="&#59119;" d="M120.470588 564.705882a30.117647 30.117647 0 0 0 0 60.235294h512a361.411765 361.411765 0 1 0 0-722.823529H120.470588a30.117647 30.117647 0 1 0 0 60.235294h512a301.176471 301.176471 0 0 1 0 602.352941H120.470588zM102.821647 580.186353l234.315294-234.255059a30.117647 30.117647 0 0 0-42.646588-42.586353L38.912 558.923294a30.117647 30.117647 0 0 0 0 42.586353L294.550588 857.088a30.117647 30.117647 0 1 0 42.586353-42.646588L102.821647 580.186353z"  horiz-adv-x="1024" />

    
    <glyph glyph-name="gongxiangpingmugongjulan_tubiao_xiangxiajiantoucopy" unicode="&#59120;" d="M868.9664 896l-2.8672-871.8336-860.3648-2.6624"  horiz-adv-x="1024" />

    
    <glyph glyph-name="hudonggongju" unicode="&#59121;" d="M53.894737 680.421053v-754.526316h970.105263V680.421053H53.894737z m0 53.894736h970.105263a53.894737 53.894737 0 0 0 53.894737-53.894736v-754.526316a53.894737 53.894737 0 0 0-53.894737-53.894737H53.894737a53.894737 53.894737 0 0 0-53.894737 53.894737V680.421053a53.894737 53.894737 0 0 0 53.894737 53.894736zM323.368421 734.315789V842.105263h431.157895v-107.789474H323.368421z m0-53.894736h431.157895a53.894737 53.894737 0 0 1 53.894737 53.894736V842.105263a53.894737 53.894737 0 0 1-53.894737 53.894737H323.368421a53.894737 53.894737 0 0 1-53.894737-53.894737v-107.789474a53.894737 53.894737 0 0 1 53.894737-53.894736zM485.052632 410.947368v-161.68421h107.789473V410.947368H485.052632z m0 53.894737h107.789473a53.894737 53.894737 0 0 0 53.894737-53.894737v-161.68421a53.894737 53.894737 0 0 0-53.894737-53.894737H485.052632a53.894737 53.894737 0 0 0-53.894737 53.894737V410.947368a53.894737 53.894737 0 0 0 53.894737 53.894737zM53.894737 303.157895v53.894737h404.210526v-53.894737zM619.789474 303.157895v53.894737h431.157894v-53.894737z"  horiz-adv-x="1077" />

    
    <glyph glyph-name="huabi" unicode="&#59123;" d="M228.329318-66.320102L159.543441-128 10.488425-28.232055l90.274357 74.015878-1.705435 5.741631c-26.775329 93.34414-29.958808 136.88958-1.3075 188.905346a432.327763 432.327763 0 0 0 64.181203 86.692944l460.922223 491.506356a113.695664 113.695664 0 0 0 163.153278 2.785544l177.592627-176.853605a113.695664 113.695664 0 0 0 2.842392-158.207517l-458.762005-490.710487-7.162827-6.480653c-22.966524-17.395437-45.876201-33.938156-68.785877-49.628157-22.056959-15.064676-45.933048-21.147394-73.67479-20.920003-19.214567 0.227391-102.326098 12.677067-126.202188 14.780437l-3.467717 0.284239z m-49.116527 32.289568l-40.361961 37.51957-33.085438-27.116416 48.718592-32.573808 24.728807 22.170654z m35.92783 334.833732c43.488592-26.093155 83.566313-55.710875 125.8611-92.661967 49.059679-42.976961 90.672292-90.388053 139.618276-158.207516l444.265808 475.247876a56.847832 56.847832 0 0 1-1.421196 79.075335L745.928829 781.167379a56.847832 56.847832 0 0 1-81.576639-1.364348L215.140621 300.803198z m-38.201744-43.431744a340.518514 340.518514 0 0 1-29.390329-44.341309c-20.97685-38.088048-13.700328-76.630878 6.196414-145.757842l83.111531-77.256204c89.990118-7.845001 129.442514-26.320546 162.698495-3.581413 12.506523 8.584023 25.069894 17.452284 37.633265 26.547938-47.752179 66.511964-87.261422 111.762838-133.592406 152.35219a790.86704 790.86704 0 0 1-126.65697 92.03664z"  horiz-adv-x="1024" />

    
    <glyph glyph-name="baiban" unicode="&#59124;" d="M202.264381-31.305143a24.380952 24.380952 0 1 0 0-48.761905H123.367619c-40.472381 0-73.48419 32.475429-73.630476 72.752762L47.689143 774.095238A72.94781 72.94781 0 0 0 120.929524 846.945524h588.751238a24.380952 24.380952 0 1 0 0-48.761905H120.929524a24.185905 24.185905 0 0 1-24.478476-23.990857l2.048-781.360762c0.048762-13.263238 11.117714-24.137143 24.868571-24.137143h78.896762z m432.956952-48.761905a24.380952 24.380952 0 1 0 0 48.761905h364.007619a24.624762 24.624762 0 0 1 24.624762 24.478476l-0.097524 433.39581a24.380952 24.380952 0 0 0 48.761905 0l0.097524-433.347048c0-40.472381-32.865524-73.289143-73.386667-73.289143h-364.007619zM1005.080381 830.317714a48.761905 48.761905 0 0 1-68.705524-5.997714L362.203429 140.04419v-92.111238H475.91619L1048.429714 730.258286a48.761905 48.761905 0 0 1-5.997714 68.705524l-37.351619 31.353904z m31.353905 37.351619l37.351619-31.353904a97.52381 97.52381 0 0 0 11.995428-137.411048L513.219048 16.579048a48.761905 48.761905 0 0 0-37.351619-17.408H362.300952a48.761905 48.761905 0 0 0-48.761904 48.761904v92.16a48.761905 48.761905 0 0 0 11.361523 31.305143L899.023238 855.625143A97.52381 97.52381 0 0 0 1036.434286 867.718095zM870.692571 783.945143l31.353905 37.351619 149.406476-125.366857-31.353904-37.351619z"  horiz-adv-x="1121" />

    
    <glyph glyph-name="huanyuan" unicode="&#59125;" d="M96 832a32 32 0 0 1-32-32v-819.264a32 32 0 0 1 32-32h819.264a32 32 0 0 1 32 32V800a32 32 0 0 1-32 32H96z m0 64h819.264a96 96 0 0 0 96-96v-819.264a96 96 0 0 0-96-96H96a96 96 0 0 0-96 96V800A96 96 0 0 0 96 896z m220.16-256h42.688v-505.6h-54.72V569.088C274.048 536.576 236.736 513.92 192 499.84v58.048c21.376 6.4 44.032 16.32 66.752 30.464 22.656 15.616 41.344 32.64 57.408 51.712zM510.72 462.976c10.688 0 20.736-4.288 28.736-12.8a42.432 42.432 0 0 0 12.032-30.4 44.16 44.16 0 0 0-12.032-31.168 40.832 40.832 0 0 0-28.736-12.032 37.568 37.568 0 0 0-28.672 12.032 44.16 44.16 0 0 0-12.032 31.168c0 12.032 4.032 21.952 12.032 30.464a35.84 35.84 0 0 0 28.672 12.736z m0-236.096c10.688 0 20.736-4.224 28.736-12.736a42.432 42.432 0 0 0 12.032-30.464 44.16 44.16 0 0 0-12.032-31.168 40.832 40.832 0 0 0-28.736-12.032 37.568 37.568 0 0 0-28.672 12.032 44.16 44.16 0 0 0-12.032 31.168c0 12.032 4.032 21.952 12.032 30.464a35.84 35.84 0 0 0 28.672 12.8zM705.472 640h42.752v-505.6h-54.784V569.088c-30.016-32.576-67.392-55.232-112.128-69.376v58.048c21.376 6.4 44.096 16.32 66.752 30.464 22.72 15.616 41.408 32.64 57.408 51.712z"  horiz-adv-x="1024" />

    
    <glyph glyph-name="suolvetu" unicode="&#59127;" d="M960 576V640h-192v-64h192z m0-64h-192v-576h-64V832h64v-128h192V832H64v-896h896V512zM64 896h896a64 64 0 0 0 64-64v-896a64 64 0 0 0-64-64H64a64 64 0 0 0-64 64V832a64 64 0 0 0 64 64z"  horiz-adv-x="1024" />

    
    <glyph glyph-name="wenzi" unicode="&#59128;" d="M741.12 320H275.84l-174.4-431.744L32-112.768 436.992 889.6l2.56 6.4 138.752-1.472 22.72-56.32h-0.192l386.112-955.648-69.44 1.088L741.12 320z m-25.792 64L531.84 838.208h-46.592L301.76 384h413.568z"  horiz-adv-x="1024" />

    
    <glyph glyph-name="suoxiao" unicode="&#59129;" d="M776.817778 158.435556l199.566222-199.566223a27.761778 27.761778 0 0 0-39.253333-39.253333l-199.566223 199.566222a443.904 443.904 0 1 0 39.253334 39.253334z m-332.913778-93.354667A387.015111 387.015111 0 1 1 443.904 839.111111a387.015111 387.015111 0 0 1 0-774.030222z m-194.218667 414.72h388.437334a27.761778 27.761778 0 0 0 0-55.466667H249.685333a27.761778 27.761778 0 1 0 0 55.523556z"  horiz-adv-x="1024" />

    
    <glyph glyph-name="xiangpica" unicode="&#59130;" d="M455.111111-71.111111m28.444445 0l512 0q28.444444 0 28.444444-28.444445l0 0q0-28.444444-28.444444-28.444444l-512 0q-28.444444 0-28.444445 28.444444l0 0q0 28.444444 28.444445 28.444445ZM646.542222 823.466667L59.164444 226.702222l227.271112-227.328 0.625777-0.625778a113.777778 113.777778 0 0 1 160.938667 1.251556l506.936889 514.958222-308.337778 308.508445z m40.277334 40.220444l308.337777-308.508444a56.888889 56.888889 0 0 0 0.284445-80.099556l-506.993778-515.015111a170.666667 170.666667 0 0 0-242.346667-0.910222L18.887111 186.595556a56.888889 56.888889 0 0 0-0.341333 80.099555l587.491555 596.764445a56.888889 56.888889 0 0 0 80.440889 0.568888l0.341334-0.284444zM488.448 682.268444l321.820444-321.820444-40.220444-40.220444-321.820444 321.820444z"  horiz-adv-x="1024" />

    
    <glyph glyph-name="quanping" unicode="&#59131;" d="M630.705231 817.230769a39.384615 39.384615 0 0 0 0 78.769231h294.360615a39.384615 39.384615 0 0 0 39.384616-39.384615v-296.01477a39.384615 39.384615 0 0 0-78.769231 0V817.230769H630.705231zM887.965538 871.896615a39.384615 39.384615 0 1 0 55.532308-55.926153l-343.04-341.07077a39.384615 39.384615 0 1 0-55.532308 55.768616L887.965538 871.896615zM334.532923 9.688615a39.384615 39.384615 0 0 0 0-78.76923H39.384615a39.384615 39.384615 0 0 0-39.384615 39.384615v295.384615a39.384615 39.384615 0 1 0 78.769231 0v-256h255.763692zM365.410462 352.334769a39.384615 39.384615 0 0 0 55.689846-55.689846l-329.412923-330.043077a39.384615 39.384615 0 0 0-55.689847 55.689846l329.412924 330.043077z"  horiz-adv-x="1024" />

    
    <glyph glyph-name="xuanze" unicode="&#59132;" d="M512-7.529412a30.117647 30.117647 0 1 0 0-60.235294h-361.411765C67.824941-67.764706 0-4.156235 0 75.294118V752.941176C0 832.451765 67.824941 896 150.588235 896h722.82353C956.175059 896 1024 832.391529 1024 752.941176V414.117647a30.117647 30.117647 0 1 0-60.235294 0V752.941176C963.764706 798.238118 923.708235 835.764706 873.411765 835.764706h-722.82353C100.291765 835.764706 60.235294 798.238118 60.235294 752.941176v-677.647058C60.235294 29.997176 100.291765-7.529412 150.588235-7.529412h361.411765z m227.930353 7.710118l63.548235 101.556706a90.352941 90.352941 0 0 0 56.982588 40.357647l103.905883 23.070117-289.611294 160.828236 65.174588-325.872941zM602.955294 378.096941a30.117647 30.117647 0 0 0 44.152471 32.225883l415.86447-231.002353a30.117647 30.117647 0 0 0-8.131764-55.777883l-181.308236-40.237176a30.117647 30.117647 0 0 1-18.974117-13.492706l-103.725177-165.888a30.117647 30.117647 0 0 0-55.055059 10.059294L602.955294 378.096941z"  horiz-adv-x="1084" />

    
    <glyph glyph-name="jiguangbi" unicode="&#59133;" d="M512-67.764706a451.764706 451.764706 0 1 1 0 903.529412 451.764706 451.764706 0 0 1 0-903.529412z m0-60.235294a512 512 0 1 0 0 1024 512 512 0 0 0 0-1024zM512 384m-90.352941 0a90.352941 90.352941 0 1 1 180.705882 0 90.352941 90.352941 0 1 1-180.705882 0Z"  horiz-adv-x="1024" />

    
    <glyph glyph-name="tupian" unicode="&#59134;" d="M56.888889 138.183111l168.049778 154.168889a56.888889 56.888889 0 0 0 76.401777 0.455111l128.398223-114.915555 277.504 263.623111a56.888889 56.888889 0 0 0 80.440889-2.048l0.796444-0.853334L967.111111 242.801778V839.111111H56.888889v-700.928zM56.888889 71.111111V-71.111111h910.222222v236.771555a28.330667 28.330667 0 0 0-14.336 8.476445l-206.336 226.133333-277.504-263.68a56.888889 56.888889 0 0 0-77.141333-1.137778l-128.398222 114.915556-187.278223-171.804444A28.330667 28.330667 0 0 0 56.888889 71.111111zM56.888889 896h910.222222a56.888889 56.888889 0 0 0 56.888889-56.888889v-910.222222a56.888889 56.888889 0 0 0-56.888889-56.888889H56.888889a56.888889 56.888889 0 0 0-56.888889 56.888889V839.111111a56.888889 56.888889 0 0 0 56.888889 56.888889z m256-426.666667a113.777778 113.777778 0 1 0 0 227.555556 113.777778 113.777778 0 0 0 0-227.555556z m0 56.888889a56.888889 56.888889 0 1 1 0 113.777778 56.888889 56.888889 0 0 1 0-113.777778z"  horiz-adv-x="1024" />

    
    <glyph glyph-name="xiaolian" unicode="&#59135;" d="M512-76.8a460.8 460.8 0 1 1 0 921.6 460.8 460.8 0 0 1 0-921.6z m0-51.2C229.2224-128 0 101.2224 0 384S229.2224 896 512 896s512-229.2224 512-512-229.2224-512-512-512z m-0.6656 221.4912A296.3456 296.3456 0 0 0 276.48 207.9744a33.0752 33.0752 0 1 0 52.1216 40.8064 230.5024 230.5024 0 0 1 182.6816-89.088 230.2976 230.2976 0 0 1 183.808 90.624 33.0752 33.0752 0 1 0 52.5312-40.3456 296.0896 296.0896 0 0 0-236.3392-116.48z m-141.7728 325.12a46.1824 46.1824 0 0 0-46.1824 46.1824V526.4384a46.1824 46.1824 0 1 0 92.416 0v-61.6448a46.2336 46.2336 0 0 0-46.2336-46.1824z m269.4656 0a46.1824 46.1824 0 0 0-46.1824 46.1824V526.4384a46.1824 46.1824 0 1 0 92.416 0v-61.6448a46.2336 46.2336 0 0 0-46.2336-46.1824z"  horiz-adv-x="1024" />

    
    <glyph glyph-name="youfanye" unicode="&#59136;" d="M265.050495 841.55418A31.973163 31.973163 0 1 0 312.11499 884.781896L745.798966 413.177749a31.973163 31.973163 0 0 0 0-43.227716L312.11499-101.654114a31.973163 31.973163 0 1 0-47.064495 43.227716l413.732723 449.990289L265.050495 841.55418z"  horiz-adv-x="1024" />

    
    <glyph glyph-name="quanpingguanbi" unicode="&#59138;" d="M656.237714 503.222857h236.836572a36.571429 36.571429 0 1 0 0-73.142857H619.666286a36.571429 36.571429 0 0 0-36.571429 36.571429V741.522286a36.571429 36.571429 0 1 0 73.142857 0V503.222857zM654.189714 452.461714a36.571429 36.571429 0 0 0-51.565714 51.931429l318.537143 316.708571a36.571429 36.571429 0 1 0 51.565714-51.785143L654.189714 452.461714zM418.157714 265.654857H180.662857a36.571429 36.571429 0 1 0 0 73.142857h274.066286a36.571429 36.571429 0 0 0 36.571428-36.571428v-274.285715a36.571429 36.571429 0 0 0-73.142857 0v237.714286zM151.990857-52.443429a36.571429 36.571429 0 1 0-51.785143 51.638858l305.883429 306.468571a36.571429 36.571429 0 0 0 51.785143-51.712l-305.883429-306.468571z"  horiz-adv-x="1024" />

    
    <glyph glyph-name="yinliang" unicode="&#59139;" d="M571.328-21.76c6.08-9.792 9.6-21.312 9.6-33.728V-64a64 64 0 0 0-64-64h-9.856a64 64 0 0 0-64 64v8.512c0 12.416 3.52 23.936 9.6 33.728C252.8 4.352 98.432 160.128 98.432 349.888 98.432 368.64 113.92 384 132.928 384c19.008 0 34.432-15.296 34.432-34.112 0-168.96 153.6-307.2 344.64-307.2s344.64 138.24 344.64 307.2c0 18.816 15.36 34.112 34.432 34.112 19.008 0 34.496-15.296 34.496-34.112 0-189.76-154.432-345.6-354.24-371.648zM512 861.888c152.32 0 275.712-122.24 275.712-273.088V384c0-150.784-123.456-273.088-275.712-273.088-152.32 0-275.712 122.24-275.712 273.088V588.8C236.288 739.584 359.744 861.888 512 861.888zM512 793.6c-114.176 0-206.72-91.712-206.72-204.8V384c0-113.088 92.544-204.8 206.72-204.8s206.72 91.712 206.72 204.8V588.8c0 113.088-92.544 204.8-206.72 204.8z"  horiz-adv-x="1024" />

    
    <glyph glyph-name="zuofanye" unicode="&#59140;" d="M745.404086-58.426398a31.973163 31.973163 0 1 0-47.064495-43.227716L264.655615 369.950033a31.973163 31.973163 0 0 0 0 43.227716L698.339591 884.781896a31.973163 31.973163 0 1 0 47.064495-43.227716L331.671363 391.563891l413.732723-449.990289z"  horiz-adv-x="1024" />

    
    <glyph glyph-name="zhongzuo" unicode="&#59141;" d="M903.529412 564.705882a30.117647 30.117647 0 0 1 0 60.235294H391.529412a361.411765 361.411765 0 1 1 0-722.823529H903.529412a30.117647 30.117647 0 1 1 0 60.235294H391.529412a301.176471 301.176471 0 0 0 0 602.352941H903.529412zM921.178353 580.186353l-234.315294-234.255059a30.117647 30.117647 0 0 1 42.646588-42.586353l255.578353 255.578353a30.117647 30.117647 0 0 1 0 42.586353L729.449412 857.088a30.117647 30.117647 0 0 1-42.586353-42.646588l234.255059-234.255059z"  horiz-adv-x="1024" />

    
    <glyph glyph-name="xinhao" unicode="&#59142;" d="M105.152-54.848a32 32 0 0 0-64 0v146.304a32 32 0 1 0 64 0v-146.304z m585.152 0a32 32 0 0 0-64 0V530.304a32 32 0 1 0 64 0v-585.152z m292.544 0a32 32 0 0 0-64 0V822.848a32 32 0 1 0 64 0v-877.696z m-585.152 0a32 32 0 0 0-64 0v292.544a32 32 0 1 0 64 0v-292.544z"  horiz-adv-x="1024" />

    
    <glyph glyph-name="zhuomiangongxiang" unicode="&#59143;" d="M76.8 844.8a25.6 25.6 0 0 1-25.6-25.6v-716.8a25.6 25.6 0 0 1 25.6-25.6h921.6a25.6 25.6 0 0 1 25.6 25.6v716.8a25.6 25.6 0 0 1-25.6 25.6h-921.6z m0 51.2h921.6A76.8 76.8 0 0 0 1075.2 819.2v-716.8a76.8 76.8 0 0 0-76.8-76.8h-921.6A76.8 76.8 0 0 0 0 102.4v716.8A76.8 76.8 0 0 0 76.8 896zM588.8 552.448c-179.2512-25.6512-256.0512-143.0016-281.6-271.0016 64 89.6 153.6 140.2368 281.6 140.2368v-52.736a25.6 25.6 0 0 1 43.6736-18.1248l117.4016 117.4016a25.6 25.6 0 0 1 0 36.2496l-117.4016 117.4016a25.6 25.6 0 0 1-43.7248-18.0736v-51.4048zM256-102.4a25.6 25.6 0 1 0 0 51.2h460.8a25.6 25.6 0 1 0 0-51.2H256z"  horiz-adv-x="1075" />

    
    <glyph glyph-name="wendang" unicode="&#59144;" d="M48.761905 700.9523810000001v-780.190476h780.190476V700.9523810000001H48.761905z m0 48.761905h780.190476a48.761905 48.761905 0 0 0 48.761905-48.761905v-780.190476a48.761905 48.761905 0 0 0-48.761905-48.761905H48.761905a48.761905 48.761905 0 0 0-48.761905 48.761905V700.9523810000001a48.761905 48.761905 0 0 0 48.761905 48.761905z m146.18819 45.933714a24.380952 24.380952 0 1 0-48.761905 1.852952l0.975239 25.356191a73.142857 73.142857 0 0 0 73.142857 73.142857h731.233524a73.142857 73.142857 0 0 0 73.142857-73.142857v-779.361524c0-40.423619-32.719238-73.142857-71.68-73.142857l-21.308953-1.219048a24.380952 24.380952 0 1 0-2.876952 48.664381l22.723048 1.316572a24.380952 24.380952 0 0 1 24.380952 24.380952V822.808381a24.380952 24.380952 0 0 1-24.380952 24.380952H220.40381c-13.507048 0-24.380952-10.922667-24.380953-25.307428l-1.024-26.233905zM219.428571 457.142857h438.857143a24.380952 24.380952 0 1 0 0-48.761905h-438.857143a24.380952 24.380952 0 0 0 0 48.761905z m0-146.285714h292.571429a24.380952 24.380952 0 1 0 0-48.761905h-292.571429a24.380952 24.380952 0 1 0 0 48.761905z"  horiz-adv-x="1072" />

    
    <glyph glyph-name="yidong" unicode="&#59137;" d="M85.232941 349.304471c29.816471 29.334588 73.728 31.984941 103.604706 2.650353l85.293177-83.968c22.166588-21.805176 48.911059-21.865412 64.572235-3.674353 10.300235 11.986824 6.264471 49.091765 3.312941 72.583529l-42.767059 346.172235a58.307765 58.307765 0 0 0 49.995294 64.572236c31.442824 3.734588 59.994353-20.058353 63.849412-50.959059l47.164235-271.902118c2.409412-6.746353 7.770353-7.890824 8.312471 1.204706l16.082823 353.400471c0 31.141647 25.660235 56.380235 57.283765 56.380235 31.683765 0 57.344-25.298824 57.344-56.380235l1.144471-356.050824c-0.301176-4.096 3.252706-5.300706 3.915294-0.602353l50.959059 277.925647c5.662118 30.659765 35.478588 52.766118 66.620235 47.224471 31.141647-5.541647 51.802353-36.623059 46.200471-67.282824L722.823529 353.882353c0-5.782588 1.807059-7.589647 4.638118-0.180706l67.704471 178.296471c10.601412 29.334588 43.369412 46.441412 73.185882 36.020706a58.066824 58.066824 0 0 0 34.876235-73.788236l-118.784-381.952a239.134118 239.134118 0 0 0-1.927529-6.26447l-0.240941-0.783059a252.385882 252.385882 0 0 0-240.338824-171.91153 345.328941 345.328941 0 0 0-203.233882 67.824942c-61.379765 36.382118-257.927529 244.434824-257.92753 244.434823-29.876706 29.394824-25.419294 74.330353 4.457412 103.725177z m456.704-476.220236a312.801882 312.801882 0 0 1 297.743059 213.955765l0.120471 0.301176 2.16847 7.04753 117.880471 379.422118a118.302118 118.302118 0 0 1-71.619765 151.070117 115.471059 115.471059 0 0 1-66.680471 2.891294l5.842824 41.984a118.482824 118.482824 0 0 1-94.930824 137.456941 115.651765 115.651765 0 0 1-74.089411-11.504941A117.278118 117.278118 0 0 1 541.936941 896C478.509176 896 426.465882 846.004706 424.478118 785.769412a116.193882 116.193882 0 0 1-82.401883 21.684706c-64.512-7.710118-110.471529-67.704471-102.580706-131.794824L280.094118 346.654118l-49.091765 48.24847c-53.428706 52.645647-134.927059 49.754353-188.054588-2.590117-53.729882-52.826353-58.729412-136.252235-6.02353-187.994353a5180.837647 5180.837647 0 0 1 139.745883-141.974589c57.344-55.717647 99.870118-93.424941 128.180706-111.073882a405.805176 405.805176 0 0 1 237.025882-78.125176z"  horiz-adv-x="1024" />

    
    <glyph glyph-name="tuxing" unicode="&#59126;" d="M192 832h640v-64H192V832z m0-832h640v-64H192v64zM128 704v-640H64V704h64z m832 0v-640h-64V704h64z m-128 192h192v-192h-192V896zM0 896h192v-192H0V896z m0-832h192v-192H0v192z m832 0h192v-192h-192v192zM64 832v-64h64V832H64z m832 0v-64h64V832h-64z m0-832v-64h64v64h-64zM64 0v-64h64v64H64z"  horiz-adv-x="1024" />

    
    <glyph glyph-name="biaoqing" unicode="&#59145;" d="M512-76.8a460.8 460.8 0 1 1 0 921.6 460.8 460.8 0 0 1 0-921.6z m0-51.2C229.2224-128 0 101.2224 0 384S229.2224 896 512 896s512-229.2224 512-512-229.2224-512-512-512z m-0.6656 221.4912A296.3456 296.3456 0 0 0 276.48 207.9744a33.0752 33.0752 0 1 0 52.1216 40.8064 230.5024 230.5024 0 0 1 182.6816-89.088 230.2976 230.2976 0 0 1 183.808 90.624 33.0752 33.0752 0 1 0 52.5312-40.3456 296.0896 296.0896 0 0 0-236.3392-116.48z m-141.7728 325.12a46.1824 46.1824 0 0 0-46.1824 46.1824V526.4384a46.1824 46.1824 0 1 0 92.416 0v-61.6448a46.2336 46.2336 0 0 0-46.2336-46.1824z m269.4656 0a46.1824 46.1824 0 0 0-46.1824 46.1824V526.4384a46.1824 46.1824 0 1 0 92.416 0v-61.6448a46.2336 46.2336 0 0 0-46.2336-46.1824z"  horiz-adv-x="1024" />

    
    <glyph glyph-name="hongbao" unicode="&#59146;" d="M667.584 549.504c82.688 16.704 148.48 45.12 228.416 96.768V832H128v-189.184c52.928-34.368 89.28-52.352 142.08-70.08 28.352-9.6 57.216-17.344 86.336-23.296a160.064 160.064 0 0 0 311.168 0z m2.112-64.832a160 160 0 0 0-315.392 0A783.296 783.296 0 0 0 249.6 512 596.48 596.48 0 0 0 128 567.424V-64h768V571.008c-75.264-44.672-143.04-70.592-226.304-86.336zM128 896h768a64 64 0 0 0 64-64v-896a64 64 0 0 0-64-64H128a64 64 0 0 0-64 64V832a64 64 0 0 0 64 64z m384-480a96 96 0 1 1 0 192 96 96 0 0 1 0-192z"  horiz-adv-x="1024" />

    
    <glyph glyph-name="tupianliaotian" unicode="&#59147;" d="M56.888889 138.183111l168.049778 154.168889a56.888889 56.888889 0 0 0 76.401777 0.455111l128.398223-114.915555 277.504 263.623111a56.888889 56.888889 0 0 0 80.440889-2.048l0.796444-0.853334L967.111111 242.801778V839.111111H56.888889v-700.928zM56.888889 71.111111V-71.111111h910.222222v236.771555a28.330667 28.330667 0 0 0-14.336 8.476445l-206.336 226.133333-277.504-263.68a56.888889 56.888889 0 0 0-77.141333-1.137778l-128.398222 114.915556-187.278223-171.804444A28.330667 28.330667 0 0 0 56.888889 71.111111zM56.888889 896h910.222222a56.888889 56.888889 0 0 0 56.888889-56.888889v-910.222222a56.888889 56.888889 0 0 0-56.888889-56.888889H56.888889a56.888889 56.888889 0 0 0-56.888889 56.888889V839.111111a56.888889 56.888889 0 0 0 56.888889 56.888889z m256-426.666667a113.777778 113.777778 0 1 0 0 227.555556 113.777778 113.777778 0 0 0 0-227.555556z m0 56.888889a56.888889 56.888889 0 1 1 0 113.777778 56.888889 56.888889 0 0 1 0-113.777778z"  horiz-adv-x="1024" />

    
    <glyph glyph-name="choujiang" unicode="&#59148;" d="M466.7525 559.144883L494.020582 615.674958l29.100324-56.152848a161.668469 161.668469 0 1 0-56.368406-0.377227zM495.852825-4.054174a404.171173 404.171173 0 1 0 0 808.342346 404.171173 404.171173 0 0 0 0-808.342346z m0 53.88949a350.281683 350.281683 0 1 1 0 700.563366 350.281683 350.281683 0 0 1 0-700.563366z m0 242.502704a107.778979 107.778979 0 1 1 0 215.557959 107.778979 107.778979 0 0 1 0-215.557959z m221.647471-371.837479a26.944745 26.944745 0 1 0-23.28026 48.608319 513.890174 513.890174 0 0 1 256.244524 276.183635 26.944745 26.944745 0 1 0 50.225004-19.561885 567.779664 567.779664 0 0 0-283.189268-305.17618zM295.922818 893.690835a26.944745 26.944745 0 0 0 21.555796-49.362772A513.890174 513.890174 0 0 1 51.803429 577.197862a26.944745 26.944745 0 0 0-49.57833 21.286349A567.779664 567.779664 0 0 0 295.922818 893.636946z"  horiz-adv-x="1024" />

    
    <glyph glyph-name="wenjuan" unicode="&#59149;" d="M782.757647 795.286588V685.176471a30.117647 30.117647 0 0 1 30.117647-30.057412h90.533647V671.924706l-120.651294 123.482353z m-60.235294 40.478118H120.470588v-903.288471h511.759059a30.117647 30.117647 0 1 0 0-60.235294H120.470588a60.235294 60.235294 0 0 0-60.235294 60.235294V835.764706a60.235294 60.235294 0 0 0 60.235294 60.235294h648.07153l195.102117-199.619765v-553.140706a30.117647 30.117647 0 1 0-60.235294 0V595.064471h-90.533647c-49.935059 0-90.352941 40.357647-90.352941 90.112V835.764706zM807.152941 65.415529l124.687059-124.626823a30.117647 30.117647 0 0 0-42.646588-42.586353l-125.590588 125.590588a180.705882 180.705882 0 1 0 43.550117 41.622588z m-144.865882-12.468705a120.470588 120.470588 0 1 1 0 240.941176 120.470588 120.470588 0 0 1 0-240.941176z m-391.529412 662.588235h361.411765a30.117647 30.117647 0 0 0 0-60.235294h-361.411765a30.117647 30.117647 0 1 0 0 60.235294z m0-180.705883h361.411765a30.117647 30.117647 0 0 0 0-60.235294h-361.411765a30.117647 30.117647 0 1 0 0 60.235294z m0-180.705882h120.470588a30.117647 30.117647 0 0 0 0-60.235294h-120.470588a30.117647 30.117647 0 1 0 0 60.235294z"  horiz-adv-x="1024" />

    
    <glyph glyph-name="qiandao" unicode="&#59150;" d="M431.552 251.456l22.592-22.656a32 32 0 0 0-45.248-45.248L273.152 319.36a32 32 0 0 0 45.248 45.248l113.152-113.152 248.896 248.896a32 32 0 0 0 45.248-45.248l-271.552-271.552a32 32 0 0 0-45.248 45.248l22.656 22.656zM864.192 768a32 32 0 1 0 0 64h63.808A96 96 0 0 0 1024 736v-768a96 96 0 0 0-96-96h-832A96 96 0 0 0 0-32v768A96 96 0 0 0 96 832h64a32 32 0 1 0 0-64h-64a32 32 0 0 1-32-32v-768c0-32 14.336-32 32-32h832a32 32 0 0 1 32 32v768a32 32 0 0 1-32 32h-63.872zM405.44 768c-11.776 0-21.248 14.336-21.248 32s9.472 32 21.248 32H618.88c11.776 0 21.312-14.336 21.312-32s-9.6-32-21.312-32H405.504zM288 896a32 32 0 0 0 32-32v-128a32 32 0 0 0-64 0v128a32 32 0 0 0 32 32z m448 0a32 32 0 0 0 32-32v-128a32 32 0 1 0-64 0v128a32 32 0 0 0 32 32z"  horiz-adv-x="1024" />

    
    <glyph glyph-name="quanyuanjinyanguolv" unicode="&#59151;" d="M844.261053-29.911579l-279.821474 277.719579a195.961263 195.961263 0 0 1-41.498947-120.724211c0-109.136842 89.573053-198.063158 199.733894-198.063157 45.702737 0 87.848421 15.306105 121.586527 41.067789z m36.648421 36.217263c25.977263 33.468632 41.498947 75.344842 41.498947 120.724211 0 109.136842-89.626947 198.063158-199.733895 198.063158-45.756632 0-87.902316-15.306105-121.640421-41.06779l279.821474-277.719579zM261.712842 581.308632c29.103158-32.606316 49.421474-84.075789 49.421474-125.682527v-347.351579a26.947368 26.947368 0 1 0-53.894737 0V455.626105c0 28.133053-15.306105 66.937263-36.432842 90.543158L11.695158 799.851789l-3.233684 4.904422c-11.317895 22.150737-11.317895 46.457263 0 62.733473 10.078316 19.725474 27.594105 26.947368 50.391579 28.294737C62.625684 896 65.536 896 71.464421 896H757.76c27.055158 0 49.313684-8.407579 55.888842-28.564211 11.317895-22.204632 11.317895-46.511158-3.233684-67.637894l-208.572632-252.820211c-17.138526-22.474105-29.911579-61.655579-29.911579-91.351579a26.947368 26.947368 0 1 0-53.894736 0c0 41.337263 16.491789 92.052211 41.660631 124.874106l207.710316 251.634526c1.077895 1.616842 1.077895 5.12-3.233684 14.336 1.670737-5.066105-0.161684-4.365474-6.467369-4.365474H71.518316c-4.850526 0-7.060211 0-9.485474-0.161684-5.658947-0.323368-6.305684-0.592842-7.221895-1.940211-0.970105-1.455158-1.077895-4.203789 0.646737-8.515368l206.362948-250.179368z m460.90779-706.182737c-139.802947 0-253.628632 112.963368-253.628632 251.904 0 138.994526 113.825684 251.957895 253.628632 251.957894 139.802947 0 253.628632-112.963368 253.628631-251.957894 0-138.940632-113.825684-251.904-253.628631-251.904z"  horiz-adv-x="1024" />

    
    <glyph glyph-name="wenda" unicode="&#59152;" d="M682.765026 65.696414H958.042599V832.130493H63.869507v-766.434079h276.299485L510.956053-56.933039l171.808973 122.629453zM63.869507 896h894.173092a63.869507 63.869507 0 0 0 63.869507-63.869507v-766.434079a63.869507 63.869507 0 0 0-63.869507-63.869507h-254.839331l-173.661189-123.970712a31.934753 31.934753 0 0 0-37.172053 0L319.603011 1.826907H63.869507a63.869507 63.869507 0 0 0-63.869507 63.869507V832.130493a63.869507 63.869507 0 0 0 63.869507 63.869507z m447.086546-702.564573a31.934753 31.934753 0 1 0 0-63.869506 31.934753 31.934753 0 0 0 0 63.869506z m32.828926 78.878841a31.934753 31.934753 0 0 0-63.869506 0c0 61.634074 25.739411 104.682121 75.04667 120.521759A127.739013 127.739013 0 1 1 383.21704 512.78296a31.934753 31.934753 0 0 0-63.869507 0 191.60852 191.60852 0 1 0 256.436069-180.367486c-21.651763-6.961776-31.934753-24.270413-31.934753-60.037337z"  horiz-adv-x="1024" />

    
    <glyph glyph-name="shuaxin" unicode="&#59189;" d="M537.6 671.104l56.32-56.128a32 32 0 1 0-45.184-45.312l-106.688 106.24a32 32 0 0 0 0 45.376l106.688 106.24a32 32 0 1 0 45.184-45.312l-47.808-47.616A416 416 0 1 0 107.712 418.56a32 32 0 1 0 62.208-15.104A352 352 0 1 1 537.6 671.104z"  horiz-adv-x="1024" />

    
    <glyph glyph-name="danmuguanbi" unicode="&#59190;" d="M656.128-32a32 32 0 1 0 0-64H155.072C86.848-96 32-39.232 32 30.336V737.664C32 807.232 86.848 864 155.072 864H838.4c68.288 0 123.136-56.768 123.136-126.336V549.12a32 32 0 0 0-64 0V737.664c0 34.688-26.752 62.336-59.136 62.336H155.072c-32.384 0-59.072-27.648-59.072-62.336v-707.328c0-34.688 26.688-62.336 59.072-62.336h501.12zM286.08 443.52L275.2 339.84h136.32c0-107.52-3.84-178.56-10.24-211.84-8.32-37.12-40.96-56.32-97.92-58.88-14.72 0-30.08 1.28-45.44 2.56l-11.52 42.88c15.36-1.28 30.72-2.56 46.72-2.56 37.76 0 59.52 12.16 65.28 35.2 6.4 24.32 9.6 75.52 9.6 152.32H228.48l16.64 184.32h116.48V583.68H235.52v40.32h170.88v-180.48H286.08z m175.36 103.68h186.24c19.2 34.56 35.2 70.4 49.28 108.16l44.16-15.36c-14.08-34.56-30.08-65.92-48-92.8h83.2v-256.64H640v-62.08h164.48v-42.88H640v-122.88h-44.8V185.6H433.28v42.88H595.2v62.08H461.44V547.2z m273.28-217.6V398.72H640v-69.12h94.72z m-139.52 0V398.72H502.4v-69.12H595.2zM502.4 437.12H595.2V508.16H502.4v-71.04zM640 508.16v-71.04h94.72V508.16H640zM536.96 651.52c19.2-26.24 35.84-54.4 49.92-83.84l-39.68-17.28c-15.36 33.28-33.28 62.08-52.48 87.68l42.24 13.44z m460.16-773.888c-144.448 0-261.12 120.768-261.12 269.184 0 148.48 116.672 269.184 261.12 269.184s261.12-120.768 261.12-269.184c0-148.416-116.672-269.184-261.12-269.184z m0 64c108.544 0 197.12 91.648 197.12 205.184S1105.6 352 997.12 352c-108.608 0-197.12-91.648-197.12-205.184s88.512-205.184 197.12-205.184z m164.992 397.248l46.08-44.48-349.952-362.24-46.08 44.48 349.952 362.24z"  horiz-adv-x="1280" />

    
    <glyph glyph-name="danmukaiqi" unicode="&#59191;" d="M1087.552 244.608a32 32 0 1 0 48.96-41.216l-161.792-192a32 32 0 0 0-48.256-0.768l-86.272 96a32 32 0 0 0 47.616 42.752l61.696-68.608 138.048 163.84z m-431.36-276.608a32 32 0 1 0 0-64h-501.12C86.848-96 32-39.232 32 30.336V737.664C32 807.232 86.848 864 155.072 864H838.4c68.288 0 123.136-56.768 123.136-126.336V549.12a32 32 0 0 0-64 0V737.664c0 34.688-26.752 62.336-59.136 62.336H155.072c-32.384 0-59.072-27.648-59.072-62.336v-707.328c0-34.688 26.688-62.336 59.072-62.336h501.12zM286.08 443.52L275.2 339.84h136.32c0-107.52-3.84-178.56-10.24-211.84-8.32-37.12-40.96-56.32-97.92-58.88-14.72 0-30.08 1.28-45.44 2.56l-11.52 42.88c15.36-1.28 30.72-2.56 46.72-2.56 37.76 0 59.52 12.16 65.28 35.2 6.4 24.32 9.6 75.52 9.6 152.32H228.48l16.64 184.32h116.48V583.68H235.52v40.32h170.88v-180.48H286.08z m175.36 103.68h186.24c19.2 34.56 35.2 70.4 49.28 108.16l44.16-15.36c-14.08-34.56-30.08-65.92-48-92.8h83.2v-256.64H640v-62.08h164.48v-42.88H640v-122.88h-44.8V185.6H433.28v42.88H595.2v62.08H461.44V547.2z m273.28-217.6V398.72H640v-69.12h94.72z m-139.52 0V398.72H502.4v-69.12H595.2zM502.4 437.12H595.2V508.16H502.4v-71.04zM640 508.16v-71.04h94.72V508.16H640zM536.96 651.52c19.2-26.24 35.84-54.4 49.92-83.84l-39.68-17.28c-15.36 33.28-33.28 62.08-52.48 87.68l42.24 13.44z m460.16-773.888c-144.448 0-261.12 120.768-261.12 269.184 0 148.48 116.672 269.184 261.12 269.184s261.12-120.768 261.12-269.184c0-148.416-116.672-269.184-261.12-269.184z m0 64c108.544 0 197.12 91.648 197.12 205.184S1105.6 352 997.12 352c-108.608 0-197.12-91.648-197.12-205.184s88.512-205.184 197.12-205.184z"  horiz-adv-x="1280" />

    
    <glyph glyph-name="zanting1" unicode="&#59192;" d="M750.933333 861.866667a34.133333 34.133333 0 0 0 68.266667 0v-954.845867a34.133333 34.133333 0 0 0-68.266667 0V861.866667z m-546.133333 0a34.133333 34.133333 0 1 0 68.266667 0v-954.845867a34.133333 34.133333 0 0 0-68.266667 0V861.866667z"  horiz-adv-x="1024" />

    
    <glyph glyph-name="sanjiaoxing" unicode="&#59193;" d="M794.475038 391.486476a34.131832 34.131832 0 0 1-8.94254 47.443246L224.063869 821.752344A34.131832 34.131832 0 0 1 170.681685 793.559451v-765.645245a34.131832 34.131832 0 0 1 53.382184-28.192892l561.468629 382.822622a34.131832 34.131832 0 0 1 8.94254 8.94254z m-531.978727-448.150948A102.395495 102.395495 0 0 0 102.418022 27.98247V793.559451A102.395495 102.395495 0 0 0 262.496311 878.206394L823.96494 495.247244a102.395495 102.395495 0 0 0 0-169.157357l-561.468629-382.822623z"  horiz-adv-x="1024" />

    
    <glyph glyph-name="yinliang1" unicode="&#59194;" d="M56.90307 567.709513V201.130867c0-15.652001 12.726394-28.451535 28.451535-28.451535h151.98532c18.504469 0 36.570096-5.997496 51.344416-17.187945l291.463668-219.93256a28.451535 28.451535 0 0 1 45.63948 22.67346V810.608094a28.451535 28.451535 0 0 1-45.63948 22.673459L288.611201 613.422134c-14.774319-11.117309-32.839947-17.187945-51.344416-17.187945H85.354605a28.451535 28.451535 0 0 1-28.524675-28.451535zM237.266785 653.137259a28.451535 28.451535 0 0 1 17.114805 5.704935L545.918399 878.774753a85.354605 85.354605 0 0 0 136.77216-68.166659V-41.694573a85.354605 85.354605 0 0 0-136.77216-68.020379l-291.463668 219.85942a28.451535 28.451535 0 0 1-17.114806 5.778075H85.354605A85.354605 85.354605 0 0 0 0 201.130867V567.709513C0 614.811798 38.179181 653.137259 85.354605 653.137259h151.91218z m771.409613-33.498209a28.451535 28.451535 0 0 0 38.691162 41.68991 373.746385 373.746385 0 0 0 118.779673-275.007125c0-107.516083-44.761798-208.59583-123.168084-278.956695a28.451535 28.451535 0 1 0-38.032901 42.348172 316.697035 316.697035 0 0 1 104.371055 236.681664 316.916455 316.916455 0 0 1-100.640905 233.317214z m-126.532533-428.74781a36.570096 36.570096 0 0 0-58.365874 44.030396c32.181685 42.640732 49.808471 94.497129 49.808471 149.132853 0 54.855145-17.773067 106.930962-50.247312 149.644835a36.570096 36.570096 0 0 0 58.292733 44.249816c41.982471-55.367126 65.094772-122.875524 65.094772-193.894651 0-70.653426-22.89288-137.942404-64.58279-193.163249z"  horiz-adv-x="1170" />

    
    <glyph glyph-name="shezhi" unicode="&#59195;" d="M512 248.470588a135.529412 135.529412 0 1 1 0 271.058824 135.529412 135.529412 0 0 1 0-271.058824z m0-60.235294a195.764706 195.764706 0 1 0 0 391.529412 195.764706 195.764706 0 0 0 0-391.529412zM282.985412 602.051765l-42.345412 18.492235a60.235294 60.235294 0 0 1-76.257882-25.057882l-14.817883-25.660236a60.235294 60.235294 0 0 1 15.661177-78.064941l40.05647-30.418823a316.897882 316.897882 0 0 1 3.192471-166.430118l-37.165177-27.407059a60.235294 60.235294 0 0 1-16.384-78.607059l14.817883-25.660235a60.235294 60.235294 0 0 1 75.414588-25.419294l46.381177 19.456a315.693176 315.693176 0 0 1 145.769411-80.655059l5.12-45.718588a60.235294 60.235294 0 0 1 59.873883-53.488941h29.635764a60.235294 60.235294 0 0 1 59.753412 52.645647l6.264471 49.513412a316.114824 316.114824 0 0 1 142.938353 86.196705l41.984-18.311529a60.235294 60.235294 0 0 1 76.257882 25.057882l14.817882 25.660236a60.235294 60.235294 0 0 1-15.661176 78.064941l-39.634824 30.117647a316.837647 316.837647 0 0 1-3.252706 167.03247l36.74353 27.105883a60.235294 60.235294 0 0 1 16.444235 78.607059l-14.817882 25.660235a60.235294 60.235294 0 0 1-75.414588 25.419294l-46.08-19.275294a315.632941 315.632941 0 0 1-146.070589 80.594823l-5.12 45.598118a60.235294 60.235294 0 0 1-59.873882 53.488941H491.52a60.235294 60.235294 0 0 1-59.753412-52.645647l-6.324706-49.694117a316.114824 316.114824 0 0 1-142.516706-86.136471zM370.447059 732.943059l1.566117 12.649412A120.470588 120.470588 0 0 0 491.580235 850.823529h29.635765A120.470588 120.470588 0 0 0 640.903529 743.785412l0.722824-6.264471a375.868235 375.868235 0 0 0 101.857882-56.621176l11.565177 4.818823a120.470588 120.470588 0 0 0 150.889412-50.838588l14.817882-25.660235a120.470588 120.470588 0 0 0-32.828235-157.214118l-4.939295-3.614118a378.518588 378.518588 0 0 0 1.867295-116.736l9.878588-7.469176a120.470588 120.470588 0 0 0 31.382588-156.129882l-14.817882-25.660236a120.470588 120.470588 0 0 0-152.515765-50.176l-5.782588 2.529883a376.289882 376.289882 0 0 0-99.990588-59.934118l-1.566118-12.408471A120.470588 120.470588 0 0 0 531.877647-82.823529h-29.635765a120.470588 120.470588 0 0 0-119.747764 107.038117l-0.722824 6.445177a375.868235 375.868235 0 0 0-101.49647 56.621176l-11.866353-4.999529a120.470588 120.470588 0 0 0-150.889412 50.838588l-14.817883 25.660235a120.470588 120.470588 0 0 0 32.828236 157.214118l5.421176 3.975529a378.518588 378.518588 0 0 0-1.927529 116.013177l-10.24 7.830588a120.470588 120.470588 0 0 0-31.442824 156.129882l14.817883 25.660236a120.470588 120.470588 0 0 0 152.515764 50.176l6.083765-2.650353a376.350118 376.350118 0 0 0 99.689412 59.813647z"  horiz-adv-x="1024" />

    
    <glyph glyph-name="fenxiang" unicode="&#59153;" d="M969.776791 802.864995l-535.710865-535.710864a26.947227 26.947227 0 0 0-38.103378 38.157273L967.621013 876.915974a27.001121 27.001121 0 0 0 4.8505 3.880401 26.947227 26.947227 0 0 0 51.199731-11.748991v-377.261172a26.947227 26.947227 0 1 0-53.894453 0V802.864995z m2.533039-554.466134a26.947227 26.947227 0 1 0 53.894453 0v-241.878306a80.84168 80.84168 0 0 0-80.84168-80.84168H80.84168a80.84168 80.84168 0 0 0-80.84168 80.84168V813.859464a80.84168 80.84168 0 0 0 80.84168 80.84168h301.916727a26.947227 26.947227 0 0 0 0-53.894454H80.84168a26.947227 26.947227 0 0 1-26.947227-26.947226v-807.338909a26.947227 26.947227 0 0 1 26.947227-26.947226h864.520923a26.947227 26.947227 0 0 1 26.947227 26.947226v241.878306zM619.462845 895.994611h377.261172a26.947227 26.947227 0 1 0 0-53.894454h-377.261172a26.947227 26.947227 0 1 0 0 53.894454z"  horiz-adv-x="1077" />

    
    <glyph glyph-name="fenxiang1" unicode="&#59196;" d="M969.776791 802.864995l-535.710865-535.710864a26.947227 26.947227 0 0 0-38.103378 38.157273L967.621013 876.915974a27.001121 27.001121 0 0 0 4.8505 3.880401 26.947227 26.947227 0 0 0 51.199731-11.748991v-377.261172a26.947227 26.947227 0 1 0-53.894453 0V802.864995z m2.533039-554.466134a26.947227 26.947227 0 1 0 53.894453 0v-241.878306a80.84168 80.84168 0 0 0-80.84168-80.84168H80.84168a80.84168 80.84168 0 0 0-80.84168 80.84168V813.859464a80.84168 80.84168 0 0 0 80.84168 80.84168h301.916727a26.947227 26.947227 0 0 0 0-53.894454H80.84168a26.947227 26.947227 0 0 1-26.947227-26.947226v-807.338909a26.947227 26.947227 0 0 1 26.947227-26.947226h864.520923a26.947227 26.947227 0 0 1 26.947227 26.947226v241.878306zM619.462845 895.994611h377.261172a26.947227 26.947227 0 1 0 0-53.894454h-377.261172a26.947227 26.947227 0 1 0 0 53.894454z"  horiz-adv-x="1077" />

    
    <glyph glyph-name="zhubanfang" unicode="&#59197;" d="M128 832v-896h640V832H128z m0 64h640a64 64 0 0 0 64-64v-896a64 64 0 0 0-64-64H128a64 64 0 0 0-64 64V832a64 64 0 0 0 64 64zM32-64h1088a32 32 0 0 0 0-64H32a32 32 0 0 0 0 64zM832 384v-448h192V384h-192z m0 64h192a64 64 0 0 0 64-64v-448a64 64 0 0 0-64-64h-192a64 64 0 0 0-64 64V384a64 64 0 0 0 64 64zM288 640h320a32 32 0 0 0 0-64h-320a32 32 0 0 0 0 64z m0-192h320a32 32 0 0 0 0-64h-320a32 32 0 0 0 0 64z m0-192h320a32 32 0 0 0 0-64h-320a32 32 0 0 0 0 64z"  horiz-adv-x="1152" />

    
    <glyph glyph-name="shijian" unicode="&#59198;" d="M540.444444 384h177.265778a28.444444 28.444444 0 1 0 0-56.888889H512a28.444444 28.444444 0 0 0-28.444444 31.175111V640a28.444444 28.444444 0 0 0 56.888888 0V384zM512-99.555556a483.555556 483.555556 0 1 0 0 967.111112 483.555556 483.555556 0 0 0 0-967.111112z m0 56.888889a426.666667 426.666667 0 1 1 0 853.333334 426.666667 426.666667 0 0 1 0-853.333334z"  horiz-adv-x="1024" />

    
    <glyph glyph-name="gerenzhongxin" unicode="&#59154;" d="M500.736 391.68a229.12 229.12 0 1 0 0 458.24 229.12 229.12 0 0 0 0-458.24z m0 64a165.12 165.12 0 1 1 0 330.24 165.12 165.12 0 0 1 0-330.24zM374.4 348.16a32 32 0 1 0 0-64H303.936c-37.12 0-69.504-25.024-79.168-63.04l-44.416-132.032c-1.6-6.336-2.432-12.8-2.432-19.328 0-44.16 36.16-80 80.896-80h491.008c6.656 0 13.248 0.832 19.648 2.432 43.328 10.688 69.568 54.144 59.52 94.528l-45.824 136.768A80.704 80.704 0 0 1 704.64 284.16H639.68a32 32 0 1 0 0 64h65.024c66.368 0 124.352-44.928 139.84-106.624l45.824-136.768a144 144 0 0 0-105.472-174.72c-11.52-2.88-23.232-4.288-35.072-4.288H258.816A144.448 144.448 0 0 0 113.92 69.76c0 11.776 1.472 23.552 5.056 37.376l44.416 132.032A144.704 144.704 0 0 0 304 348.16h70.4z m100.416-76.48l-26.112 35.904c-17.792 24.576-7.872 44.416 22.144 44.416h75.84c30.208 0 39.936-19.84 22.08-44.416l-22.72-31.168c21.248-48 46.272-105.6 55.232-131.2 2.688-7.68-1.472-14.464-1.472-14.464l-46.656-52.736c-23.424-26.56-61.312-26.752-85.184 0.32 0 0-41.472 46.912-46.72 53.12-5.248 6.144-1.92 14.144-1.92 14.144l55.488 126.08z"  horiz-adv-x="1024" />

    
    <glyph glyph-name="guanzhu" unicode="&#59199;" d="M302.260706-30.117647l0.843294 0.361412 236.905412 106.797176 12.288-5.421176 228.954353-101.797647a29.515294 29.515294 0 0 1 9.396706-2.95153c3.072-0.421647 6.023529-0.481882 11.625411-0.602353a36.141176 36.141176 0 0 1 33.129412 38.128941l-31.924706 255.87953 9.818353 10.300235 171.791059 180.464941c4.156235 4.035765 5.722353 7.408941 8.192 16.624942a37.104941 37.104941 0 0 1-29.997176 43.369411l-257.987765 51.621647-6.806588 11.685647-124.867765 213.835295c-2.469647 4.818824-5.421176 7.469176-14.336 13.312-16.926118 9.216-41.140706 2.710588-50.176-14.817883L378.217412 562.657882l-13.251765-2.650353-243.531294-48.730353a68.668235 68.668235 0 0 1-21.082353-9.999058c-12.950588-11.023059-13.552941-33.912471-1.084235-47.766589L280.094118 263.529412l-1.807059-14.155294-29.936941-237.989647c0-13.251765 0.602353-17.709176 3.373176-22.166589 9.938824-19.275294 32.948706-27.949176 50.597647-19.335529z m-102.159059-11.444706c-10.360471 15.058824-11.986824 27.045647-11.745882 56.621177l28.431059 227.629176L55.055059 412.611765a95.292235 95.292235 0 0 0 9.33647 136.854588c17.769412 11.565176 27.346824 16.564706 43.971765 20.600471l231.484235 46.381176 116.434824 199.198118C480.436706 862.689882 542.177882 879.254588 590.004706 853.232941c19.275294-12.528941 28.551529-20.781176 36.442353-36.201412l117.217882-200.643764 230.821647-46.260706c53.067294-9.396706 87.823059-60.837647 77.522824-115.531294-5.360941-20.901647-11.324235-33.490824-24.094118-45.899294L866.785882 239.435294l28.491294-228.532706c4.939294-52.766118-34.394353-99.990588-90.352941-104.809412-11.023059 0-15.781647 0.180706-22.588235 1.144471a87.341176 87.341176 0 0 0-26.503529 8.011294l-215.642353 95.774118-212.028236-95.533177a98.183529 98.183529 0 0 0-128.060235 42.947765z"  horiz-adv-x="1084" />

    
    <glyph glyph-name="zaixianrenshu" unicode="&#59200;" d="M672 800H512A160 160 0 1 1 672 640V800zM512 864h176.832c26.048 0 47.168-21.12 47.168-47.168V640A224 224 0 1 0 512 864z m352-851.392c0 187.52-149.888 339.392-334.528 339.392h-34.944C309.888 352 160 200.128 160 12.608v-44.608h704v44.608zM494.528 416h34.944c220.16 0 398.528-180.672 398.528-403.392v-58.88a49.6 49.6 0 0 0-49.472-49.728H145.472a49.6 49.6 0 0 0-49.472 49.664v58.944C96 235.328 274.368 416 494.528 416z"  horiz-adv-x="1024" />

    
    <glyph glyph-name="guankancishu" unicode="&#59201;" d="M748.307692 856.615385c314.446769 0 592.502154-188.967385 706.087385-471.04l5.907692-14.729847-5.907692-14.651076c-113.585231-282.072615-391.640615-471.04-706.087385-471.04-314.289231 0-592.502154 189.046154-706.087384 471.04l-5.907693 14.651076 5.907693 14.729847C155.805538 667.569231 434.097231 856.615385 748.307692 856.615385z m0-78.769231c-276.48 0-521.688615-162.894769-626.845538-407.000616C226.619077 126.739692 471.827692-36.076308 748.307692-36.076308c276.637538 0 521.609846 162.737231 626.845539 406.921846C1269.917538 615.030154 1024.945231 777.846154 748.307692 777.846154z m0-601.403077c111.300923 0 201.176615 87.433846 201.176616 194.402461 0 107.126154-89.875692 194.481231-201.176616 194.481231-111.300923 0-201.176615-87.433846-201.176615-194.481231 0-107.047385 89.875692-194.402462 201.176615-194.402461z m0-78.769231c-154.308923 0-279.945846 122.092308-279.945846 273.171692S593.92 644.096 748.307692 644.096c154.308923 0 279.945846-122.092308 279.945846-273.250462 0-151.000615-125.636923-273.171692-279.945846-273.171692z"  horiz-adv-x="1496" />

    
    <glyph glyph-name="zaixianrenshu-copy" unicode="&#59202;" d="M672 800H512A160 160 0 1 1 672 640V800zM512 864h176.832c26.048 0 47.168-21.12 47.168-47.168V640A224 224 0 1 0 512 864z m352-851.392c0 187.52-149.888 339.392-334.528 339.392h-34.944C309.888 352 160 200.12800000000004 160 12.607999999999947v-44.608h704v44.608zM494.528 416h34.944c220.16 0 398.528-180.672 398.528-403.392v-58.88a49.6 49.6 0 0 0-49.472-49.728H145.472a49.6 49.6 0 0 0-49.472 49.664v58.944C96 235.32799999999997 274.368 416 494.528 416z"  horiz-adv-x="1024" />

    
    <glyph glyph-name="guankancishu-copy" unicode="&#59203;" d="M748.307692 856.6153850000001c314.446769 0 592.502154-188.967385 706.087385-471.04l5.907692-14.729847-5.907692-14.651076c-113.585231-282.072615-391.640615-471.04-706.087385-471.04-314.289231 0-592.502154 189.046154-706.087384 471.04l-5.907693 14.651076 5.907693 14.729847C155.805538 667.569231 434.097231 856.6153850000001 748.307692 856.6153850000001z m0-78.769231c-276.48 0-521.688615-162.894769-626.845538-407.000616C226.619077 126.73969199999999 471.827692-36.07630800000004 748.307692-36.07630800000004c276.637538 0 521.609846 162.737231 626.845539 406.921846C1269.917538 615.030154 1024.945231 777.846154 748.307692 777.846154z m0-601.403077c111.300923 0 201.176615 87.433846 201.176616 194.402461 0 107.126154-89.875692 194.481231-201.176616 194.481231-111.300923 0-201.176615-87.433846-201.176615-194.481231 0-107.047385 89.875692-194.402462 201.176615-194.402461z m0-78.769231c-154.308923 0-279.945846 122.092308-279.945846 273.171692S593.92 644.096 748.307692 644.096c154.308923 0 279.945846-122.092308 279.945846-273.250462 0-151.000615-125.636923-273.171692-279.945846-273.171692z"  horiz-adv-x="1496" />

    
    <glyph glyph-name="fuzhi" unicode="&#59155;" d="M85.333333 810.666667v-682.666667h682.666667V810.666667H85.333333z m0 85.333333h682.666667a85.333333 85.333333 0 0 0 85.333333-85.333333v-682.666667a85.333333 85.333333 0 0 0-85.333333-85.333333H85.333333a85.333333 85.333333 0 0 0-85.333333 85.333333V810.666667a85.333333 85.333333 0 0 0 85.333333 85.333333z m170.666667-772.608h85.333333V-42.666667h597.333334V554.666667H768V640h170.666667a85.333333 85.333333 0 0 0 85.333333-85.333333v-597.333334a85.333333 85.333333 0 0 0-85.333333-85.333333H341.333333a85.333333 85.333333 0 0 0-85.333333 85.333333V123.392z m0 0h85.333333V-42.666667h597.333334V554.666667H768V640h170.666667a85.333333 85.333333 0 0 0 85.333333-85.333333v-597.333334a85.333333 85.333333 0 0 0-85.333333-85.333333H341.333333a85.333333 85.333333 0 0 0-85.333333 85.333333V123.392z"  horiz-adv-x="1024" />

    
    <glyph glyph-name="fenpingmoshi" unicode="&#59156;" d="M136.533333 827.733333a68.266667 68.266667 0 0 1-68.266666-68.266666v-204.8a68.266667 68.266667 0 0 1 68.266666-68.266667h409.6a68.266667 68.266667 0 0 1 68.266667 68.266667V759.466667a68.266667 68.266667 0 0 1-68.266667 68.266666H136.533333z m0 68.266667h409.6a136.533333 136.533333 0 0 0 136.533334-136.533333v-204.8a136.533333 136.533333 0 0 0-136.533334-136.533334H136.533333a136.533333 136.533333 0 0 0-136.533333 136.533334V759.466667a136.533333 136.533333 0 0 0 136.533333 136.533333z m750.933334-68.266667a68.266667 68.266667 0 0 1-68.266667-68.266666v-204.8a68.266667 68.266667 0 0 1 68.266667-68.266667h409.6a68.266667 68.266667 0 0 1 68.266666 68.266667V759.466667a68.266667 68.266667 0 0 1-68.266666 68.266666h-409.6z m0 68.266667h409.6a136.533333 136.533333 0 0 0 136.533333-136.533333v-204.8a136.533333 136.533333 0 0 0-136.533333-136.533334h-409.6a136.533333 136.533333 0 0 0-136.533334 136.533334V759.466667a136.533333 136.533333 0 0 0 136.533334 136.533333z m0-614.4a68.266667 68.266667 0 0 1-68.266667-68.266667v-204.8a68.266667 68.266667 0 0 1 68.266667-68.266666h409.6a68.266667 68.266667 0 0 1 68.266666 68.266666v204.8a68.266667 68.266667 0 0 1-68.266666 68.266667h-409.6z m0 68.266667h409.6a136.533333 136.533333 0 0 0 136.533333-136.533334v-204.8a136.533333 136.533333 0 0 0-136.533333-136.533333h-409.6a136.533333 136.533333 0 0 0-136.533334 136.533333v204.8a136.533333 136.533333 0 0 0 136.533334 136.533334zM136.533333 281.6a68.266667 68.266667 0 0 1-68.266666-68.266667v-204.8a68.266667 68.266667 0 0 1 68.266666-68.266666h409.6a68.266667 68.266667 0 0 1 68.266667 68.266666v204.8a68.266667 68.266667 0 0 1-68.266667 68.266667H136.533333z m0 68.266667h409.6a136.533333 136.533333 0 0 0 136.533334-136.533334v-204.8a136.533333 136.533333 0 0 0-136.533334-136.533333H136.533333a136.533333 136.533333 0 0 0-136.533333 136.533333v204.8a136.533333 136.533333 0 0 0 136.533333 136.533334z"  horiz-adv-x="1433" />

    
    <glyph glyph-name="jiaosetuichu" unicode="&#59157;" d="M924.564211 350.315789H512a26.947368 26.947368 0 1 0 0 53.894737h414.127158l-117.86779 122.826106a26.947368 26.947368 0 0 0 38.804211 37.295157l157.049263-163.516631a26.893474 26.893474 0 0 0 7.27579-21.935158 26.893474 26.893474 0 0 0-6.952421-21.504l-153.761685-166.534737a26.947368 26.947368 0 1 0-39.612631 36.540632l113.502316 122.88zM727.578947 118.784a26.947368 26.947368 0 0 0 53.894737 0v-96.471579c0-68.823579-60.901053-123.365053-134.736842-123.365053H161.684211c-73.835789 0-134.736842 54.541474-134.736843 123.418948V745.633684C26.947368 814.565053 87.848421 869.052632 161.684211 869.052632h485.052631c73.835789 0 134.736842-54.541474 134.736842-123.418948v-96.417684a26.947368 26.947368 0 1 0-53.894737 0v96.471579c0 37.672421-35.570526 69.470316-80.842105 69.470316H161.684211c-45.271579 0-80.842105-31.797895-80.842106-69.524211v-723.267368c0-37.726316 35.570526-69.524211 80.842106-69.524211h485.052631c45.271579 0 80.842105 31.797895 80.842105 69.524211v96.417684z"  horiz-adv-x="1024" />

    
    <glyph glyph-name="meitishezhi" unicode="&#59158;" d="M512 253.672727a148.945455 148.945455 0 1 1 0 297.890909 148.945455 148.945455 0 0 1 0-297.890909z m0-46.545454a195.490909 195.490909 0 1 0 0 390.981818 195.490909 195.490909 0 0 0 0-390.981818zM260.514909 642.466909l-62.091636 27.694546a46.545455 46.545455 0 0 1-59.298909-19.223273l-28.020364-48.593455a46.545455 46.545455 0 0 1 12.427636-60.555636l54.970182-41.053091a347.648 347.648 0 0 1-14.056727-98.117818c0-33.885091 4.887273-66.653091 13.963636-97.652364l-55.063272-39.889454a46.545455 46.545455 0 0 1-12.986182-60.974546l28.066909-48.593454a46.545455 46.545455 0 0 1 58.647273-19.502546l63.06909 27.089455a347.229091 347.229091 0 0 1 169.751273-98.257455l7.633455-67.723636a46.545455 46.545455 0 0 1 46.266182-41.332364h67.397818a46.545455 46.545455 0 0 1 46.173091 40.680727l9.122909 71.633455a347.415273 347.415273 0 0 1 156.858182 94.487273l61.719272-27.508364a46.545455 46.545455 0 0 1 59.252364 19.223273l28.066909 48.593454a46.545455 46.545455 0 0 1-12.474182 60.555637l-54.504727 40.727272c9.216 31.185455 14.149818 64.232727 14.149818 98.443637a347.694545 347.694545 0 0 1-14.010182 97.978182l54.551273 39.563636a46.545455 46.545455 0 0 1 13.032727 60.974545l-28.113454 48.593455a46.545455 46.545455 0 0 1-58.647273 19.502545l-62.696727-26.949818a347.182545 347.182545 0 0 1-170.123637 98.257455l-7.586909 67.584A46.545455 46.545455 0 0 1 539.694545 849.454545H472.250182a46.545455 46.545455 0 0 1-46.173091-40.680727l-9.122909-71.773091a347.415273 347.415273 0 0 1-156.439273-94.487272z m113.989818 129.582546l5.399273 42.635636A93.090909 93.090909 0 0 0 472.250182 896h67.444363a93.090909 93.090909 0 0 0 92.485819-82.711273l4.142545-36.584727a393.681455 393.681455 0 0 0 137.402182-79.453091l34.257454 14.708364a93.090909 93.090909 0 0 0 117.341091-38.958546l28.066909-48.593454a93.090909 93.090909 0 0 0-25.972363-121.949091l-29.184-21.131637a395.682909 395.682909 0 0 0-0.232727-158.394181l29.78909-22.202182a93.090909 93.090909 0 0 0 24.901819-121.111273l-28.066909-48.593454a93.090909 93.090909 0 0 0-118.551273-38.493091l-33.093818 14.801454a393.914182 393.914182 0 0 0-124.043637-74.333091l-5.399272-42.449454a93.090909 93.090909 0 0 0-92.346182-81.314909H483.793455a93.090909 93.090909 0 0 0-92.532364 82.711272l-4.142546 36.770909a393.681455 393.681455 0 0 0-137.029818 79.406546l-34.583272-14.894546a93.090909 93.090909 0 0 0-117.387637 39.005091l-28.066909 48.593455a93.090909 93.090909 0 0 0 25.972364 121.949091l29.696 21.504a395.729455 395.729455 0 0 0 0.186182 157.649454l-30.208 22.574546A93.090909 93.090909 0 0 0 70.795636 625.570909l28.020364 48.593455a93.090909 93.090909 0 0 0 118.551273 38.493091l33.512727-14.941091a393.914182 393.914182 0 0 0 123.624727 74.286545z"  horiz-adv-x="1024" />

    
    <glyph glyph-name="zanting" unicode="&#59159;" d="M213.333333 896a128 128 0 0 0 128-128v-768a128 128 0 0 0-256 0V768A128 128 0 0 0 213.333333 896z m512 0a128 128 0 0 0 128-128v-768a128 128 0 0 0-256 0V768A128 128 0 0 0 725.333333 896z"  horiz-adv-x="1024" />

    
    <glyph glyph-name="tingzhi" unicode="&#59160;" d="M0 896m170.666667 0l682.666666 0q170.666667 0 170.666667-170.666667l0-682.666666q0-170.666667-170.666667-170.666667l-682.666666 0q-170.666667 0-170.666667 170.666667l0 682.666666q0 170.666667 170.666667 170.666667Z"  horiz-adv-x="1024" />

    
    <glyph glyph-name="luzhi" unicode="&#59161;" d="M512 384m-512 0a512 512 0 1 1 1024 0 512 512 0 1 1-1024 0Z"  horiz-adv-x="1024" />

    
    <glyph glyph-name="xiamai" unicode="&#59162;" d="M376.312169-98.123294a35.358118 35.358118 0 0 0 0 70.716235h424.237177a35.358118 35.358118 0 0 0 0-70.716235H376.312169z m422.128942 865.882353c62.042353 0 99.870118-32.286118 99.870117-83.305412v-464.956235c0-92.039529-78.305882-172.032-173.357176-172.032H464.918287c-44.272941 0-86.196706 21.383529-123.482353 56.018823l-4.758588 5.300706a35326.554353 35326.554353 0 0 0-99.689412 140.107294l-1.566118 2.168471C182.595464 325.752471 148.08064 375.145412 138.503228 390.625882c-57.825882 93.123765 34.876235 171.550118 119.386353 117.458824 5.842824-3.734588 15.661176-13.552941 42.224941-41.562353V732.461176c0 47.947294 52.404706 83.425882 101.376 83.425883 9.396706 0 18.913882-1.325176 28.069647-3.855059C429.499934 860.762353 484.073111 896 533.345581 896c32.948706 0 67.403294-16.203294 86.256941-41.441882C646.708405 867.448471 695.137581 867.087059 721.038758 853.473882c30.418824-16.022588 53.609412-41.140706 53.609411-72.884706v-14.938352c7.348706 1.385412 15.299765 2.108235 23.792942 2.108235zM464.918287 118.181647h260.035765c55.657412 0 102.640941 48.007529 102.640941 101.315765V684.453647c0 9.276235-3.915294 12.649412-29.153882 12.649412-19.937882 0-23.792941-4.818824-23.792942-21.443765V508.084706H703.931934V780.589176c0-1.505882-6.264471 5.300706-15.841882 10.300236-6.023529 3.192471-31.744 3.192471-37.707294 0-9.697882-5.12-16.203294-12.047059-16.203294-10.300236v-272.564705H563.523464V812.574118c0 1.807059-15.902118 12.709647-30.177883 12.709647-14.998588 0-33.129412-11.685647-33.129412-12.649412v-304.609882H429.620405V732.400941c0 2.469647-14.396235 12.709647-28.069647 12.709647-14.396235 0-30.659765-10.962824-30.659765-12.649412V377.374118c0-32.045176-39.333647-47.585882-61.199059-24.094118l-14.697412 15.721412a10168.922353 10168.922353 0 0 1-32.587294 34.635294c-20.48 21.624471-43.971765 45.778824-42.586353 44.935529-24.335059 15.540706-36.984471 4.818824-21.142588-20.60047 8.432941-13.673412 43.128471-63.427765 94.569412-136.011294l1.505882-2.228706a37033.502118 37033.502118 0 0 1 97.340235-136.734118c24.636235-22.166588 50.176-34.816 72.884706-34.816z"  horiz-adv-x="1024" />

    
    <glyph glyph-name="huabichicun" unicode="&#59163;" d="M517.05173332 378.94826667999996m-431.7184 0a431.7184 431.7184 0 1 1 863.4368 0 431.7184 431.7184 0 1 1-863.4368 0Z"  horiz-adv-x="1024" />

    
    <glyph glyph-name="jiantou" unicode="&#59164;" d="M910.336 692.809143L135.606857-81.92a36.571429 36.571429 0 0 0-51.712 51.785143L869.302857 755.2H609.938286a36.571429 36.571429 0 0 0 0 73.142857h336.969143a36.571429 36.571429 0 0 0 36.571428-37.595428v-336.969143a36.571429 36.571429 0 0 0-73.142857 0V692.809143z"  horiz-adv-x="1024" />

    
    <glyph glyph-name="zhengfangxing" unicode="&#59165;" d="M896 64V704h-64V768H192v-64H128v-640h64v-64h640v64h64z m64 0h64v-192h-192v64H192v-64H0v192h64V704H0V896h192v-64h640V896h192v-192h-64v-640zM896 832v-64h64V832h-64zM64 832v-64h64V832H64z m0-832v-64h64v64H64z m832 0v-64h64v64h-64z"  horiz-adv-x="1024" />

    
    <glyph glyph-name="zhixian" unicode="&#59166;" d="M67.28953-62.386644a39.383767 39.383767 0 0 0-55.767415 55.688647L902.697998 884.477885a39.383767 39.383767 0 0 0 55.688646-55.767414L67.28953-62.386644z"  horiz-adv-x="1024" />

    
    <glyph glyph-name="yuanxing" unicode="&#59167;" d="M602.352941 2.951529A392.192 392.192 0 0 1 893.048471 293.647059H843.294118V474.352941h49.754353A392.192 392.192 0 0 1 602.352941 765.048471V715.294118H421.647059v49.754353A392.192 392.192 0 0 1 130.951529 474.352941H180.705882v-180.705882h-49.754353A392.192 392.192 0 0 1 421.647059 2.951529V52.705882h180.705882v-49.754353z m0-61.680941V-128H421.647059v69.270588A452.306824 452.306824 0 0 0 69.270588 293.647059H0V474.352941h69.270588A452.306824 452.306824 0 0 0 421.647059 826.729412V896h180.705882v-69.270588A452.306824 452.306824 0 0 0 954.729412 474.352941H1024v-180.705882h-69.270588A452.306824 452.306824 0 0 0 602.352941-58.729412zM542.117647-7.529412H481.882353v-60.235294h60.235294v60.235294zM61.199059 414.117647H60.235294v-60.235294h60.235294V414.117647h-59.271529zM903.529412 414.117647v-60.235294h60.235294V414.117647h-60.235294zM542.117647 834.800941V835.764706H481.882353v-60.235294h60.235294v59.271529z"  horiz-adv-x="1024" />

    
    <glyph glyph-name="hebingxingzhuang" unicode="&#59168;" d="M436.955429 628.297143c-4.754286 40.155429 23.552 72.630857 65.024 72.630857h19.456c40.667429 0 69.705143-32.402286 64.804571-72.630857l-30.208-250.88c-4.827429-40.155429-41.398857-72.630857-80.822857-72.630857h72.045714c-39.789714 0-75.849143 32.402286-80.603428 72.630857l-29.696 250.88zM512 106.642286a79.213714 79.213714 0 1 0 0 158.500571 79.213714 79.213714 0 0 0 0-158.500571zM512-128A512 512 0 1 0 512 896a512 512 0 0 0 0-1024z m0 73.142857A438.857143 438.857143 0 1 1 512 822.857143a438.857143 438.857143 0 0 1 0-877.714286z"  horiz-adv-x="1024" />

    
    <glyph glyph-name="xing" unicode="&#59169;" d="M998.167233 412.55843l-182.222533-179.37188 46.268297-259.190173c5.335838-32.01503-7.382461-64.760997-28.506534-80.110669-26.898473-28.360346-67.0269-25.802067-93.340623-11.256426l-228.783205 118.704129-229.367954-118.265567c-25.582786-14.107079-68.854242-15.861328-89.612846 6.724619a88.004785 88.004785 0 0 0-32.892154 84.788663l47.657077 258.605424L24.85185 411.242744a88.29716 88.29716 0 0 0-20.831698 87.493129c9.502178 31.43028 35.669714 54.820257 66.369058 59.498252l252.538649 48.461107L436.003775 847.173425A84.057727 84.057727 0 0 0 511.655729 896c32.526686 0 61.910343-19.223637 75.57886-48.899669l113.14901-240.332005 251.296057-46.560671c31.941936-4.897276 58.036378-28.214159 67.684743-59.571346 9.502178-30.772437 1.681155-64.687903-21.197166-88.077879z m-48.607294 66.515245a12.206644 12.206644 0 0 1-10.086927 9.063615l-289.231674 53.650758-8.040305 16.957733-121.189314 257.435925C519.03819 820.567327 515.383506 822.906324 511.655729 822.906324c-3.654684 0-7.455555-2.485185-9.502178-6.943899l-129.010337-274.101283-18.273419-3.435403-272.127754-52.188884c-3.800871-0.584749-7.309368-3.800871-8.917429-8.990522-1.681155-5.335838-0.292375-11.32952 2.631373-14.326361l209.851942-204.662291-3.508496-19.150543-51.019386-276.951937c-0.950218-5.701307 1.169499-11.256426 9.355991-17.981044-2.558279 2.631372 5.993681 2.923747 6.724618 3.362309L511.655729 83.63689l16.811545-8.771241 246.325687-127.840839c1.461874-0.730937 7.455555-1.169499 10.233114 1.096406a14.618735 14.618735 0 0 1 5.116558 13.449236l-52.992915 296.687229 13.668517 13.52233 195.525582 192.30946a15.349672 15.349672 0 0 1 3.143028 14.91111z"  horiz-adv-x="1024" />

    
    <glyph glyph-name="xiamai1" unicode="&#59170;" d="M950.857143 680.594286v-495.177143C950.857143 99.035429 875.666286 18.285714 779.556571 18.285714H456.777143c-47.177143 0-90.843429 27.062857-123.465143 56.905143 0 0-216.868571 225.353143-244.443429 269.092572C40.740571 420.571429 112.64 468.626286 176.128 428.617143c7.826286-4.900571 119.954286-123.392 119.954286-123.392V739.254857c0 32.475429 45.787429 58.733714 81.92 58.733714 36.205714 0 78.774857-26.331429 78.774857-58.733714V837.266286C456.777143 869.668571 505.563429 896 541.696 896s81.334857-26.331429 81.334857-58.733714v-39.131429c0 20.992 23.259429 40.374857 43.52 50.834286 20.187429 10.532571 67.437714 10.532571 87.771429 0 20.187429-10.459429 43.081143-29.842286 43.081143-50.834286v-128.292571c0 32.475429 13.897143 69.412571 73.362285 69.412571S950.857143 713.069714 950.857143 680.594286zM402.285714-128a36.571429 36.571429 0 1 0 0 73.142857h438.857143a36.571429 36.571429 0 1 0 0-73.142857h-438.857143z"  horiz-adv-x="1024" />

    
    <glyph glyph-name="mulu" unicode="&#59171;" d="M2366.62858087 13.211425780000013a370.78857422 370.78857422 0 1 0 0 741.57714844 370.78857422 370.78857422 0 0 0 0-741.57714844z m1235.96191359 0a370.78857422 370.78857422 0 1 0 0 741.57714844 370.78857422 370.78857422 0 0 0 0-741.57714844z m-2471.92382789 0a370.78857422 370.78857422 0 1 0 0 741.57714844 370.78857422 370.78857422 0 0 0 0-741.57714844z"  horiz-adv-x="4437" />

    
    <glyph glyph-name="huamianshezhi" unicode="&#59172;" d="M78.769231 777.846154v-806.596923h1024V777.846154H78.769231z m0 78.769231h1024a78.769231 78.769231 0 0 0 78.769231-78.769231v-806.596923a78.769231 78.769231 0 0 0-78.769231-78.769231H78.769231a78.769231 78.769231 0 0 0-78.769231 78.769231V777.846154a78.769231 78.769231 0 0 0 78.769231 78.769231z m0-236.307693h1024v-78.76923H78.769231v78.76923z m472.615384-281.757538v-167.857231l125.952 83.889231L551.384615 338.550154z m218.742154-116.736l-236.307692-157.538462A39.384615 39.384615 0 0 0 472.615385 97.043692v315.076923a39.384615 39.384615 0 0 0 61.203692 32.84677l236.307692-157.538462a39.384615 39.384615 0 0 0 0-65.614769z"  horiz-adv-x="1181" />

    
    <glyph glyph-name="guankanbuju" unicode="&#59174;" d="M630.153846-28.750769V777.846154h78.769231v-806.596923h393.846154V777.846154H78.769231v-806.596923h551.384615zM78.769231 856.615385h1024a78.769231 78.769231 0 0 0 78.769231-78.769231v-806.596923a78.769231 78.769231 0 0 0-78.769231-78.769231H78.769231a78.769231 78.769231 0 0 0-78.769231 78.769231V777.846154a78.769231 78.769231 0 0 0 78.769231 78.769231z m716.563692-226.855385a39.384615 39.384615 0 0 0 0 78.769231h229.454769a39.384615 39.384615 0 1 0 0-78.769231h-229.454769z m0-107.126154a39.384615 39.384615 0 0 0 0 78.769231h229.454769a39.384615 39.384615 0 1 0 0-78.769231h-229.454769z m0-107.126154a39.384615 39.384615 0 0 0 0 78.769231h229.454769a39.384615 39.384615 0 1 0 0-78.769231h-229.454769z"  horiz-adv-x="1181" />

    
    <glyph glyph-name="meitishezhi1" unicode="&#59175;" d="M398.464 79.68l-39.488-129.92h306.048l-39.488 129.92A416.32 416.32 0 0 0 512 64c-39.36 0-77.44 5.44-113.536 15.68z m-60.16 22.208a416.064 416.064 0 1 0 347.392 0l46.208-152.192h54.4a32 32 0 1 0 0-64H237.696a32 32 0 1 0 0 64h54.4l46.208 152.192zM512 128A352 352 0 1 1 512 832a352 352 0 0 1 0-704z m0 45.696a224 224 0 1 0 0 448 224 224 0 0 0 0-448z m0 64a160 160 0 1 1 0 320 160 160 0 0 1 0-320z m0 406.848a54.848 54.848 0 1 0 0 109.76 54.848 54.848 0 0 0 0-109.76z"  horiz-adv-x="1024" />

    
    <glyph glyph-name="shexiangtou" unicode="&#59176;" d="M364.722532 72.926609c-170.384696 57.811478-287.254261 217.933913-287.254261 400.317217C77.468271 706.715826 267.219923 896 501.315228 896 735.36601 896 925.117663 706.715826 925.117663 473.266087c0-182.605913-117.114435-342.817391-287.744-400.495304l-43.831653-14.82574 45.768348-6.722782c132.34087-19.500522 253.551304-64.823652 333.490087-125.328696a22.26087 22.26087 0 0 0-26.868869-35.506087c-101.732174 77.022609-277.437217 126.73113-447.176348 126.731131-164.685913 0-336.406261-49.530435-440.208696-126.70887a22.26087 22.26087 0 1 0-26.579478 35.728696c81.586087 60.66087 201.527652 105.894957 330.796522 125.239652l45.434434 6.789565-43.497739 14.758957z m136.570435 205.133913c112.90713 0 204.443826 91.314087 204.443826 203.954087 0 112.64-91.536696 203.976348-204.443826 203.976348-112.90713 0-204.443826-91.314087-204.443826-203.976348 0-112.64 91.536696-203.954087 204.443826-203.954087z m0 98.771478a105.293913 105.293913 0 0 0-105.449739 105.182609 105.293913 105.293913 0 0 0 105.449739 105.182608 105.293913 105.293913 0 0 0 105.449739-105.182608 105.293913 105.293913 0 0 0-105.449739-105.182609z m0 70.121739c19.411478 0 35.172174 15.693913 35.172174 35.06087s-15.760696 35.06087-35.172174 35.060869c-19.411478 0-35.149913-15.693913-35.149913-35.060869s15.738435-35.06087 35.172174-35.06087z m228.463304 216.776348a46.235826 46.235826 0 0 1 46.302609 46.191304 46.235826 46.235826 0 0 1-46.302609 46.191305A46.235826 46.235826 0 0 1 683.498184 709.89913c0-25.533217 20.72487-46.191304 46.302609-46.191304z"  horiz-adv-x="1024" />

    
    <glyph glyph-name="guanbi" unicode="&#59173;" d="M486.024753 482.326653L884.415373 880.819608a51.16756 51.16756 0 0 0 72.35093-72.350929L558.478017 409.975723l398.390621-398.39062a51.16756 51.16756 0 1 0-72.35093-72.350929L486.024753 337.624794 87.531797-60.765826a51.16756 51.16756 0 0 0-72.350929 72.350929l398.492955 398.39062L15.078533 808.468679A51.16756 51.16756 0 1 0 87.531797 880.819608l398.492956-398.492955z"  horiz-adv-x="1024" />

    
    <glyph glyph-name="gonggao" unicode="&#59204;" d="M787.692308 344.615385a39.384615 39.384615 0 0 0 0 78.76923h157.538461a39.384615 39.384615 0 1 0 0-78.76923h-157.538461z m83.968 382.424615a39.384615 39.384615 0 0 0 55.532307-55.926154l-111.773538-111.064615a39.384615 39.384615 0 0 0-55.453539 55.926154l111.69477 111.064615z m57.816615-626.215385a39.384615 39.384615 0 1 0-53.878154-57.422769l-114.845538 107.913846a39.384615 39.384615 0 0 0 53.878154 57.344l114.845538-107.835077z m-811.323077 118.153847h138.870154a118.153846 118.153846 0 0 0 75.145846-27.017847l260.096-214.488615V795.490462L332.169846 580.923077a118.153846 118.153846 0 0 0-75.145846-26.939077H118.153846v-335.084308z m138.870154 413.774769a39.384615 39.384615 0 0 1 25.048615 8.979692L542.168615 856.221538a78.769231 78.769231 0 0 0 128.866462-60.731076v-818.018462a78.769231 78.769231 0 0 0-128.866462-60.809846L281.993846 131.150769a39.384615 39.384615 0 0 1-25.048615 8.979693H118.153846a78.769231 78.769231 0 0 0-78.769231 78.76923V553.984a78.769231 78.769231 0 0 0 78.769231 78.769231h138.870154z"  horiz-adv-x="1024" />

    
    <glyph glyph-name="zhuanbo" unicode="&#59177;" d="M1301.740308 64.196923V-49.230769a78.769231 78.769231 0 0 0-78.769231-78.769231h-945.230769a78.769231 78.769231 0 0 0-78.769231 78.769231v104.526769a39.384615 39.384615 0 0 0-37.100308-25.993846 118.153846 118.153846 0 0 0-118.153846 117.208615L39.384615 617.944615a118.153846 118.153846 0 0 0 117.366154 118.941539H157.538462a39.384615 39.384615 0 1 0 0-78.769231 39.384615 39.384615 0 0 1-39.384616-39.542154l4.332308-471.433846a39.384615 39.384615 0 0 1 39.384615-39.069538 39.384615 39.384615 0 0 0 37.021539-25.993847V817.230769a78.769231 78.769231 0 0 0 78.76923 78.769231h945.23077a78.769231 78.769231 0 0 0 78.76923-78.769231v-110.040615a39.384615 39.384615 0 0 0 39.384616 31.113846 118.153846 118.153846 0 0 0 117.366154-118.941538v-468.676924a118.153846 118.153846 0 0 0-118.153846-117.602461 39.384615 39.384615 0 0 0-38.596924 31.113846z m0 16.541539a39.384615 39.384615 0 0 0 38.518154 31.113846 39.384615 39.384615 0 0 1 39.384615 39.148307v468.676923a39.463385 39.463385 0 0 1-39.384615 39.857231 39.384615 39.384615 0 0 0-38.596924 31.192616v-609.988923zM277.740308 817.230769v-866.461538h945.230769V817.230769h-945.230769z m393.846154-248.832v-303.025231l230.163692 148.086154L671.586462 568.32z m290.422153-209.841231l-0.236307-0.236307-267.815385-172.189539a65.378462 65.378462 0 0 0-101.139692 54.665846v352.886154a65.378462 65.378462 0 0 0 101.533538 54.35077l267.657846-180.30277a65.378462 65.378462 0 0 0 0-109.174154z"  horiz-adv-x="1496" />

    
    <glyph glyph-name="wenda1" unicode="&#59178;" d="M512-128A512 512 0 1 0 512 896a512 512 0 0 0 0-1024z m7.314286 731.428571c-48.713143 0-86.601143-14.921143-113.664-44.617142C378.587429 530.285714 365.714286 492.397714 365.714286 445.001143h53.467428c0 33.133714 7.460571 58.88 22.308572 77.824 16.237714 22.308571 41.325714 33.133714 75.117714 33.133714 28.452571 0 50.761143-7.387429 66.340571-23.698286 14.921143-14.848 23.04-35.84 23.04-62.902857 0-19.017143-6.802286-36.571429-20.333714-53.467428a300.032 300.032 0 0 0-22.966857-24.356572c-36.571429-32.475429-58.88-58.221714-68.388571-78.482285a134.582857 134.582857 0 0 1-12.214858-58.88v-15.579429h54.125715v15.579429c0 18.285714 4.096 34.450286 12.873143 49.371428 6.802286 12.214857 16.969143 24.356571 31.817142 37.229714 29.769143 26.331429 48.054857 43.958857 54.857143 52.077715 16.896 22.381714 25.673143 48.786286 25.673143 79.213714 0 40.594286-12.8 72.411429-37.888 95.451429C597.211429 591.945143 562.688 603.428571 519.314286 603.428571z m-10.093715-412.16a38.765714 38.765714 0 0 1-29.110857-11.483428 36.352 36.352 0 0 1-11.556571-28.452572 38.765714 38.765714 0 0 1 11.556571-29.110857c8.045714-7.387429 17.554286-11.483429 29.110857-11.483428a41.472 41.472 0 0 1 29.037715 11.483428 37.302857 37.302857 0 0 1 12.214857 29.110857 38.765714 38.765714 0 0 1-11.483429 28.452572 40.228571 40.228571 0 0 1-29.769143 11.483428z"  horiz-adv-x="1024" />

    
    <glyph glyph-name="xuanzhuan" unicode="&#59179;" d="M870.656 287.232l-2.56-2.56a64 64 0 1 0-91.648 89.344l126.72 130.048a64 64 0 0 0 91.648 0l126.72-130.048a64 64 0 1 0-91.648-89.344l-25.856 26.624a471.296 471.296 0 1 0-136.96 384 64 64 0 1 0-90.112-90.88 343.296 343.296 0 1 1 93.696-317.184z"  horiz-adv-x="1152" />

    
    <glyph glyph-name="guolv" unicode="&#59180;" d="M304.526222 535.324444c30.72-34.360889 52.167111-88.746667 52.167111-132.551111v-366.705777a28.444444 28.444444 0 1 0-56.888889 0V402.716444c0 29.696-16.156444 70.656-38.456888 95.573334L40.561778 766.065778l-3.413334 5.176889c-11.946667 23.381333-11.946667 49.038222 0 66.218666 13.141333 25.713778 31.288889 30.151111 66.56 30.151111h724.366223c28.558222 0 52.053333-8.874667 58.993777-30.151111 11.946667-23.438222 11.946667-49.095111-3.413333-71.395555l-220.16-266.865778c-16.270222-21.276444-29.013333-57.116444-31.232-87.552a217734.542222 217734.542222 0 0 1-0.284444-427.463111v-80.668445a28.444444 28.444444 0 1 0-56.888889 0v80.725334l0.056889 174.307555c0.113778 181.134222 0.170667 254.464 0.398222 257.308445 3.015111 41.073778 19.512889 87.495111 43.463111 118.727111l219.249778 265.614222c1.137778 1.706667 1.137778 5.404444-3.413334 15.132445 1.763556-5.347556-0.113778-4.608-6.826666-4.608H103.708444c-13.368889 0-16.668444-0.796444-17.635555-2.218667-1.024-1.536-1.137778-4.437333 0.682667-8.988445l217.884444-264.078222zM711.111111 355.555556a28.444444 28.444444 0 1 0 0 56.888888h300.145778a28.444444 28.444444 0 1 0 0-56.888888H711.111111z m0-170.666667a28.444444 28.444444 0 1 0 0 56.888889h300.145778a28.444444 28.444444 0 1 0 0-56.888889H711.111111z m0-170.666667a28.444444 28.444444 0 1 0 0 56.888889h300.145778a28.444444 28.444444 0 1 0 0-56.888889H711.111111z"  horiz-adv-x="1080" />

    
    <glyph glyph-name="kejianzhunbeizhong" unicode="&#59181;" d="M748.913564 496.031759C680.328662 518.105504 631.338346 582.725293 631.338346 658.054737V734.315789h-46.195489a15.398496 15.398496 0 0 0-15.398496 15.398497v38.49624a15.398496 15.398496 0 0 0 15.398496 15.398497h423.458647a15.398496 15.398496 0 0 0 15.398496-15.398497v-38.49624a15.398496 15.398496 0 0 0-15.398496-15.398497h-38.496241v-76.261052c0-75.360241-49.013414-139.956932-117.575218-162.022978C921.114947 473.958015 970.105263 409.338226 970.105263 334.016481V256.962406h38.496241a15.398496 15.398496 0 0 0 15.398496-15.398496v-38.496241a15.398496 15.398496 0 0 0-15.398496-15.398496H585.142857a15.398496 15.398496 0 0 0-15.398496 15.398496v38.496241a15.398496 15.398496 0 0 0 15.398496 15.398496h46.195489V334.016481c0 75.360241 49.013414 139.949233 117.575218 162.015278z m39.882105 6.113203a7.699248 7.699248 0 0 0-3.364571-14.166616C707.037353 480.217504 646.736842 413.749895 646.736842 334.016481V256.962406h307.969925V334.016481c0 79.317654-59.692271 145.561985-137.570165 153.846376a7.668451 7.668451 0 0 0-4.480963 2.063399 7.699248 7.699248 0 0 0 3.356872 14.166616C894.406256 511.853714 954.706767 578.313624 954.706767 658.054737V734.315789H646.736842v-76.261052c0-79.317654 59.692271-145.561985 137.570166-153.846376a7.668451 7.668451 0 0 0 4.480962-2.063399z m526.713263 350.31579V888.685714c0 4.034406 3.218286 7.306586 7.260391 7.306587 4.003609 0 7.252692-3.264481 7.252692-7.306587v-36.232661h36.232662c4.034406 0 7.314286-3.225985 7.314285-7.260391 0-4.003609-3.27218-7.252692-7.314285-7.252692h-36.232662v-36.232662a7.260391 7.260391 0 0 0-7.252692-7.314285 7.275789 7.275789 0 0 0-7.260391 7.314285V837.947669h-36.232661a7.260391 7.260391 0 0 0-7.314286 7.252692c0 4.003609 3.27218 7.260391 7.314286 7.260391h36.232661zM190.710376 511.391759v21.804271c0 3.988211 3.218286 7.221895 7.260391 7.221895 4.003609 0 7.252692-3.310677 7.252692-7.221895v-21.804271h21.80427c3.988211 0 7.221895-3.218286 7.221895-7.260391 0-4.003609-3.310677-7.252692-7.221895-7.252691h-21.80427v-21.804271a7.221895 7.221895 0 0 0-7.252692-7.221895 7.283489 7.283489 0 0 0-7.260391 7.221895v21.804271h-21.804271a7.221895 7.221895 0 0 0-7.221894 7.252691c0 4.011308 3.310677 7.260391 7.221894 7.260391h21.804271z m1190.111278-72.565413v21.804271c0 3.988211 3.218286 7.221895 7.252692 7.221894 4.003609 0 7.260391-3.310677 7.260391-7.221894v-21.804271h21.804271c3.988211 0 7.221895-3.225985 7.221894-7.260391 0-4.003609-3.310677-7.252692-7.221894-7.252692h-21.804271v-21.804271a7.221895 7.221895 0 0 0-7.260391-7.221894 7.283489 7.283489 0 0 0-7.252692 7.221894v21.804271h-21.804271a7.221895 7.221895 0 0 0-7.221894 7.252692c0 4.003609 3.310677 7.260391 7.221894 7.260391h21.804271zM302.195489 25.984962a15.398496 15.398496 0 1 0 0 30.796993 15.398496 15.398496 0 0 0 0-30.796993zM7.699248-45.233083a7.699248 7.699248 0 1 0 0 15.398497h192.481203a7.699248 7.699248 0 1 0 0-15.398497H7.699248z m827.669173 0a7.699248 7.699248 0 1 0 0 15.398497h192.481203a7.699248 7.699248 0 1 0 0-15.398497h-192.481203z m-558.195489 0a7.699248 7.699248 0 1 0 0 15.398497h288.721805a7.699248 7.699248 0 1 0 0-15.398497H277.172932z m827.669173 0a7.699248 7.699248 0 1 0 0 15.398497H1586.045113a7.699248 7.699248 0 1 0 0-15.398497h-481.203008z m-442.706767 0a7.699248 7.699248 0 1 0 0 15.398497h96.240602a7.699248 7.699248 0 1 0 0-15.398497H662.135338z m-96.240601-76.992481a7.699248 7.699248 0 1 0 0 15.398496h384.962406a7.699248 7.699248 0 1 0 0-15.398496h-384.962406z m461.954887 0a7.699248 7.699248 0 1 0 0 15.398496h9.62406a7.699248 7.699248 0 1 0 0-15.398496h-9.62406zM585.142857 788.210526v-38.49624h423.458647v38.49624H585.142857z m0-546.646616v-38.496241h423.458647v38.496241H585.142857z m231.685775 288.921985a7.699248 7.699248 0 0 0-1.416662 15.329203C872.486496 551.081383 916.210526 595.991098 916.210526 649.62406a7.699248 7.699248 0 1 0 15.398497 0c0-61.817263-49.998917-113.163549-114.780391-119.138165zM931.609023 676.571429a7.699248 7.699248 0 1 0-15.398497 0v27.501714a7.699248 7.699248 0 1 0 15.398497 0V676.571429z"  horiz-adv-x="1593" />

    
    <glyph glyph-name="zanwuwendang" unicode="&#59182;" d="M1380.821654 438.818647v21.81197c0 3.988211 3.218286 7.221895 7.252692 7.221894 4.003609 0 7.260391-3.310677 7.260391-7.221894v-21.804271h21.804271c3.988211 0 7.221895-3.225985 7.221894-7.260391 0-4.003609-3.310677-7.252692-7.221894-7.252692h-21.804271v-21.804271a7.221895 7.221895 0 0 0-7.260391-7.221894 7.283489 7.283489 0 0 0-7.252692 7.221894v21.804271h-21.804271a7.221895 7.221895 0 0 0-7.221894 7.252692c0 4.003609 3.310677 7.260391 7.221894 7.260391h21.804271zM190.710376 511.399459v21.80427c0 3.988211 3.218286 7.221895 7.260391 7.221895 4.003609 0 7.252692-3.310677 7.252692-7.221895v-21.80427h21.80427c3.988211 0 7.221895-3.218286 7.221895-7.260391 0-4.003609-3.310677-7.252692-7.221895-7.252692h-21.80427v-21.804271a7.221895 7.221895 0 0 0-7.252692-7.221894 7.283489 7.283489 0 0 0-7.260391 7.221894v21.804271h-21.804271a7.221895 7.221895 0 0 0-7.221894 7.252692c0 4.011308 3.310677 7.260391 7.221894 7.260391h21.804271zM1315.508932 852.460752V888.685714c0 4.034406 3.218286 7.306586 7.260391 7.306587 4.003609 0 7.252692-3.264481 7.252692-7.306587v-36.232661h36.232662c4.034406 0 7.314286-3.225985 7.314285-7.260391 0-4.003609-3.27218-7.252692-7.314285-7.252692h-36.232662v-36.232662a7.260391 7.260391 0 0 0-7.252692-7.314285 7.275789 7.275789 0 0 0-7.260391 7.314285V837.947669h-36.232661a7.260391 7.260391 0 0 0-7.314286 7.252692c0 4.003609 3.27218 7.260391 7.314286 7.260391h36.232661zM447.210827 529.354105a23.251729 23.251729 0 0 0 7.768541 1.324271h56.651068v62.648782c0 25.523008 20.664782 46.203188 46.164692 46.203188h488.217022a46.156992 46.156992 0 0 0 46.164692-46.195489v-62.656481h56.651068c2.725534 0 5.343278-0.461955 7.77624-1.33197V775.699248c0 8.469173-6.875429 15.336902-15.3523 15.336902h-238.653594c-7.599158 0-19.017143-6.028511-23.274827-12.295699l-31.867188-46.89612c-7.668451-11.287098-23.197835-19.479098-36.840903-19.479098H462.586226a15.398496 15.398496 0 0 1-15.375399-15.383098V529.361805z m0-316.20812c0-8.507669 6.898526-15.398496 15.46009-15.398496h678.465444a15.390797 15.390797 0 0 1 15.467789 15.344601V507.557534c0 4.273083-3.464662 7.722346-7.77624 7.722346h-693.856241c-4.319278 0-7.760842-3.441564-7.760842-7.722346v-294.419248z m724.79182-0.053895v-7.614556a23.113143 23.113143 0 0 0-23.174737-23.120842h-693.856241a23.128541 23.128541 0 0 0-23.159338 23.120842V696.982135a30.796992 30.796992 0 0 0 30.773895 30.789294h348.029112c8.538466 0 19.302015 5.658947 24.098647 12.726857l31.874887 46.888421c7.144902 10.524872 23.34412 19.04794 36.009384 19.04794h238.653594a30.743098 30.743098 0 0 0 30.750797-30.735399v-562.607158z m-95.224301 318.471699v61.763369c0 17.038436-13.766256 30.804692-30.766196 30.804692H557.795128a30.781594 30.781594 0 0 1-30.766196-30.796993v-61.771068h549.749414zM302.195489 25.984962a15.398496 15.398496 0 1 0 0 30.796993 15.398496 15.398496 0 0 0 0-30.796993zM7.699248-45.233083a7.699248 7.699248 0 1 0 0 15.398497h192.481203a7.699248 7.699248 0 1 0 0-15.398497H7.699248z m827.669173 0a7.699248 7.699248 0 1 0 0 15.398497h192.481203a7.699248 7.699248 0 1 0 0-15.398497h-192.481203z m-558.195489 0a7.699248 7.699248 0 1 0 0 15.398497h288.721805a7.699248 7.699248 0 1 0 0-15.398497H277.172932z m827.669173 0a7.699248 7.699248 0 1 0 0 15.398497H1586.045113a7.699248 7.699248 0 1 0 0-15.398497h-481.203008z m-442.706767 0a7.699248 7.699248 0 1 0 0 15.398497h96.240602a7.699248 7.699248 0 1 0 0-15.398497H662.135338z m-96.240601-76.992481a7.699248 7.699248 0 1 0 0 15.398496h384.962406a7.699248 7.699248 0 1 0 0-15.398496h-384.962406z m461.954887 0a7.699248 7.699248 0 1 0 0 15.398496h9.62406a7.699248 7.699248 0 1 0 0-15.398496h-9.62406z"  horiz-adv-x="1593" />

    
    <glyph glyph-name="zhibojieshu" unicode="&#59183;" d="M1373.090909 407.272727v23.311515c0 4.266667 3.444364 7.718788 7.757576 7.718788 4.282182 0 7.757576-3.537455 7.757576-7.718788V407.272727h23.311515c4.266667 0 7.718788-3.444364 7.718788-7.757575 0-4.282182-3.537455-7.757576-7.718788-7.757576H1388.606061v-23.311515c0-4.266667-3.444364-7.718788-7.757576-7.718788-4.282182 0-7.757576 3.537455-7.757576 7.718788V391.757576h-23.311515a7.718788 7.718788 0 0 0-7.718788 7.757576c0 4.282182 3.537455 7.757576 7.718788 7.757575H1373.090909zM333.575758 484.848485v23.311515c0 4.266667 3.444364 7.718788 7.757575 7.718788 4.282182 0 7.757576-3.537455 7.757576-7.718788V484.848485h23.311515c4.266667 0 7.718788-3.444364 7.718788-7.757576 0-4.282182-3.537455-7.757576-7.718788-7.757576H349.090909v-23.311515c0-4.266667-3.444364-7.718788-7.757576-7.718788-4.282182 0-7.757576 3.537455-7.757575 7.718788V469.333333h-23.311516A7.718788 7.718788 0 0 0 302.545455 477.090909c0 4.282182 3.537455 7.757576 7.718787 7.757576H333.575758zM1303.272727 849.454545V888.188121C1303.272727 892.509091 1306.717091 896 1311.030303 896c4.282182 0 7.757576-3.490909 7.757576-7.811879V849.454545h38.733576c4.313212 0 7.811879-3.444364 7.811878-7.757575 0-4.282182-3.490909-7.757576-7.811878-7.757576H1318.787879v-38.733576c0-4.313212-3.444364-7.811879-7.757576-7.811879-4.282182 0-7.757576 3.490909-7.757576 7.811879V833.939394h-38.733575A7.765333 7.765333 0 0 0 1256.727273 841.69697c0 4.282182 3.490909 7.757576 7.811879 7.757575H1303.272727zM504.242424 508.121212h527.515152V585.69697c0 8.533333-6.974061 15.515152-15.515152 15.515151H519.757576c-8.533333 0-15.515152-6.966303-15.515152-15.515151v-77.575758z m0-15.515151v-271.515152c0-8.533333 6.974061-15.515152 15.515152-15.515151h496.484848c8.533333 0 15.515152 6.966303 15.515152 15.515151V492.606061H504.242424z m-199.757576-465.454546a15.515152 15.515152 0 1 0 0 31.030303 15.515152 15.515152 0 0 0 0-31.030303zM7.757576-44.606061a7.757576 7.757576 0 1 0 0 15.515152h193.939394a7.757576 7.757576 0 1 0 0-15.515152H7.757576z m833.939394 0a7.757576 7.757576 0 1 0 0 15.515152h193.939394a7.757576 7.757576 0 1 0 0-15.515152h-193.939394z m-562.424243 0a7.757576 7.757576 0 1 0 0 15.515152h290.909091a7.757576 7.757576 0 1 0 0-15.515152H279.272727z m833.939394 0a7.757576 7.757576 0 1 0 0 15.515152H1598.060606a7.757576 7.757576 0 1 0 0-15.515152h-484.848485z m-446.060606 0a7.757576 7.757576 0 1 0 0 15.515152h96.969697a7.757576 7.757576 0 1 0 0-15.515152H667.151515z m-96.969697-77.575757a7.757576 7.757576 0 1 0 0 15.515151h387.878788a7.757576 7.757576 0 1 0 0-15.515151h-387.878788z m465.454546 0a7.757576 7.757576 0 1 0 0 15.515151h9.696969a7.757576 7.757576 0 1 0 0-15.515151h-9.696969zM488.727273 585.69697c0 17.144242 13.948121 31.030303 31.030303 31.030303h496.484848c17.144242 0 31.030303-13.955879 31.030303-31.030303v-364.606061c0-17.144242-13.948121-31.030303-31.030303-31.030303H519.757576c-17.144242 0-31.030303 13.955879-31.030303 31.030303V585.69697z m212.092121 33.947151c-65.605818 0-118.784 53.185939-118.784 118.784C582.035394 804.033939 635.213576 857.212121 700.811636 857.212121c65.605818 0 118.784-53.178182 118.784-118.784 0-65.598061-53.178182-118.784-118.784-118.784z m0 15.515152c57.025939 0 103.261091 46.235152 103.261091 103.268848C804.080485 795.461818 757.845333 841.69697 700.819394 841.69697c-57.033697 0-103.261091-46.235152-103.261091-103.268849 0-57.033697 46.235152-103.268848 103.261091-103.268848z m187.888485-6.974061a67.537455 67.537455 0 1 0 0 135.082667 67.537455 67.537455 0 0 0 0-135.082667z m0 15.515152a52.022303 52.022303 0 1 1 0 104.052363 52.022303 52.022303 0 0 1 0-104.052363zM1194.666667 262.849939V520.029091c0 5.228606 0.79903 4.763152-3.708122 2.187636l-99.196121-56.707879c-2.668606-1.520485-5.701818-6.749091-5.701818-9.774545v-120.630303c0-3.258182 3.126303-8.921212 5.880242-10.643394l100.227879-63.014788c0.876606-0.54303 1.652364-0.954182 2.311758-1.233454 0.116364 0.713697 0.186182 1.598061 0.186182 2.637575z m-124.121212 192.892122c0 8.572121 5.996606 18.944 13.513697 23.241697l99.196121 56.707878c14.871273 8.494545 26.926545 1.466182 26.926545-15.662545v-257.179152c0-17.144242-11.791515-23.637333-26.267151-14.537697l-100.227879 63.014788c-7.261091 4.561455-13.141333 15.166061-13.141333 23.77697v120.630303z"  horiz-adv-x="1605" />

    


  </font>
</defs>
</svg>
