<?xml version="1.0" encoding="UTF-8"?>
<svg width="24px" height="24px" viewBox="0 0 24 24" version="1.1" xmlns="http://www.w3.org/2000/svg" xmlns:xlink="http://www.w3.org/1999/xlink">
    <title>icon-无延迟</title>
    <g id="icon-无延迟" stroke="none" stroke-width="1" fill="none" fill-rule="evenodd">
        <path d="M3.58692965,12.2592986 L3.52331541,12.3294725 C3.25843734,12.6709423 3.43717376,13.1936576 3.88216761,13.2827844 L9.658,14.439 L7.10588322,22.8252388 C6.92637029,23.41483 7.64593626,23.8594716 8.09293834,23.4351699 L20.4130704,11.7407014 L20.4766846,11.6705275 C20.7415627,11.3290577 20.5628262,10.8063424 20.1178324,10.7172156 L14.341,9.56 L16.8941168,1.17476123 C17.0736297,0.585169998 16.3540637,0.140528448 15.9070617,0.564830052 L3.58692965,12.2592986 Z M15.083,3.001 L13.0002727,9.84377338 L12.9797851,9.93642426 C12.9366329,10.2450074 13.1403878,10.5435521 13.456425,10.6068504 L18.748,11.666 L8.916,20.998 L10.9997273,14.1562266 L11.0202149,14.0635757 C11.0633671,13.7549926 10.8596122,13.4564479 10.543575,13.3931496 L5.251,12.333 L15.083,3.001 Z" fill="#666666" fill-rule="nonzero"></path>
    </g>
</svg>