<?xml version="1.0" encoding="UTF-8"?>
<svg width="24px" height="24px" viewBox="0 0 24 24" version="1.1" xmlns="http://www.w3.org/2000/svg" xmlns:xlink="http://www.w3.org/1999/xlink">
    <title>icon-常规</title>
    <g id="icon-常规" stroke="none" stroke-width="1" fill="none" fill-rule="evenodd">
        <path d="M11.6,2.4 C16.5640149,2.4 20.6480477,6.16765138 21.1484747,10.9993304 L22.1678584,11 C22.3887723,11 22.5678584,11.1790861 22.5678584,11.4 C22.5678584,11.4935746 22.5350519,11.5841878 22.4751469,11.6560738 L20.8291635,13.6312538 C20.6877379,13.8009645 20.435512,13.8238942 20.2658012,13.6824685 C20.247216,13.6669808 20.2300742,13.649839 20.2145865,13.6312538 L18.5686031,11.6560738 C18.4271775,11.486363 18.4501071,11.2341371 18.6198179,11.0927115 C18.6917039,11.0328065 18.782317,11 18.8758916,11 L19.941076,10.9998443 C19.4466173,6.83211439 15.900759,3.6 11.6,3.6 C6.9608081,3.6 3.2,7.3608081 3.2,12 C3.2,16.6391919 6.9608081,20.4 11.6,20.4 C13.6912568,20.4 15.661762,19.6337049 17.1903418,18.2697373 C17.4375909,18.0491143 17.8168762,18.0706991 18.0374992,18.3179482 C18.2581222,18.5651974 18.2365374,18.9444827 17.9892883,19.1651057 C16.2429009,20.7234252 13.9888149,21.6 11.6,21.6 C6.2980664,21.6 2,17.3019336 2,12 C2,6.6980664 6.2980664,2.4 11.6,2.4 Z M10.6,7.9 C10.8982338,7.9 11.1456468,8.11758961 11.192147,8.40267688 L11.2,8.5 L11.199,12.4 L15.0667969,12.4 C15.3650306,12.4 15.6124436,12.6175896 15.6589439,12.9026769 L15.6667969,13 C15.6667969,13.2982338 15.4492073,13.5456468 15.16412,13.592147 L15.0667969,13.6 L10.6,13.6 C10.3017662,13.6 10.0543532,13.3824104 10.007853,13.0973231 L10,13 L10,8.5 C10,8.16862915 10.2686292,7.9 10.6,7.9 Z" fill="#666666" fill-rule="nonzero"></path>
    </g>
</svg>