<?xml version="1.0" standalone="no"?><!DOCTYPE svg PUBLIC "-//W3C//DTD SVG 1.1//EN" "http://www.w3.org/Graphics/SVG/1.1/DTD/svg11.dtd"><svg t="1560841207461" class="icon" style="" viewBox="0 0 1075 1024" version="1.1" xmlns="http://www.w3.org/2000/svg" p-id="2203" xmlns:xlink="http://www.w3.org/1999/xlink" width="209.9609375" height="200"><defs><style type="text/css"></style></defs><path d="M76.8 51.2a25.6 25.6 0 0 0-25.6 25.6v716.8a25.6 25.6 0 0 0 25.6 25.6h921.6a25.6 25.6 0 0 0 25.6-25.6v-716.8a25.6 25.6 0 0 0-25.6-25.6h-921.6z m0-51.2h921.6A76.8 76.8 0 0 1 1075.2 76.8v716.8a76.8 76.8 0 0 1-76.8 76.8h-921.6A76.8 76.8 0 0 1 0 793.6v-716.8A76.8 76.8 0 0 1 76.8 0z" p-id="2204" fill="#ffffff"></path><path d="M588.8 343.552c-179.2512 25.6512-256.0512 143.0016-281.6 271.0016 64-89.6 153.6-140.2368 281.6-140.2368v52.736a25.6 25.6 0 0 0 43.6736 18.1248l117.4016-117.4016a25.6 25.6 0 0 0 0-36.2496l-117.4016-117.4016a25.6 25.6 0 0 0-43.7248 18.0736v51.4048z" p-id="2205" fill="#ffffff"></path><path d="M256 998.4a25.6 25.6 0 1 1 0-51.2h460.8a25.6 25.6 0 1 1 0 51.2H256z" p-id="2206" fill="#ffffff"></path></svg>