<?xml version="1.0" standalone="no"?><!DOCTYPE svg PUBLIC "-//W3C//DTD SVG 1.1//EN" "http://www.w3.org/Graphics/SVG/1.1/DTD/svg11.dtd"><svg t="1560841367458" class="icon" style="" viewBox="0 0 1024 1024" version="1.1" xmlns="http://www.w3.org/2000/svg" p-id="3173" xmlns:xlink="http://www.w3.org/1999/xlink" width="200" height="200"><defs><style type="text/css"></style></defs><path d="M466.7525 336.855117L494.020582 280.325042l29.100324 56.152848a161.668469 161.668469 0 1 1-56.368406 0.377227zM495.852825 900.054174a404.171173 404.171173 0 1 1 0-808.342346 404.171173 404.171173 0 0 1 0 808.342346z m0-53.88949a350.281683 350.281683 0 1 0 0-700.563366 350.281683 350.281683 0 0 0 0 700.563366z m0-242.502704a107.778979 107.778979 0 1 0 0-215.557959 107.778979 107.778979 0 0 0 0 215.557959z m221.647471 371.837479a26.944745 26.944745 0 1 1-23.28026-48.608319 513.890174 513.890174 0 0 0 256.244524-276.183635 26.944745 26.944745 0 1 1 50.225004 19.561885 567.779664 567.779664 0 0 1-283.189268 305.17618zM295.922818 2.309165a26.944745 26.944745 0 0 1 21.555796 49.362772A513.890174 513.890174 0 0 0 51.803429 318.802138a26.944745 26.944745 0 0 1-49.57833-21.286349A567.779664 567.779664 0 0 1 295.922818 2.363054z" p-id="3174" fill="#ffffff"></path></svg>