<?xml version="1.0" standalone="no"?><!DOCTYPE svg PUBLIC "-//W3C//DTD SVG 1.1//EN" "http://www.w3.org/Graphics/SVG/1.1/DTD/svg11.dtd"><svg t="1560841316407" class="icon" style="" viewBox="0 0 1024 1024" version="1.1" xmlns="http://www.w3.org/2000/svg" p-id="2863" xmlns:xlink="http://www.w3.org/1999/xlink" width="200" height="200"><defs><style type="text/css"></style></defs><path d="M630.705231 78.769231a39.384615 39.384615 0 0 1 0-78.769231h294.360615a39.384615 39.384615 0 0 1 39.384616 39.384615v296.01477a39.384615 39.384615 0 0 1-78.769231 0V78.769231H630.705231z" p-id="2864" fill="#ffffff"></path><path d="M887.965538 24.103385a39.384615 39.384615 0 1 1 55.532308 55.926153l-343.04 341.07077a39.384615 39.384615 0 1 1-55.532308-55.768616L887.965538 24.103385zM334.532923 886.311385a39.384615 39.384615 0 0 1 0 78.76923H39.384615a39.384615 39.384615 0 0 1-39.384615-39.384615v-295.384615a39.384615 39.384615 0 1 1 78.769231 0v256h255.763692z" p-id="2865" fill="#ffffff"></path><path d="M365.410462 543.665231a39.384615 39.384615 0 0 1 55.689846 55.689846l-329.412923 330.043077a39.384615 39.384615 0 0 1-55.689847-55.689846l329.412924-330.043077z" p-id="2866" fill="#ffffff"></path></svg>