<?xml version="1.0" standalone="no"?><!DOCTYPE svg PUBLIC "-//W3C//DTD SVG 1.1//EN" "http://www.w3.org/Graphics/SVG/1.1/DTD/svg11.dtd"><svg t="1560841042178" class="icon" style="" viewBox="0 0 1072 1024" version="1.1" xmlns="http://www.w3.org/2000/svg" p-id="2048" data-spm-anchor-id="a313x.7781069.0.i1" xmlns:xlink="http://www.w3.org/1999/xlink" width="209.375" height="200"><defs><style type="text/css"></style></defs><path d="M48.761905 195.047619v780.190476h780.190476V195.047619H48.761905z m0-48.761905h780.190476a48.761905 48.761905 0 0 1 48.761905 48.761905v780.190476a48.761905 48.761905 0 0 1-48.761905 48.761905H48.761905a48.761905 48.761905 0 0 1-48.761905-48.761905V195.047619a48.761905 48.761905 0 0 1 48.761905-48.761905z" p-id="2049" fill="#ffffff"></path><path d="M194.950095 100.352a24.380952 24.380952 0 1 1-48.761905-1.852952l0.975239-25.356191a73.142857 73.142857 0 0 1 73.142857-73.142857h731.233524a73.142857 73.142857 0 0 1 73.142857 73.142857v779.361524c0 40.423619-32.719238 73.142857-71.68 73.142857l-21.308953 1.219048a24.380952 24.380952 0 1 1-2.876952-48.664381l22.723048-1.316572a24.380952 24.380952 0 0 0 24.380952-24.380952V73.191619a24.380952 24.380952 0 0 0-24.380952-24.380952H220.40381c-13.507048 0-24.380952 10.922667-24.380953 25.307428l-1.024 26.233905z" p-id="2050" fill="#ffffff"></path></svg>