<?xml version="1.0" standalone="no"?><!DOCTYPE svg PUBLIC "-//W3C//DTD SVG 1.1//EN" "http://www.w3.org/Graphics/SVG/1.1/DTD/svg11.dtd"><svg t="1560841884521" class="icon" style="" viewBox="0 0 1077 1024" version="1.1" xmlns="http://www.w3.org/2000/svg" p-id="2856" xmlns:xlink="http://www.w3.org/1999/xlink" width="210.3515625" height="200"><defs><style type="text/css"></style></defs><path d="M969.776791 93.135005l-535.710865 535.710864a26.947227 26.947227 0 0 1-38.103378-38.157273L967.621013 19.084026a27.001121 27.001121 0 0 1 4.8505-3.880401 26.947227 26.947227 0 0 1 51.199731 11.748991v377.261172a26.947227 26.947227 0 1 1-53.894453 0V93.135005z m2.533039 554.466134a26.947227 26.947227 0 1 1 53.894453 0v241.878306a80.84168 80.84168 0 0 1-80.84168 80.84168H80.84168a80.84168 80.84168 0 0 1-80.84168-80.84168V82.140536a80.84168 80.84168 0 0 1 80.84168-80.84168h301.916727a26.947227 26.947227 0 0 1 0 53.894454H80.84168a26.947227 26.947227 0 0 0-26.947227 26.947226v807.338909a26.947227 26.947227 0 0 0 26.947227 26.947226h864.520923a26.947227 26.947227 0 0 0 26.947227-26.947226v-241.878306zM619.462845 0.005389h377.261172a26.947227 26.947227 0 1 1 0 53.894454h-377.261172a26.947227 26.947227 0 1 1 0-53.894454z" p-id="2857" fill="#ffffff"></path></svg>