<?xml version="1.0" standalone="no"?><!DOCTYPE svg PUBLIC "-//W3C//DTD SVG 1.1//EN" "http://www.w3.org/Graphics/SVG/1.1/DTD/svg11.dtd"><svg t="1560841350008" class="icon" style="" viewBox="0 0 1024 1024" version="1.1" xmlns="http://www.w3.org/2000/svg" p-id="3019" xmlns:xlink="http://www.w3.org/1999/xlink" width="200" height="200"><defs><style type="text/css"></style></defs><path d="M682.765026 830.303586H958.042599V63.869507H63.869507v766.434079h276.299485L510.956053 952.933039l171.808973-122.629453zM63.869507 0h894.173092a63.869507 63.869507 0 0 1 63.869507 63.869507v766.434079a63.869507 63.869507 0 0 1-63.869507 63.869507h-254.839331l-173.661189 123.970712a31.934753 31.934753 0 0 1-37.172053 0L319.603011 894.173093H63.869507a63.869507 63.869507 0 0 1-63.869507-63.869507V63.869507a63.869507 63.869507 0 0 1 63.869507-63.869507z m447.086546 702.564573a31.934753 31.934753 0 1 1 0 63.869506 31.934753 31.934753 0 0 1 0-63.869506z m32.828926-78.878841a31.934753 31.934753 0 0 1-63.869506 0c0-61.634074 25.739411-104.682121 75.04667-120.521759A127.739013 127.739013 0 1 0 383.21704 383.21704a31.934753 31.934753 0 0 1-63.869507 0 191.60852 191.60852 0 1 1 256.436069 180.367486c-21.651763 6.961776-31.934753 24.270413-31.934753 60.037337z" p-id="3020" fill="#ffffff"></path></svg>