<?xml version="1.0" standalone="no"?><!DOCTYPE svg PUBLIC "-//W3C//DTD SVG 1.1//EN" "http://www.w3.org/Graphics/SVG/1.1/DTD/svg11.dtd"><svg t="1560863285906" class="icon" style="" viewBox="0 0 1024 1024" version="1.1" xmlns="http://www.w3.org/2000/svg" p-id="1918" xmlns:xlink="http://www.w3.org/1999/xlink" width="200" height="200"><defs><style type="text/css"></style></defs><path d="M512 972.8a460.8 460.8 0 1 0 0-921.6 460.8 460.8 0 0 0 0 921.6z m0 51.2C229.2224 1024 0 794.7776 0 512S229.2224 0 512 0s512 229.2224 512 512-229.2224 512-512 512z m-0.6656-221.4912A296.3456 296.3456 0 0 1 276.48 688.0256a33.0752 33.0752 0 1 1 52.1216-40.8064 230.5024 230.5024 0 0 0 182.6816 89.088 230.2976 230.2976 0 0 0 183.808-90.624 33.0752 33.0752 0 1 1 52.5312 40.3456 296.0896 296.0896 0 0 1-236.3392 116.48z m-141.7728-325.12a46.1824 46.1824 0 0 1-46.1824-46.1824V369.5616a46.1824 46.1824 0 1 1 92.416 0v61.6448a46.2336 46.2336 0 0 1-46.2336 46.1824z m269.4656 0a46.1824 46.1824 0 0 1-46.1824-46.1824V369.5616a46.1824 46.1824 0 1 1 92.416 0v61.6448a46.2336 46.2336 0 0 1-46.2336 46.1824z" p-id="1919" fill="#515151"></path></svg>