<?xml version="1.0" standalone="no"?><!DOCTYPE svg PUBLIC "-//W3C//DTD SVG 1.1//EN" "http://www.w3.org/Graphics/SVG/1.1/DTD/svg11.dtd"><svg t="1560841435415" class="icon" style="" viewBox="0 0 1024 1024" version="1.1" xmlns="http://www.w3.org/2000/svg" p-id="3327" xmlns:xlink="http://www.w3.org/1999/xlink" width="200" height="200"><defs><style type="text/css"></style></defs><path d="M667.584 346.496c82.688-16.704 148.48-45.12 228.416-96.768V64H128v189.184c52.928 34.368 89.28 52.352 142.08 70.08 28.352 9.6 57.216 17.344 86.336 23.296a160.064 160.064 0 0 1 311.168 0z m2.112 64.832a160 160 0 0 1-315.392 0A783.296 783.296 0 0 1 249.6 384 596.48 596.48 0 0 1 128 328.576V960h768V324.992c-75.264 44.672-143.04 70.592-226.304 86.336zM128 0h768a64 64 0 0 1 64 64v896a64 64 0 0 1-64 64H128a64 64 0 0 1-64-64V64a64 64 0 0 1 64-64z m384 480a96 96 0 1 0 0-192 96 96 0 0 0 0 192z" p-id="3328" fill="#ffffff"></path></svg>