<?xml version="1.0" standalone="no"?><!DOCTYPE svg PUBLIC "-//W3C//DTD SVG 1.1//EN" "http://www.w3.org/Graphics/SVG/1.1/DTD/svg11.dtd"><svg t="1560841475764" class="icon" style="" viewBox="0 0 1024 1024" version="1.1" xmlns="http://www.w3.org/2000/svg" p-id="3481" xmlns:xlink="http://www.w3.org/1999/xlink" width="200" height="200"><defs><style type="text/css"></style></defs><path d="M782.757647 100.713412V210.823529a30.117647 30.117647 0 0 0 30.117647 30.057412h90.533647V224.075294l-120.651294-123.482353z m-60.235294-40.478118H120.470588v903.288471h511.759059a30.117647 30.117647 0 1 1 0 60.235294H120.470588a60.235294 60.235294 0 0 1-60.235294-60.235294V60.235294a60.235294 60.235294 0 0 1 60.235294-60.235294h648.07153l195.102117 199.619765v553.140706a30.117647 30.117647 0 1 1-60.235294 0V300.935529h-90.533647c-49.935059 0-90.352941-40.357647-90.352941-90.112V60.235294zM807.152941 830.584471l124.687059 124.626823a30.117647 30.117647 0 0 1-42.646588 42.586353l-125.590588-125.590588a180.705882 180.705882 0 1 1 43.550117-41.622588z m-144.865882 12.468705a120.470588 120.470588 0 1 0 0-240.941176 120.470588 120.470588 0 0 0 0 240.941176z m-391.529412-662.588235h361.411765a30.117647 30.117647 0 0 1 0 60.235294h-361.411765a30.117647 30.117647 0 1 1 0-60.235294z m0 180.705883h361.411765a30.117647 30.117647 0 0 1 0 60.235294h-361.411765a30.117647 30.117647 0 1 1 0-60.235294z m0 180.705882h120.470588a30.117647 30.117647 0 0 1 0 60.235294h-120.470588a30.117647 30.117647 0 1 1 0-60.235294z" p-id="3482" fill="#ffffff"></path></svg>