<?xml version="1.0" standalone="no"?><!DOCTYPE svg PUBLIC "-//W3C//DTD SVG 1.1//EN" "http://www.w3.org/Graphics/SVG/1.1/DTD/svg11.dtd"><svg t="1560841295045" class="icon" style="" viewBox="0 0 1121 1024" version="1.1" xmlns="http://www.w3.org/2000/svg" p-id="2669" xmlns:xlink="http://www.w3.org/1999/xlink" width="218.9453125" height="200"><defs><style type="text/css"></style></defs><path d="M202.264381 927.305143a24.380952 24.380952 0 1 1 0 48.761905H123.367619c-40.472381 0-73.48419-32.475429-73.630476-72.752762L47.689143 121.904762A72.94781 72.94781 0 0 1 120.929524 49.054476h588.751238a24.380952 24.380952 0 1 1 0 48.761905H120.929524a24.185905 24.185905 0 0 0-24.478476 23.990857l2.048 781.360762c0.048762 13.263238 11.117714 24.137143 24.868571 24.137143h78.896762z m432.956952 48.761905a24.380952 24.380952 0 1 1 0-48.761905h364.007619a24.624762 24.624762 0 0 0 24.624762-24.478476l-0.097524-433.39581a24.380952 24.380952 0 0 1 48.761905 0l0.097524 433.347048c0 40.472381-32.865524 73.289143-73.386667 73.289143h-364.007619z" p-id="2670" fill="#ffffff"></path><path d="M1005.080381 65.682286a48.761905 48.761905 0 0 0-68.705524 5.997714L362.203429 755.95581v92.111238H475.91619L1048.429714 165.741714a48.761905 48.761905 0 0 0-5.997714-68.705524l-37.351619-31.353904z m31.353905-37.351619l37.351619 31.353904a97.52381 97.52381 0 0 1 11.995428 137.411048L513.219048 879.420952a48.761905 48.761905 0 0 1-37.351619 17.408H362.300952a48.761905 48.761905 0 0 1-48.761904-48.761904v-92.16a48.761905 48.761905 0 0 1 11.361523-31.305143L899.023238 40.374857A97.52381 97.52381 0 0 1 1036.434286 28.281905z" p-id="2671" fill="#ffffff"></path><path d="M870.692571 112.054857l31.353905-37.351619 149.406476 125.366857-31.353904 37.351619z" p-id="2672" fill="#ffffff"></path></svg>