<?xml version="1.0" standalone="no"?><!DOCTYPE svg PUBLIC "-//W3C//DTD SVG 1.1//EN" "http://www.w3.org/Graphics/SVG/1.1/DTD/svg11.dtd"><svg t="1560846155473" class="icon" style="" viewBox="0 0 1024 1024" version="1.1" xmlns="http://www.w3.org/2000/svg" p-id="1724" xmlns:xlink="http://www.w3.org/1999/xlink" width="200" height="200"><defs><style type="text/css"></style></defs><path d="M500.736 504.32a229.12 229.12 0 1 1 0-458.24 229.12 229.12 0 0 1 0 458.24z m0-64a165.12 165.12 0 1 0 0-330.24 165.12 165.12 0 0 0 0 330.24zM374.4 547.84a32 32 0 1 1 0 64H303.936c-37.12 0-69.504 25.024-79.168 63.04l-44.416 132.032c-1.6 6.336-2.432 12.8-2.432 19.328 0 44.16 36.16 80 80.896 80h491.008c6.656 0 13.248-0.832 19.648-2.432 43.328-10.688 69.568-54.144 59.52-94.528l-45.824-136.768A80.704 80.704 0 0 0 704.64 611.84H639.68a32 32 0 1 1 0-64h65.024c66.368 0 124.352 44.928 139.84 106.624l45.824 136.768a144 144 0 0 1-105.472 174.72c-11.52 2.88-23.232 4.288-35.072 4.288H258.816A144.448 144.448 0 0 1 113.92 826.24c0-11.776 1.472-23.552 5.056-37.376l44.416-132.032A144.704 144.704 0 0 1 304 547.84h70.4z m100.416 76.48l-26.112-35.904c-17.792-24.576-7.872-44.416 22.144-44.416h75.84c30.208 0 39.936 19.84 22.08 44.416l-22.72 31.168c21.248 48 46.272 105.6 55.232 131.2 2.688 7.68-1.472 14.464-1.472 14.464l-46.656 52.736c-23.424 26.56-61.312 26.752-85.184-0.32 0 0-41.472-46.912-46.72-53.12-5.248-6.144-1.92-14.144-1.92-14.144l55.488-126.08z" p-id="1725" fill="#ffffff"></path></svg>