<?xml version="1.0" standalone="no"?><!DOCTYPE svg PUBLIC "-//W3C//DTD SVG 1.1//EN" "http://www.w3.org/Graphics/SVG/1.1/DTD/svg11.dtd"><svg t="1560841254408" class="icon" style="" viewBox="0 0 1077 1024" version="1.1" xmlns="http://www.w3.org/2000/svg" p-id="2513" xmlns:xlink="http://www.w3.org/1999/xlink" width="210.3515625" height="200"><defs><style type="text/css"></style></defs><path d="M53.894737 215.578947v754.526316h970.105263V215.578947H53.894737z m0-53.894736h970.105263a53.894737 53.894737 0 0 1 53.894737 53.894736v754.526316a53.894737 53.894737 0 0 1-53.894737 53.894737H53.894737a53.894737 53.894737 0 0 1-53.894737-53.894737V215.578947a53.894737 53.894737 0 0 1 53.894737-53.894736z" p-id="2514" fill="#ffffff"></path><path d="M323.368421 161.684211V53.894737h431.157895v107.789474H323.368421z m0 53.894736h431.157895a53.894737 53.894737 0 0 0 53.894737-53.894736V53.894737a53.894737 53.894737 0 0 0-53.894737-53.894737H323.368421a53.894737 53.894737 0 0 0-53.894737 53.894737v107.789474a53.894737 53.894737 0 0 0 53.894737 53.894736zM485.052632 485.052632v161.68421h107.789473V485.052632H485.052632z m0-53.894737h107.789473a53.894737 53.894737 0 0 1 53.894737 53.894737v161.68421a53.894737 53.894737 0 0 1-53.894737 53.894737H485.052632a53.894737 53.894737 0 0 1-53.894737-53.894737V485.052632a53.894737 53.894737 0 0 1 53.894737-53.894737z" p-id="2515" fill="#ffffff"></path><path d="M53.894737 592.842105v-53.894737h404.210526v53.894737zM619.789474 592.842105v-53.894737h431.157894v53.894737z" p-id="2516" fill="#ffffff"></path></svg>