<?xml version="1.0" standalone="no"?><!DOCTYPE svg PUBLIC "-//W3C//DTD SVG 1.1//EN" "http://www.w3.org/Graphics/SVG/1.1/DTD/svg11.dtd"><svg t="1560841232663" class="icon" style="" viewBox="0 0 1024 1024" version="1.1" xmlns="http://www.w3.org/2000/svg" p-id="2359" xmlns:xlink="http://www.w3.org/1999/xlink" width="200" height="200"><defs><style type="text/css"></style></defs><path d="M431.552 644.544l22.592 22.656a32 32 0 0 1-45.248 45.248L273.152 576.64a32 32 0 0 1 45.248-45.248l113.152 113.152 248.896-248.896a32 32 0 0 1 45.248 45.248l-271.552 271.552a32 32 0 0 1-45.248-45.248l22.656-22.656zM864.192 128a32 32 0 1 1 0-64h63.808A96 96 0 0 1 1024 160v768a96 96 0 0 1-96 96h-832A96 96 0 0 1 0 928v-768A96 96 0 0 1 96 64h64a32 32 0 1 1 0 64h-64a32 32 0 0 0-32 32v768c0 32 14.336 32 32 32h832a32 32 0 0 0 32-32v-768a32 32 0 0 0-32-32h-63.872zM405.44 128c-11.776 0-21.248-14.336-21.248-32s9.472-32 21.248-32H618.88c11.776 0 21.312 14.336 21.312 32s-9.6 32-21.312 32H405.504zM288 0a32 32 0 0 1 32 32v128a32 32 0 0 1-64 0v-128a32 32 0 0 1 32-32z m448 0a32 32 0 0 1 32 32v128a32 32 0 1 1-64 0v-128a32 32 0 0 1 32-32z" p-id="2360" fill="#ffffff"></path></svg>