<?xml version="1.0" standalone="no"?><!DOCTYPE svg PUBLIC "-//W3C//DTD SVG 1.1//EN" "http://www.w3.org/Graphics/SVG/1.1/DTD/svg11.dtd"><svg t="1663053459879" class="icon" viewBox="0 0 1024 1024" version="1.1" xmlns="http://www.w3.org/2000/svg" p-id="43262" xmlns:xlink="http://www.w3.org/1999/xlink" width="200" height="200"><path d="M512 512m-448 0a448 448 0 1 0 896 0 448 448 0 1 0-896 0Z" fill="#FC9600" p-id="43263"></path><path d="M444.854857 556.763429c0-24.722286 20.041143-44.763429 44.836572-44.763429H691.2a44.836571 44.836571 0 1 1 0 89.6H489.691429a44.763429 44.763429 0 0 1-44.836572-44.836571z" fill="#FFFFFF" p-id="43264"></path><path d="M489.691429 310.418286c24.722286 0 44.763429 20.041143 44.763428 44.763428v201.581715a44.763429 44.763429 0 1 1-89.6 0V355.181714c0-24.722286 20.041143-44.763429 44.836572-44.763428z" fill="#FFFFFF" p-id="43265"></path></svg>