<?xml version="1.0" standalone="no"?><!DOCTYPE svg PUBLIC "-//W3C//DTD SVG 1.1//EN" "http://www.w3.org/Graphics/SVG/1.1/DTD/svg11.dtd"><svg t="1663053476456" class="icon" viewBox="0 0 1024 1024" version="1.1" xmlns="http://www.w3.org/2000/svg" p-id="43535" xmlns:xlink="http://www.w3.org/1999/xlink" width="200" height="200"><path d="M512 512m-448 0a448 448 0 1 0 896 0 448 448 0 1 0-896 0Z" fill="#8C8C8C" p-id="43536"></path><path d="M512 243.2c-13.385143 0-24.429714 6.436571-33.133714 19.382857a72.411429 72.411429 0 0 0-11.556572 45.933714l17.700572 261.412572a41.691429 41.691429 0 0 0 8.777143 22.966857 22.674286 22.674286 0 0 0 18.139428 8.704 22.674286 22.674286 0 0 0 18.139429-8.704 41.691429 41.691429 0 0 0 8.777143-22.966857l17.773714-261.412572a72.411429 72.411429 0 0 0-11.556572-45.933714c-8.777143-12.946286-19.748571-19.382857-33.133714-19.382857zM512 735.963429a47.542857 47.542857 0 0 0 32.036571-13.165715 41.984 41.984 0 0 0 12.726858-31.597714 43.446857 43.446857 0 0 0-44.836572-44.836571 43.52 43.52 0 0 0-44.763428 44.836571c0 12.873143 4.242286 23.405714 12.726857 31.597714a47.542857 47.542857 0 0 0 32.036571 13.165715z" fill="#FFFFFF" p-id="43537"></path></svg>