<?xml version="1.0" standalone="no"?><!DOCTYPE svg PUBLIC "-//W3C//DTD SVG 1.1//EN" "http://www.w3.org/Graphics/SVG/1.1/DTD/svg11.dtd"><svg t="1663298484590" class="icon" viewBox="0 0 1024 1024" version="1.1" xmlns="http://www.w3.org/2000/svg" p-id="13488" xmlns:xlink="http://www.w3.org/1999/xlink" width="200" height="200"><path d="M512 512m-448 0a448 448 0 1 0 896 0 448 448 0 1 0-896 0Z" fill="#1E4EDC" p-id="13489"></path><path d="M532.333714 301.860571a25.6 25.6 0 0 0 0 36.205715L706.194286 512 532.333714 685.860571a25.6 25.6 0 0 0 36.132572 36.205715l183.003428-182.857143a38.4 38.4 0 0 0 0-54.345143L568.466286 301.860571a25.6 25.6 0 0 0-36.132572 0z" fill="#FFFFFF" p-id="13490"></path><path d="M256 512a25.6 25.6 0 0 1 25.6-25.6H716.8a25.6 25.6 0 1 1 0 51.2H281.6A25.6 25.6 0 0 1 256 512z" fill="#FFFFFF" p-id="13491"></path></svg>