<?xml version="1.0" standalone="no"?><!DOCTYPE svg PUBLIC "-//W3C//DTD SVG 1.1//EN" "http://www.w3.org/Graphics/SVG/1.1/DTD/svg11.dtd"><svg t="1663063396816" class="icon" viewBox="0 0 1024 1024" version="1.1" xmlns="http://www.w3.org/2000/svg" p-id="37551" xmlns:xlink="http://www.w3.org/1999/xlink" width="200" height="200"><path d="M545.6 120a33.6 33.6 0 1 0-67.2 0v505.216L357.888 489.664a33.6 33.6 0 1 0-50.176 44.672l170.24 191.552a45.568 45.568 0 0 0 68.096 0l170.24-191.552a33.6 33.6 0 0 0-50.176-44.672L545.6 625.28V120z" fill="#1E4EDC" p-id="37552"></path><path d="M153.6 724.8c18.56 0 33.6 15.04 33.6 33.6v67.2c0 18.56 15.04 33.6 33.6 33.6h582.4c18.56 0 33.6-15.04 33.6-33.6v-67.2a33.6 33.6 0 1 1 67.2 0v67.2c0 55.68-45.12 100.8-100.8 100.8h-582.4c-55.68 0-100.8-45.12-100.8-100.8v-67.2c0-18.56 15.04-33.6 33.6-33.6z" fill="#1E4EDC" p-id="37553"></path></svg>