<?xml version="1.0" standalone="no"?><!DOCTYPE svg PUBLIC "-//W3C//DTD SVG 1.1//EN" "http://www.w3.org/Graphics/SVG/1.1/DTD/svg11.dtd"><svg t="1663053486648" class="icon" viewBox="0 0 1024 1024" version="1.1" xmlns="http://www.w3.org/2000/svg" p-id="43809" xmlns:xlink="http://www.w3.org/1999/xlink" width="200" height="200"><path d="M0 0m128 0l768 0q128 0 128 128l0 768q0 128-128 128l-768 0q-128 0-128-128l0-768q0-128 128-128Z" fill="#C7DCFF" p-id="43810"></path><path d="M562.368 217.984c0 10.88-4.096 20.8-10.88 28.288a252.096 252.096 0 0 1 212.48 248.96v235.136h58.88a25.216 25.216 0 1 1 0 50.432h-228.48a84.032 84.032 0 0 1-164.672 0h-228.48a25.216 25.216 0 0 1 0-50.368h58.752V495.104A252.032 252.032 0 0 1 487.68 244.352a41.984 41.984 0 1 1 74.688-26.368z" fill="#1E4EDC" p-id="43811"></path></svg>