<?xml version="1.0" standalone="no"?><!DOCTYPE svg PUBLIC "-//W3C//DTD SVG 1.1//EN" "http://www.w3.org/Graphics/SVG/1.1/DTD/svg11.dtd"><svg t="1663053481501" class="icon" viewBox="0 0 1024 1024" version="1.1" xmlns="http://www.w3.org/2000/svg" p-id="43671" xmlns:xlink="http://www.w3.org/1999/xlink" width="200" height="200"><path d="M0 0m128 0l768 0q128 0 128 128l0 768q0 128-128 128l-768 0q-128 0-128-128l0-768q0-128 128-128Z" fill="#C7DCFF" p-id="43672"></path><path d="M276.8 385.984c0-13.888 11.264-25.152 25.152-25.152h184.832a25.216 25.216 0 0 1 0 50.368H301.952a25.216 25.216 0 0 1-25.152-25.216z" fill="#1E4EDC" p-id="43673"></path><path d="M184.32 360.832c0-51.072 41.408-92.416 92.48-92.416h336c51.008 0 92.352 41.344 92.352 92.416v43.2l73.6-36.8c27.968-13.952 60.8 6.336 60.8 37.568v214.4a41.984 41.984 0 0 1-60.8 37.568l-73.6-36.8v43.264c0 51.008-41.344 92.352-92.352 92.352h-336a92.416 92.416 0 0 1-92.416-92.352V360.832z" fill="#1E4EDC" p-id="43674"></path><path d="M276.8 385.984c0-13.888 11.264-25.216 25.216-25.216h184.768a25.216 25.216 0 0 1 0 50.432H302.08a25.216 25.216 0 0 1-25.216-25.216z" fill="#C7DCFF" p-id="43675"></path></svg>