<?xml version="1.0" standalone="no"?><!DOCTYPE svg PUBLIC "-//W3C//DTD SVG 1.1//EN" "http://www.w3.org/Graphics/SVG/1.1/DTD/svg11.dtd"><svg t="1663053452335" class="icon" viewBox="0 0 1024 1024" version="1.1" xmlns="http://www.w3.org/2000/svg" p-id="43125" xmlns:xlink="http://www.w3.org/1999/xlink" width="200" height="200"><path d="M0 0m128 0l768 0q128 0 128 128l0 768q0 128-128 128l-768 0q-128 0-128-128l0-768q0-128 128-128Z" fill="#C7DCFF" p-id="43126"></path><path d="M839.68 512A327.68 327.68 0 1 1 184.32 512a327.68 327.68 0 0 1 655.36 0z" fill="#1E4EDC" p-id="43127"></path><path d="M486.144 390.848a43.264 43.264 0 0 0-66.56 36.48v169.344c0 34.112 37.76 54.848 66.56 36.48l133.056-84.608a43.264 43.264 0 0 0 0-73.088L486.08 390.848z" fill="#C7DCFF" p-id="43128"></path></svg>